<?xml version="1.0" encoding="UTF-8" standalone="no"?>
<svg
   xmlns:dc="http://purl.org/dc/elements/1.1/"
   xmlns:cc="http://creativecommons.org/ns#"
   xmlns:rdf="http://www.w3.org/1999/02/22-rdf-syntax-ns#"
   xmlns:svg="http://www.w3.org/2000/svg"
   xmlns="http://www.w3.org/2000/svg"
   id="svg8"
   version="1.1"
   viewBox="0 0 1192.0854 83.567608"
   height="315.84607"
   width="4505.5195">
  <defs
     id="defs2">
    <marker
       orient="auto"
       refY="0"
       refX="0"
       id="marker3145"
       style="overflow:visible">
      <path
         id="path3143"
         d="M 5.77,0 -2.88,5 V -5 Z"
         style="fill:#ffffff;fill-opacity:1;fill-rule:evenodd;stroke:#ffffff;stroke-width:1pt;stroke-opacity:1"
         transform="scale(0.2)" />
    </marker>
    <marker
       orient="auto"
       refY="0"
       refX="0"
       id="marker2665"
       style="overflow:visible">
      <path
         id="path2663"
         d="M 5.77,0 -2.88,5 V -5 Z"
         style="fill:#ffffff;fill-opacity:1;fill-rule:evenodd;stroke:#ffffff;stroke-width:1pt;stroke-opacity:1"
         transform="scale(0.2)" />
    </marker>
    <marker
       orient="auto"
       refY="0"
       refX="0"
       id="marker2289"
       style="overflow:visible">
      <path
         id="path2287"
         d="M 5.77,0 -2.88,5 V -5 Z"
         style="fill:#ffffff;fill-opacity:1;fill-rule:evenodd;stroke:#ffffff;stroke-width:1pt;stroke-opacity:1"
         transform="scale(0.2)" />
    </marker>
    <marker
       orient="auto"
       refY="0"
       refX="0"
       id="marker2115"
       style="overflow:visible">
      <path
         id="path2113"
         d="M 5.77,0 -2.88,5 V -5 Z"
         style="fill:#ffffff;fill-opacity:1;fill-rule:evenodd;stroke:#ffffff;stroke-width:1pt;stroke-opacity:1"
         transform="scale(0.2)" />
    </marker>
    <marker
       style="overflow:visible"
       id="marker1923"
       refX="0"
       refY="0"
       orient="auto">
      <path
         transform="scale(0.2)"
         style="fill:#ffffff;fill-opacity:1;fill-rule:evenodd;stroke:#ffffff;stroke-width:1pt;stroke-opacity:1"
         d="M 5.77,0 -2.88,5 V -5 Z"
         id="path1921" />
    </marker>
    <marker
       orient="auto"
       refY="0"
       refX="0"
       id="marker1619"
       style="overflow:visible">
      <path
         id="path1617"
         d="M 5.77,0 -2.88,5 V -5 Z"
         style="fill:#ffffff;fill-opacity:1;fill-rule:evenodd;stroke:#ffffff;stroke-width:1pt;stroke-opacity:1"
         transform="scale(0.2)" />
    </marker>
    <marker
       orient="auto"
       refY="0"
       refX="0"
       id="marker1175"
       style="overflow:visible">
      <path
         id="path1173"
         d="M 5.77,0 -2.88,5 V -5 Z"
         style="fill:#ffffff;fill-opacity:1;fill-rule:evenodd;stroke:#ffffff;stroke-width:1pt;stroke-opacity:1"
         transform="scale(0.2)" />
    </marker>
    <marker
       style="overflow:visible"
       id="marker1015"
       refX="0"
       refY="0"
       orient="auto">
      <path
         transform="scale(0.2)"
         style="fill:#ffffff;fill-opacity:1;fill-rule:evenodd;stroke:#ffffff;stroke-width:1pt;stroke-opacity:1"
         d="M 5.77,0 -2.88,5 V -5 Z"
         id="path1013" />
    </marker>
    <marker
       orient="auto"
       refY="0"
       refX="0"
       id="marker9030"
       style="overflow:visible">
      <path
         id="path9028"
         d="M 5.77,0 -2.88,5 V -5 Z"
         style="fill:#ffffff;fill-opacity:1;fill-rule:evenodd;stroke:#ffffff;stroke-width:1pt;stroke-opacity:1"
         transform="scale(0.2)" />
    </marker>
    <marker
       style="overflow:visible"
       id="marker8486"
       refX="0"
       refY="0"
       orient="auto">
      <path
         transform="scale(0.2)"
         style="fill:#ffffff;fill-opacity:1;fill-rule:evenodd;stroke:#ffffff;stroke-width:1pt;stroke-opacity:1"
         d="M 5.77,0 -2.88,5 V -5 Z"
         id="path8484" />
    </marker>
    <marker
       style="overflow:visible"
       id="marker7472"
       refX="0"
       refY="0"
       orient="auto">
      <path
         transform="scale(0.4)"
         style="fill:#ffffff;fill-opacity:1;fill-rule:evenodd;stroke:#ffffff;stroke-width:1pt;stroke-opacity:1"
         d="M 5.77,0 -2.88,5 V -5 Z"
         id="path7470" />
    </marker>
    <marker
       style="overflow:visible"
       id="marker3387"
       refX="0"
       refY="0"
       orient="auto">
      <path
         transform="scale(0.2)"
         style="fill:#ffffff;fill-opacity:1;fill-rule:evenodd;stroke:#ffffff;stroke-width:1pt;stroke-opacity:1"
         d="M 5.77,0 -2.88,5 V -5 Z"
         id="path3385" />
    </marker>
    <marker
       orient="auto"
       refY="0"
       refX="0"
       id="marker3377"
       style="overflow:visible">
      <path
         id="path3375"
         d="M 5.77,0 -2.88,5 V -5 Z"
         style="fill:#ffffff;fill-opacity:1;fill-rule:evenodd;stroke:#ffffff;stroke-width:1pt;stroke-opacity:1"
         transform="scale(0.2)" />
    </marker>
  </defs>
  <metadata
     id="metadata5">
    <rdf:RDF>
      <cc:Work
         rdf:about="">
        <dc:format>image/svg+xml</dc:format>
        <dc:type
           rdf:resource="http://purl.org/dc/dcmitype/StillImage" />
        <dc:title></dc:title>
      </cc:Work>
    </rdf:RDF>
  </metadata>
  <g
     id="layer1"
     transform="translate(239.08897,-400.72248)">
    <rect
       style="opacity:1;vector-effect:none;fill:#9aa0a8;fill-opacity:1;stroke:none;stroke-width:2;stroke-linecap:butt;stroke-linejoin:miter;stroke-miterlimit:4;stroke-dasharray:none;stroke-dashoffset:0;stroke-opacity:1"
       id="rect820"
       width="43.832203"
       height="43.832203"
       x="235.63857"
       y="627.27917" />
    <rect
       y="627.27917"
       x="285.90939"
       height="43.832203"
       width="43.832203"
       id="rect822"
       style="opacity:1;vector-effect:none;fill:#a7c4b5;fill-opacity:1;stroke:none;stroke-width:2;stroke-linecap:butt;stroke-linejoin:miter;stroke-miterlimit:4;stroke-dasharray:none;stroke-dashoffset:0;stroke-opacity:1" />
    <rect
       style="opacity:1;vector-effect:none;fill:#a9d8b8;fill-opacity:1;stroke:none;stroke-width:2;stroke-linecap:butt;stroke-linejoin:miter;stroke-miterlimit:4;stroke-dasharray:none;stroke-dashoffset:0;stroke-opacity:1"
       id="rect824"
       width="43.832203"
       height="43.832203"
       x="336.18027"
       y="627.27917" />
    <rect
       y="627.27917"
       x="386.45108"
       height="43.832203"
       width="43.832203"
       id="rect826"
       style="opacity:1;vector-effect:none;fill:#beffc7;fill-opacity:1;stroke:none;stroke-width:2;stroke-linecap:butt;stroke-linejoin:miter;stroke-miterlimit:4;stroke-dasharray:none;stroke-dashoffset:0;stroke-opacity:1" />
    <rect
       style="opacity:1;vector-effect:none;fill:#72705b;fill-opacity:1;stroke:none;stroke-width:2;stroke-linecap:butt;stroke-linejoin:miter;stroke-miterlimit:4;stroke-dasharray:none;stroke-dashoffset:0;stroke-opacity:1"
       id="rect828"
       width="43.832203"
       height="43.832203"
       x="436.7218"
       y="627.27917" />
    <rect
       y="627.27917"
       x="185.36775"
       height="43.832203"
       width="43.832203"
       id="rect830"
       style="opacity:1;vector-effect:none;fill:#ffffff;fill-opacity:1;stroke:none;stroke-width:2;stroke-linecap:butt;stroke-linejoin:miter;stroke-miterlimit:4;stroke-dasharray:none;stroke-dashoffset:0;stroke-opacity:1" />
    <g
       style="font-style:normal;font-variant:normal;font-weight:bold;font-stretch:normal;font-size:34.6236px;line-height:1;font-family:'IBM Plex Mono';-inkscape-font-specification:'IBM Plex Mono Bold';text-align:start;letter-spacing:0px;word-spacing:0px;writing-mode:lr-tb;text-anchor:start;fill:#a9d8b8;fill-opacity:1;stroke-width:0.264582"
       id="text995"
       aria-label="0">
      <path
         id="path3854"
         style="font-style:normal;font-variant:normal;font-weight:bold;font-stretch:normal;font-size:34.6236px;font-family:'IBM Plex Mono';-inkscape-font-specification:'IBM Plex Mono Bold';text-align:start;text-anchor:start;fill:#a9d8b8;fill-opacity:1;stroke-width:0.264582"
         d="m -163.46332,425.98531 q -4.84731,0 -7.16709,-3.28924 -2.28516,-3.28925 -2.28516,-9.20988 0,-5.92064 2.28516,-9.20988 2.31978,-3.28924 7.16709,-3.28924 4.8473,0 7.13246,3.28924 2.31978,3.28924 2.31978,9.20988 0,5.92063 -2.31978,9.20988 -2.28516,3.28924 -7.13246,3.28924 z m 0,-4.08559 q 2.31978,0 3.21999,-1.62731 0.93484,-1.62731 0.93484,-4.53569 v -4.50107 q 0,-2.90838 -0.93484,-4.53569 -0.90021,-1.62731 -3.21999,-1.62731 -2.31978,0 -3.25462,1.62731 -0.90021,1.62731 -0.90021,4.53569 v 4.50107 q 0,2.90838 0.90021,4.53569 0.93484,1.62731 3.25462,1.62731 z m 0,-6.37074 q -1.21183,0 -1.69656,-0.48473 -0.45011,-0.48473 -0.45011,-1.1772 v -0.76172 q 0,-0.69247 0.45011,-1.1772 0.48473,-0.48473 1.69656,-0.48473 1.21182,0 1.66193,0.48473 0.48473,0.48473 0.48473,1.1772 v 0.76172 q 0,0.69247 -0.48473,1.1772 -0.45011,0.48473 -1.66193,0.48473 z" />
    </g>
    <g
       style="font-style:normal;font-variant:normal;font-weight:bold;font-stretch:normal;font-size:34.6236px;line-height:1;font-family:'IBM Plex Mono';-inkscape-font-specification:'IBM Plex Mono Bold';text-align:start;letter-spacing:0px;word-spacing:0px;writing-mode:lr-tb;text-anchor:start;fill:#a9d8b8;fill-opacity:1;stroke-width:0.264582"
       id="text999"
       aria-label="256">
      <path
         id="path3857"
         style="font-style:normal;font-variant:normal;font-weight:bold;font-stretch:normal;font-size:34.6236px;font-family:'IBM Plex Mono';-inkscape-font-specification:'IBM Plex Mono Bold';text-align:start;text-anchor:start;fill:#a9d8b8;fill-opacity:1;stroke-width:0.264582"
         d="m -62.863255,425.56982 h -17.381048 v -4.74343 l 7.617192,-6.33612 q 1.973546,-1.69655 2.839136,-2.943 0.86559,-1.24645 0.86559,-2.6314 v -0.34623 q 0,-1.52344 -0.900214,-2.28516 -0.900214,-0.79634 -2.423652,-0.79634 -1.73118,0 -2.666017,1.00408 -0.934837,1.00409 -1.315697,2.38903 l -4.535692,-1.73118 q 0.415484,-1.24645 1.142579,-2.35441 0.727096,-1.14257 1.835051,-1.97354 1.142579,-0.83097 2.631394,-1.3157 1.488814,-0.51935 3.427736,-0.51935 1.973545,0 3.531607,0.55398 1.558062,0.55397 2.631394,1.52343 1.073331,0.96947 1.627309,2.31979 0.553978,1.31569 0.553978,2.87375 0,1.52344 -0.519354,2.80452 -0.484731,1.24645 -1.384944,2.3544 -0.86559,1.10796 -2.077416,2.14666 -1.177203,1.03871 -2.527523,2.07742 l -4.604939,3.56623 h 11.63353 z" />
      <path
         id="path3859"
         style="font-style:normal;font-variant:normal;font-weight:bold;font-stretch:normal;font-size:34.6236px;font-family:'IBM Plex Mono';-inkscape-font-specification:'IBM Plex Mono Bold';text-align:start;text-anchor:start;fill:#a9d8b8;fill-opacity:1;stroke-width:0.264582"
         d="m -43.141328,405.93824 h -11.183423 l -0.553977,7.65182 h 0.311612 q 0.38086,-0.83097 0.86559,-1.52344 0.48473,-0.7271 1.142579,-1.21183 0.657848,-0.51935 1.523438,-0.79634 0.86559,-0.27699 1.973545,-0.27699 1.488815,0 2.804512,0.51936 1.35032,0.51935 2.354405,1.52344 1.038708,0.96946 1.627309,2.42365 0.588601,1.41956 0.588601,3.21999 0,1.83505 -0.623225,3.39311 -0.623224,1.55807 -1.83505,2.70065 -1.177203,1.14257 -2.943006,1.80042 -1.765804,0.62323 -4.016338,0.62323 -1.765804,0 -3.150748,-0.38086 -1.384944,-0.38086 -2.458275,-1.00409 -1.038708,-0.65784 -1.835051,-1.48881 -0.761719,-0.86559 -1.315697,-1.7658 l 3.773973,-2.97763 q 0.415483,0.69247 0.86559,1.31569 0.48473,0.62323 1.073331,1.10796 0.623225,0.4501 1.350321,0.72709 0.761719,0.24237 1.73118,0.24237 1.938921,0 2.908382,-1.03871 1.004084,-1.07333 1.004084,-2.83913 v -0.27699 q 0,-1.69656 -1.004084,-2.66602 -1.004084,-0.96946 -2.769888,-0.96946 -1.454191,0 -2.423652,0.5886 -0.934837,0.55398 -1.419568,1.10795 l -4.258702,-0.5886 0.900213,-13.67632 h 14.992019 z" />
      <path
         id="path3861"
         style="font-style:normal;font-variant:normal;font-weight:bold;font-stretch:normal;font-size:34.6236px;font-family:'IBM Plex Mono';-inkscape-font-specification:'IBM Plex Mono Bold';text-align:start;text-anchor:start;fill:#a9d8b8;fill-opacity:1;stroke-width:0.264582"
         d="m -30.032508,425.98531 q -2.181287,0 -3.912467,-0.65785 -1.696556,-0.69247 -2.873759,-1.93892 -1.177202,-1.28108 -1.800427,-3.04688 -0.623225,-1.7658 -0.623225,-3.94709 0,-2.52752 0.796343,-4.77806 0.796343,-2.28515 2.042792,-4.18945 1.281074,-1.93892 2.839136,-3.46236 1.592685,-1.52344 3.150747,-2.56215 h 7.167085 q -2.250534,1.55806 -4.050961,3.01225 -1.765803,1.41957 -3.116124,2.87376 -1.315697,1.41957 -2.181287,2.94301 -0.830966,1.52344 -1.211826,3.28924 l 0.311613,0.10387 q 0.311612,-0.69247 0.761719,-1.35032 0.450107,-0.65785 1.107955,-1.14258 0.657849,-0.51935 1.523439,-0.83096 0.900213,-0.31162 2.077416,-0.31162 1.523438,0 2.839135,0.55398 1.315697,0.51936 2.250534,1.52344 0.969461,0.96946 1.523438,2.35441 0.553978,1.38494 0.553978,3.11612 0,1.83505 -0.657849,3.39311 -0.657848,1.55806 -1.869674,2.70064 -1.177202,1.10796 -2.873759,1.73118 -1.696556,0.62323 -3.773972,0.62323 z m -0.03462,-4.05096 q 1.869675,0 2.839135,-0.96946 0.969461,-1.00409 0.969461,-2.80452 v -0.48473 q 0,-1.80042 -1.004084,-2.73526 -0.969461,-0.96946 -2.804512,-0.96946 -1.765803,0 -2.769888,0.96946 -1.004084,0.93484 -1.004084,2.73526 v 0.48473 q 0,1.80043 0.934837,2.80452 0.969461,0.96946 2.839135,0.96946 z" />
    </g>
    <g
       style="font-style:normal;font-variant:normal;font-weight:bold;font-stretch:normal;font-size:34.6236px;line-height:1;font-family:'IBM Plex Mono';-inkscape-font-specification:'IBM Plex Mono Bold';text-align:start;letter-spacing:0px;word-spacing:0px;writing-mode:lr-tb;text-anchor:start;fill:#a9d8b8;fill-opacity:1;stroke-width:0.264582"
       id="text1003"
       aria-label="512">
      <path
         id="path3864"
         style="font-style:normal;font-variant:normal;font-weight:bold;font-stretch:normal;font-size:34.6236px;font-family:'IBM Plex Mono';-inkscape-font-specification:'IBM Plex Mono Bold';text-align:start;text-anchor:start;fill:#a9d8b8;fill-opacity:1;stroke-width:0.264582"
         d="M 69.113349,405.93824 H 57.929926 l -0.553978,7.65182 h 0.311613 q 0.380859,-0.83097 0.86559,-1.52344 0.48473,-0.7271 1.142579,-1.21183 0.657848,-0.51935 1.523438,-0.79634 0.86559,-0.27699 1.973545,-0.27699 1.488815,0 2.804512,0.51936 1.35032,0.51935 2.354405,1.52344 1.038708,0.96946 1.627309,2.42365 0.588601,1.41956 0.588601,3.21999 0,1.83505 -0.623225,3.39311 -0.623225,1.55807 -1.835051,2.70065 -1.177202,1.14257 -2.943006,1.80042 -1.765803,0.62323 -4.016337,0.62323 -1.765804,0 -3.150748,-0.38086 -1.384944,-0.38086 -2.458275,-1.00409 -1.038708,-0.65784 -1.835051,-1.48881 -0.761719,-0.86559 -1.315697,-1.7658 l 3.773972,-2.97763 q 0.415484,0.69247 0.86559,1.31569 0.484731,0.62323 1.073332,1.10796 0.623225,0.4501 1.35032,0.72709 0.76172,0.24237 1.73118,0.24237 1.938922,0 2.908383,-1.03871 1.004084,-1.07333 1.004084,-2.83913 v -0.27699 q 0,-1.69656 -1.004084,-2.66602 -1.004085,-0.96946 -2.769888,-0.96946 -1.454191,0 -2.423652,0.5886 -0.934837,0.55398 -1.419568,1.10795 l -4.258703,-0.5886 0.900214,-13.67632 h 14.992019 z" />
      <path
         id="path3866"
         style="font-style:normal;font-variant:normal;font-weight:bold;font-stretch:normal;font-size:34.6236px;font-family:'IBM Plex Mono';-inkscape-font-specification:'IBM Plex Mono Bold';text-align:start;text-anchor:start;fill:#a9d8b8;fill-opacity:1;stroke-width:0.264582"
         d="m 74.951213,425.56982 v -4.18945 h 6.509236 v -16.20385 h -0.311612 l -4.916551,6.43999 -3.323866,-2.59677 5.782141,-7.61719 h 7.963428 v 19.97782 h 5.124293 v 4.18945 z" />
      <path
         id="path3868"
         style="font-style:normal;font-variant:normal;font-weight:bold;font-stretch:normal;font-size:34.6236px;font-family:'IBM Plex Mono';-inkscape-font-specification:'IBM Plex Mono Bold';text-align:start;text-anchor:start;fill:#a9d8b8;fill-opacity:1;stroke-width:0.264582"
         d="M 111.67333,425.56982 H 94.29228 v -4.74343 l 7.61719,-6.33612 q 1.97355,-1.69655 2.83914,-2.943 0.86559,-1.24645 0.86559,-2.6314 v -0.34623 q 0,-1.52344 -0.90022,-2.28516 -0.90021,-0.79634 -2.42365,-0.79634 -1.73118,0 -2.666015,1.00408 -0.934837,1.00409 -1.315697,2.38903 l -4.535692,-1.73118 q 0.415484,-1.24645 1.142579,-2.35441 0.727096,-1.14257 1.835051,-1.97354 1.142579,-0.83097 2.631394,-1.3157 1.48881,-0.51935 3.42774,-0.51935 1.97354,0 3.5316,0.55398 1.55807,0.55397 2.6314,1.52343 1.07333,0.96947 1.62731,2.31979 0.55397,1.31569 0.55397,2.87375 0,1.52344 -0.51935,2.80452 -0.48473,1.24645 -1.38494,2.3544 -0.86559,1.10796 -2.07742,2.14666 -1.1772,1.03871 -2.52752,2.07742 l -4.60494,3.56623 h 11.63353 z" />
    </g>
    <path
       style="font-variation-settings:normal;vector-effect:none;fill:none;fill-opacity:1;stroke:#ffffff;stroke-width:8;stroke-linecap:butt;stroke-linejoin:miter;stroke-miterlimit:4;stroke-dasharray:none;stroke-dashoffset:0;stroke-opacity:1;marker-end:url(#marker1015);stop-color:#000000"
       d="m -142.60672,414.64116 h 39.07526"
       id="path1011" />
    <g
       style="font-style:normal;font-variant:normal;font-weight:bold;font-stretch:normal;font-size:34.6236px;line-height:1;font-family:'IBM Plex Mono';-inkscape-font-specification:'IBM Plex Mono Bold';text-align:start;letter-spacing:0px;word-spacing:0px;writing-mode:lr-tb;text-anchor:start;fill:#a9d8b8;fill-opacity:1;stroke-width:0.264582"
       id="text1141"
       aria-label="32512">
      <path
         id="path3871"
         style="font-style:normal;font-variant:normal;font-weight:bold;font-stretch:normal;font-size:34.6236px;font-family:'IBM Plex Mono';-inkscape-font-specification:'IBM Plex Mono Bold';text-align:start;text-anchor:start;fill:#a9d8b8;fill-opacity:1;stroke-width:0.264582"
         d="m 232.61728,410.95867 q 2.00817,0 2.90838,-0.76172 0.93484,-0.76172 0.93484,-1.86968 v -0.24236 q 0,-1.3157 -0.90021,-2.07742 -0.86559,-0.79634 -2.4929,-0.79634 -1.48882,0 -2.80451,0.76172 -1.28108,0.72709 -2.18129,2.11204 l -3.28924,-3.04688 q 0.69247,-0.90021 1.52344,-1.62731 0.83096,-0.76172 1.83505,-1.28107 1.00408,-0.55398 2.25053,-0.83097 1.28107,-0.31161 2.87376,-0.31161 1.97355,0 3.56623,0.45011 1.59269,0.4501 2.70064,1.31569 1.14258,0.83097 1.76581,2.00817 0.62322,1.1772 0.62322,2.63139 0,1.14258 -0.38086,2.07742 -0.38086,0.93484 -1.03871,1.62731 -0.62322,0.69247 -1.48881,1.14258 -0.83097,0.41548 -1.80043,0.5886 v 0.20774 q 2.21591,0.38086 3.6701,1.86968 1.48882,1.45419 1.48882,3.94709 0,1.62731 -0.69247,2.943 -0.65785,1.3157 -1.9043,2.25054 -1.21183,0.93483 -2.97763,1.45419 -1.73118,0.48473 -3.87785,0.48473 -1.83505,0 -3.25461,-0.38086 -1.38495,-0.38086 -2.45828,-1.00409 -1.07333,-0.65784 -1.86967,-1.48881 -0.76172,-0.86559 -1.35032,-1.7658 l 3.84322,-2.97763 q 0.79634,1.48881 1.97354,2.45827 1.21183,0.93484 3.22,0.93484 1.86967,0 2.87375,-0.86559 1.00409,-0.86559 1.00409,-2.38903 v -0.24237 q 0,-1.48881 -1.14258,-2.21591 -1.14258,-0.76171 -3.18537,-0.76171 h -2.25054 v -4.32795 z" />
      <path
         id="path3873"
         style="font-style:normal;font-variant:normal;font-weight:bold;font-stretch:normal;font-size:34.6236px;font-family:'IBM Plex Mono';-inkscape-font-specification:'IBM Plex Mono Bold';text-align:start;text-anchor:start;fill:#a9d8b8;fill-opacity:1;stroke-width:0.264582"
         d="m 263.14177,425.56982 h -17.38104 v -4.74343 l 7.61719,-6.33612 q 1.97354,-1.69655 2.83913,-2.943 0.86559,-1.24645 0.86559,-2.6314 v -0.34623 q 0,-1.52344 -0.90021,-2.28516 -0.90021,-0.79634 -2.42365,-0.79634 -1.73118,0 -2.66602,1.00408 -0.93484,1.00409 -1.3157,2.38903 l -4.53569,-1.73118 q 0.41548,-1.24645 1.14258,-2.35441 0.7271,-1.14257 1.83505,-1.97354 1.14258,-0.83097 2.63139,-1.3157 1.48882,-0.51935 3.42774,-0.51935 1.97355,0 3.53161,0.55398 1.55806,0.55397 2.63139,1.52343 1.07333,0.96947 1.62731,2.31979 0.55398,1.31569 0.55398,2.87375 0,1.52344 -0.51936,2.80452 -0.48473,1.24645 -1.38494,2.3544 -0.86559,1.10796 -2.07742,2.14666 -1.1772,1.03871 -2.52752,2.07742 l -4.60494,3.56623 h 11.63353 z" />
      <path
         id="path3875"
         style="font-style:normal;font-variant:normal;font-weight:bold;font-stretch:normal;font-size:34.6236px;font-family:'IBM Plex Mono';-inkscape-font-specification:'IBM Plex Mono Bold';text-align:start;text-anchor:start;fill:#a9d8b8;fill-opacity:1;stroke-width:0.264582"
         d="m 282.8637,405.93824 h -11.18342 l -0.55398,7.65182 h 0.31161 q 0.38086,-0.83097 0.86559,-1.52344 0.48473,-0.7271 1.14258,-1.21183 0.65785,-0.51935 1.52344,-0.79634 0.86559,-0.27699 1.97354,-0.27699 1.48882,0 2.80452,0.51936 1.35032,0.51935 2.3544,1.52344 1.03871,0.96946 1.62731,2.42365 0.5886,1.41956 0.5886,3.21999 0,1.83505 -0.62322,3.39311 -0.62323,1.55807 -1.83505,2.70065 -1.17721,1.14257 -2.94301,1.80042 -1.7658,0.62323 -4.01634,0.62323 -1.7658,0 -3.15075,-0.38086 -1.38494,-0.38086 -2.45827,-1.00409 -1.03871,-0.65784 -1.83505,-1.48881 -0.76172,-0.86559 -1.3157,-1.7658 l 3.77397,-2.97763 q 0.41549,0.69247 0.86559,1.31569 0.48473,0.62323 1.07334,1.10796 0.62322,0.4501 1.35032,0.72709 0.76171,0.24237 1.73118,0.24237 1.93892,0 2.90838,-1.03871 1.00408,-1.07333 1.00408,-2.83913 v -0.27699 q 0,-1.69656 -1.00408,-2.66602 -1.00409,-0.96946 -2.76989,-0.96946 -1.45419,0 -2.42365,0.5886 -0.93484,0.55398 -1.41957,1.10795 l -4.2587,-0.5886 0.90021,-13.67632 h 14.99202 z" />
      <path
         id="path3877"
         style="font-style:normal;font-variant:normal;font-weight:bold;font-stretch:normal;font-size:34.6236px;font-family:'IBM Plex Mono';-inkscape-font-specification:'IBM Plex Mono Bold';text-align:start;text-anchor:start;fill:#a9d8b8;fill-opacity:1;stroke-width:0.264582"
         d="m 288.70156,425.56982 v -4.18945 h 6.50924 v -16.20385 h -0.31161 l -4.91655,6.43999 -3.32387,-2.59677 5.78214,-7.61719 h 7.96343 v 19.97782 h 5.12429 v 4.18945 z" />
      <path
         id="path3879"
         style="font-style:normal;font-variant:normal;font-weight:bold;font-stretch:normal;font-size:34.6236px;font-family:'IBM Plex Mono';-inkscape-font-specification:'IBM Plex Mono Bold';text-align:start;text-anchor:start;fill:#a9d8b8;fill-opacity:1;stroke-width:0.264582"
         d="m 325.42368,425.56982 h -17.38105 v -4.74343 l 7.61719,-6.33612 q 1.97355,-1.69655 2.83914,-2.943 0.86559,-1.24645 0.86559,-2.6314 v -0.34623 q 0,-1.52344 -0.90022,-2.28516 -0.90021,-0.79634 -2.42365,-0.79634 -1.73118,0 -2.66601,1.00408 -0.93484,1.00409 -1.3157,2.38903 l -4.53569,-1.73118 q 0.41548,-1.24645 1.14258,-2.35441 0.72709,-1.14257 1.83505,-1.97354 1.14258,-0.83097 2.63139,-1.3157 1.48882,-0.51935 3.42774,-0.51935 1.97354,0 3.5316,0.55398 1.55807,0.55397 2.6314,1.52343 1.07333,0.96947 1.62731,2.31979 0.55397,1.31569 0.55397,2.87375 0,1.52344 -0.51935,2.80452 -0.48473,1.24645 -1.38494,2.3544 -0.86559,1.10796 -2.07742,2.14666 -1.1772,1.03871 -2.52752,2.07742 l -4.60494,3.56623 h 11.63353 z" />
    </g>
    <g
       style="font-style:normal;font-variant:normal;font-weight:bold;font-stretch:normal;font-size:34.6236px;line-height:1;font-family:'IBM Plex Mono';-inkscape-font-specification:'IBM Plex Mono Bold';text-align:start;letter-spacing:0px;word-spacing:0px;writing-mode:lr-tb;text-anchor:start;fill:#a9d8b8;fill-opacity:1;stroke-width:0.264582"
       id="text1145"
       aria-label="-32768">
      <path
         id="path3882"
         style="font-style:normal;font-variant:normal;font-weight:bold;font-stretch:normal;font-size:34.6236px;font-family:'IBM Plex Mono';-inkscape-font-specification:'IBM Plex Mono Bold';text-align:start;text-anchor:start;fill:#a9d8b8;fill-opacity:1;stroke-width:0.264582"
         d="m 398.67106,417.4679 v -4.91655 h 11.07956 v 4.91655 z" />
      <path
         id="path3884"
         style="font-style:normal;font-variant:normal;font-weight:bold;font-stretch:normal;font-size:34.6236px;font-family:'IBM Plex Mono';-inkscape-font-specification:'IBM Plex Mono Bold';text-align:start;text-anchor:start;fill:#a9d8b8;fill-opacity:1;stroke-width:0.264582"
         d="m 424.03664,410.95867 q 2.00817,0 2.90838,-0.76172 0.93484,-0.76172 0.93484,-1.86968 v -0.24236 q 0,-1.3157 -0.90021,-2.07742 -0.86559,-0.79634 -2.4929,-0.79634 -1.48882,0 -2.80452,0.76172 -1.28107,0.72709 -2.18128,2.11204 l -3.28924,-3.04688 q 0.69247,-0.90021 1.52343,-1.62731 0.83097,-0.76172 1.83505,-1.28107 1.00409,-0.55398 2.25054,-0.83097 1.28107,-0.31161 2.87376,-0.31161 1.97354,0 3.56623,0.45011 1.59268,0.4501 2.70064,1.31569 1.14258,0.83097 1.7658,2.00817 0.62323,1.1772 0.62323,2.63139 0,1.14258 -0.38086,2.07742 -0.38086,0.93484 -1.03871,1.62731 -0.62322,0.69247 -1.48881,1.14258 -0.83097,0.41548 -1.80043,0.5886 v 0.20774 q 2.21591,0.38086 3.6701,1.86968 1.48881,1.45419 1.48881,3.94709 0,1.62731 -0.69247,2.943 -0.65785,1.3157 -1.9043,2.25054 -1.21182,0.93483 -2.97763,1.45419 -1.73118,0.48473 -3.87784,0.48473 -1.83505,0 -3.25462,-0.38086 -1.38494,-0.38086 -2.45827,-1.00409 -1.07333,-0.65784 -1.86968,-1.48881 -0.76172,-0.86559 -1.35032,-1.7658 l 3.84322,-2.97763 q 0.79635,1.48881 1.97355,2.45827 1.21182,0.93484 3.21999,0.93484 1.86968,0 2.87376,-0.86559 1.00409,-0.86559 1.00409,-2.38903 v -0.24237 q 0,-1.48881 -1.14258,-2.21591 -1.14258,-0.76171 -3.18537,-0.76171 h -2.25054 v -4.32795 z" />
      <path
         id="path3886"
         style="font-style:normal;font-variant:normal;font-weight:bold;font-stretch:normal;font-size:34.6236px;font-family:'IBM Plex Mono';-inkscape-font-specification:'IBM Plex Mono Bold';text-align:start;text-anchor:start;fill:#a9d8b8;fill-opacity:1;stroke-width:0.264582"
         d="m 454.56113,425.56982 h -17.38105 v -4.74343 l 7.61719,-6.33612 q 1.97355,-1.69655 2.83914,-2.943 0.86559,-1.24645 0.86559,-2.6314 v -0.34623 q 0,-1.52344 -0.90021,-2.28516 -0.90022,-0.79634 -2.42366,-0.79634 -1.73118,0 -2.66601,1.00408 -0.93484,1.00409 -1.3157,2.38903 l -4.53569,-1.73118 q 0.41548,-1.24645 1.14258,-2.35441 0.72709,-1.14257 1.83505,-1.97354 1.14258,-0.83097 2.63139,-1.3157 1.48882,-0.51935 3.42774,-0.51935 1.97354,0 3.53161,0.55398 1.55806,0.55397 2.63139,1.52343 1.07333,0.96947 1.62731,2.31979 0.55398,1.31569 0.55398,2.87375 0,1.52344 -0.51936,2.80452 -0.48473,1.24645 -1.38494,2.3544 -0.86559,1.10796 -2.07742,2.14666 -1.1772,1.03871 -2.52752,2.07742 l -4.60494,3.56623 h 11.63353 z" />
      <path
         id="path3888"
         style="font-style:normal;font-variant:normal;font-weight:bold;font-stretch:normal;font-size:34.6236px;font-family:'IBM Plex Mono';-inkscape-font-specification:'IBM Plex Mono Bold';text-align:start;text-anchor:start;fill:#a9d8b8;fill-opacity:1;stroke-width:0.264582"
         d="m 461.78394,425.56982 8.30966,-19.94319 h -7.82493 v 4.3972 h -4.3972 v -8.62128 h 17.38105 v 4.50107 l -7.99805,19.6662 z" />
      <path
         id="path3890"
         style="font-style:normal;font-variant:normal;font-weight:bold;font-stretch:normal;font-size:34.6236px;font-family:'IBM Plex Mono';-inkscape-font-specification:'IBM Plex Mono Bold';text-align:start;text-anchor:start;fill:#a9d8b8;fill-opacity:1;stroke-width:0.264582"
         d="m 487.39188,425.98531 q -2.18129,0 -3.91247,-0.65785 -1.69656,-0.69247 -2.87376,-1.93892 -1.1772,-1.28108 -1.80043,-3.04688 -0.62322,-1.7658 -0.62322,-3.94709 0,-2.52752 0.79634,-4.77806 0.79634,-2.28515 2.04279,-4.18945 1.28108,-1.93892 2.83914,-3.46236 1.59269,-1.52344 3.15075,-2.56215 h 7.16708 q -2.25053,1.55806 -4.05096,3.01225 -1.7658,1.41957 -3.11612,2.87376 -1.3157,1.41957 -2.18129,2.94301 -0.83097,1.52344 -1.21183,3.28924 l 0.31162,0.10387 q 0.31161,-0.69247 0.76172,-1.35032 0.4501,-0.65785 1.10795,-1.14258 0.65785,-0.51935 1.52344,-0.83096 0.90021,-0.31162 2.07742,-0.31162 1.52343,0 2.83913,0.55398 1.3157,0.51936 2.25053,1.52344 0.96947,0.96946 1.52344,2.35441 0.55398,1.38494 0.55398,3.11612 0,1.83505 -0.65785,3.39311 -0.65785,1.55806 -1.86967,2.70064 -1.1772,1.10796 -2.87376,1.73118 -1.69656,0.62323 -3.77397,0.62323 z m -0.0346,-4.05096 q 1.86968,0 2.83914,-0.96946 0.96946,-1.00409 0.96946,-2.80452 v -0.48473 q 0,-1.80042 -1.00409,-2.73526 -0.96946,-0.96946 -2.80451,-0.96946 -1.7658,0 -2.76988,0.96946 -1.00409,0.93484 -1.00409,2.73526 v 0.48473 q 0,1.80043 0.93484,2.80452 0.96946,0.96946 2.83913,0.96946 z" />
      <path
         id="path3892"
         style="font-style:normal;font-variant:normal;font-weight:bold;font-stretch:normal;font-size:34.6236px;font-family:'IBM Plex Mono';-inkscape-font-specification:'IBM Plex Mono Bold';text-align:start;text-anchor:start;fill:#a9d8b8;fill-opacity:1;stroke-width:0.264582"
         d="m 508.01402,425.98531 q -2.18129,0 -3.87785,-0.51936 -1.69655,-0.55397 -2.87375,-1.48881 -1.17721,-0.93484 -1.80043,-2.21591 -0.5886,-1.3157 -0.5886,-2.83914 0,-2.3544 1.35032,-3.77397 1.35032,-1.45419 3.46236,-2.04279 v -0.27699 q -1.80043,-0.65785 -2.94301,-2.00817 -1.14258,-1.35032 -1.14258,-3.46236 0,-1.38494 0.55398,-2.56215 0.55398,-1.1772 1.62731,-2.00816 1.07333,-0.86559 2.63139,-1.3157 1.55807,-0.48473 3.60086,-0.48473 2.00817,0 3.56623,0.48473 1.59268,0.45011 2.66602,1.3157 1.07333,0.83096 1.62731,2.00816 0.55397,1.17721 0.55397,2.56215 0,2.11204 -1.14258,3.46236 -1.14257,1.35032 -2.943,2.00817 v 0.27699 q 2.11204,0.5886 3.46236,2.04279 1.35032,1.41957 1.35032,3.77397 0,1.52344 -0.62323,2.83914 -0.5886,1.28107 -1.7658,2.21591 -1.1772,0.93484 -2.87376,1.48881 -1.69656,0.51936 -3.87784,0.51936 z m 0,-3.98172 q 1.80043,0 2.73526,-0.83096 0.96946,-0.83097 0.96946,-2.25054 v -0.69247 q 0,-1.45419 -0.93483,-2.25053 -0.93484,-0.83097 -2.76989,-0.83097 -1.83505,0 -2.76989,0.83097 -0.93484,0.79634 -0.93484,2.25053 v 0.69247 q 0,1.41957 0.93484,2.25054 0.96946,0.83096 2.76989,0.83096 z m 0,-10.66407 q 1.73118,0 2.63139,-0.79634 0.90022,-0.79634 0.90022,-2.14666 v -0.51936 q 0,-1.35032 -0.93484,-2.11203 -0.90022,-0.79635 -2.59677,-0.79635 -1.69656,0 -2.6314,0.79635 -0.90021,0.76171 -0.90021,2.11203 v 0.51936 q 0,1.35032 0.90021,2.14666 0.90022,0.79634 2.6314,0.79634 z" />
    </g>
    <path
       id="path1171"
       d="M -9.4529021,414.64116 H 29.622358"
       style="font-variation-settings:normal;vector-effect:none;fill:none;fill-opacity:1;stroke:#ffffff;stroke-width:8;stroke-linecap:butt;stroke-linejoin:miter;stroke-miterlimit:4;stroke-dasharray:none;stroke-dashoffset:0;stroke-opacity:1;marker-end:url(#marker1175);stop-color:#000000" />
    <path
       style="font-variation-settings:normal;vector-effect:none;fill:none;fill-opacity:1;stroke:#ffffff;stroke-width:8;stroke-linecap:butt;stroke-linejoin:miter;stroke-miterlimit:4;stroke-dasharray:none;stroke-dashoffset:0;stroke-opacity:1;marker-end:url(#marker1923);stop-color:#000000"
       d="M 336.82804,414.64116 H 375.9033"
       id="path1919" />
    <g
       style="font-style:normal;font-variant:normal;font-weight:bold;font-stretch:normal;font-size:34.6236px;line-height:1;font-family:'IBM Plex Mono';-inkscape-font-specification:'IBM Plex Mono Bold';text-align:start;letter-spacing:0px;word-spacing:0px;writing-mode:lr-tb;text-anchor:start;fill:#a9d8b8;fill-opacity:1;stroke-width:0.264582"
       id="text2103"
       aria-label="-32512">
      <path
         id="path3895"
         style="font-style:normal;font-variant:normal;font-weight:bold;font-stretch:normal;font-size:34.6236px;font-family:'IBM Plex Mono';-inkscape-font-specification:'IBM Plex Mono Bold';text-align:start;text-anchor:start;fill:#a9d8b8;fill-opacity:1;stroke-width:0.264582"
         d="m 590.40205,417.4679 v -4.91655 h 11.07955 v 4.91655 z" />
      <path
         id="path3897"
         style="font-style:normal;font-variant:normal;font-weight:bold;font-stretch:normal;font-size:34.6236px;font-family:'IBM Plex Mono';-inkscape-font-specification:'IBM Plex Mono Bold';text-align:start;text-anchor:start;fill:#a9d8b8;fill-opacity:1;stroke-width:0.264582"
         d="m 615.76763,410.95867 q 2.00817,0 2.90838,-0.76172 0.93484,-0.76172 0.93484,-1.86968 v -0.24236 q 0,-1.3157 -0.90022,-2.07742 -0.86559,-0.79634 -2.4929,-0.79634 -1.48881,0 -2.80451,0.76172 -1.28107,0.72709 -2.18128,2.11204 l -3.28925,-3.04688 q 0.69248,-0.90021 1.52344,-1.62731 0.83097,-0.76172 1.83505,-1.28107 1.00409,-0.55398 2.25054,-0.83097 1.28107,-0.31161 2.87376,-0.31161 1.97354,0 3.56623,0.45011 1.59268,0.4501 2.70064,1.31569 1.14258,0.83097 1.7658,2.00817 0.62323,1.1772 0.62323,2.63139 0,1.14258 -0.38086,2.07742 -0.38086,0.93484 -1.03871,1.62731 -0.62323,0.69247 -1.48882,1.14258 -0.83096,0.41548 -1.80042,0.5886 v 0.20774 q 2.21591,0.38086 3.6701,1.86968 1.48881,1.45419 1.48881,3.94709 0,1.62731 -0.69247,2.943 -0.65785,1.3157 -1.9043,2.25054 -1.21182,0.93483 -2.97763,1.45419 -1.73118,0.48473 -3.87784,0.48473 -1.83505,0 -3.25462,-0.38086 -1.38494,-0.38086 -2.45827,-1.00409 -1.07334,-0.65784 -1.86968,-1.48881 -0.76172,-0.86559 -1.35032,-1.7658 l 3.84322,-2.97763 q 0.79634,1.48881 1.97355,2.45827 1.21182,0.93484 3.21999,0.93484 1.86967,0 2.87376,-0.86559 1.00408,-0.86559 1.00408,-2.38903 v -0.24237 q 0,-1.48881 -1.14258,-2.21591 -1.14257,-0.76171 -3.18537,-0.76171 h -2.25053 v -4.32795 z" />
      <path
         id="path3899"
         style="font-style:normal;font-variant:normal;font-weight:bold;font-stretch:normal;font-size:34.6236px;font-family:'IBM Plex Mono';-inkscape-font-specification:'IBM Plex Mono Bold';text-align:start;text-anchor:start;fill:#a9d8b8;fill-opacity:1;stroke-width:0.264582"
         d="m 646.29212,425.56982 h -17.38105 v -4.74343 l 7.61719,-6.33612 q 1.97355,-1.69655 2.83914,-2.943 0.86559,-1.24645 0.86559,-2.6314 v -0.34623 q 0,-1.52344 -0.90022,-2.28516 -0.90021,-0.79634 -2.42365,-0.79634 -1.73118,0 -2.66602,1.00408 -0.93483,1.00409 -1.31569,2.38903 l -4.53569,-1.73118 q 0.41548,-1.24645 1.14257,-2.35441 0.7271,-1.14257 1.83506,-1.97354 1.14257,-0.83097 2.63139,-1.3157 1.48881,-0.51935 3.42774,-0.51935 1.97354,0 3.5316,0.55398 1.55806,0.55397 2.6314,1.52343 1.07333,0.96947 1.62731,2.31979 0.55397,1.31569 0.55397,2.87375 0,1.52344 -0.51935,2.80452 -0.48473,1.24645 -1.38494,2.3544 -0.86559,1.10796 -2.07742,2.14666 -1.1772,1.03871 -2.52752,2.07742 l -4.60494,3.56623 h 11.63353 z" />
      <path
         id="path3901"
         style="font-style:normal;font-variant:normal;font-weight:bold;font-stretch:normal;font-size:34.6236px;font-family:'IBM Plex Mono';-inkscape-font-specification:'IBM Plex Mono Bold';text-align:start;text-anchor:start;fill:#a9d8b8;fill-opacity:1;stroke-width:0.264582"
         d="m 666.01404,405.93824 h -11.18342 l -0.55398,7.65182 h 0.31162 q 0.38086,-0.83097 0.86559,-1.52344 0.48473,-0.7271 1.14258,-1.21183 0.65784,-0.51935 1.52343,-0.79634 0.86559,-0.27699 1.97355,-0.27699 1.48881,0 2.80451,0.51936 1.35032,0.51935 2.35441,1.52344 1.0387,0.96946 1.6273,2.42365 0.58861,1.41956 0.58861,3.21999 0,1.83505 -0.62323,3.39311 -0.62322,1.55807 -1.83505,2.70065 -1.1772,1.14257 -2.94301,1.80042 -1.7658,0.62323 -4.01633,0.62323 -1.76581,0 -3.15075,-0.38086 -1.38494,-0.38086 -2.45828,-1.00409 -1.0387,-0.65784 -1.83505,-1.48881 -0.76172,-0.86559 -1.31569,-1.7658 l 3.77397,-2.97763 q 0.41548,0.69247 0.86559,1.31569 0.48473,0.62323 1.07333,1.10796 0.62322,0.4501 1.35032,0.72709 0.76172,0.24237 1.73118,0.24237 1.93892,0 2.90838,-1.03871 1.00409,-1.07333 1.00409,-2.83913 v -0.27699 q 0,-1.69656 -1.00409,-2.66602 -1.00408,-0.96946 -2.76989,-0.96946 -1.45419,0 -2.42365,0.5886 -0.93483,0.55398 -1.41956,1.10795 l -4.25871,-0.5886 0.90022,-13.67632 h 14.99201 z" />
      <path
         id="path3903"
         style="font-style:normal;font-variant:normal;font-weight:bold;font-stretch:normal;font-size:34.6236px;font-family:'IBM Plex Mono';-inkscape-font-specification:'IBM Plex Mono Bold';text-align:start;text-anchor:start;fill:#a9d8b8;fill-opacity:1;stroke-width:0.264582"
         d="m 671.85191,425.56982 v -4.18945 h 6.50924 v -16.20385 h -0.31162 l -4.91655,6.43999 -3.32386,-2.59677 5.78214,-7.61719 h 7.96343 v 19.97782 h 5.12429 v 4.18945 z" />
      <path
         id="path3905"
         style="font-style:normal;font-variant:normal;font-weight:bold;font-stretch:normal;font-size:34.6236px;font-family:'IBM Plex Mono';-inkscape-font-specification:'IBM Plex Mono Bold';text-align:start;text-anchor:start;fill:#a9d8b8;fill-opacity:1;stroke-width:0.264582"
         d="m 708.57402,425.56982 h -17.38104 v -4.74343 l 7.61719,-6.33612 q 1.97354,-1.69655 2.83913,-2.943 0.86559,-1.24645 0.86559,-2.6314 v -0.34623 q 0,-1.52344 -0.90021,-2.28516 -0.90021,-0.79634 -2.42365,-0.79634 -1.73118,0 -2.66602,1.00408 -0.93484,1.00409 -1.3157,2.38903 l -4.53569,-1.73118 q 0.41549,-1.24645 1.14258,-2.35441 0.7271,-1.14257 1.83505,-1.97354 1.14258,-0.83097 2.6314,-1.3157 1.48881,-0.51935 3.42773,-0.51935 1.97355,0 3.53161,0.55398 1.55806,0.55397 2.63139,1.52343 1.07333,0.96947 1.62731,2.31979 0.55398,1.31569 0.55398,2.87375 0,1.52344 -0.51935,2.80452 -0.48473,1.24645 -1.38495,2.3544 -0.86559,1.10796 -2.07741,2.14666 -1.17721,1.03871 -2.52753,2.07742 l -4.60494,3.56623 h 11.63353 z" />
    </g>
    <path
       id="path2111"
       d="m 528.559,414.64116 h 39.07526"
       style="font-variation-settings:normal;vector-effect:none;fill:none;fill-opacity:1;stroke:#ffffff;stroke-width:8;stroke-linecap:butt;stroke-linejoin:miter;stroke-miterlimit:4;stroke-dasharray:none;stroke-dashoffset:0;stroke-opacity:1;marker-end:url(#marker2115);stop-color:#000000" />
    <g
       style="font-style:normal;font-variant:normal;font-weight:bold;font-stretch:normal;font-size:34.6236px;line-height:1;font-family:'IBM Plex Mono';-inkscape-font-specification:'IBM Plex Mono Bold';text-align:start;letter-spacing:0px;word-spacing:0px;writing-mode:lr-tb;text-anchor:start;fill:#a9d8b8;fill-opacity:1;stroke-width:0.264582"
       id="text2463"
       aria-label="-256">
      <path
         id="path3908"
         style="font-style:normal;font-variant:normal;font-weight:bold;font-stretch:normal;font-size:34.6236px;font-family:'IBM Plex Mono';-inkscape-font-specification:'IBM Plex Mono Bold';text-align:start;text-anchor:start;fill:#a9d8b8;fill-opacity:1;stroke-width:0.264582"
         d="m 820.89668,417.4679 v -4.91655 h 11.07955 v 4.91655 z" />
      <path
         id="path3910"
         style="font-style:normal;font-variant:normal;font-weight:bold;font-stretch:normal;font-size:34.6236px;font-family:'IBM Plex Mono';-inkscape-font-specification:'IBM Plex Mono Bold';text-align:start;text-anchor:start;fill:#a9d8b8;fill-opacity:1;stroke-width:0.264582"
         d="m 856.02611,425.56982 h -17.38105 v -4.74343 l 7.6172,-6.33612 q 1.97354,-1.69655 2.83913,-2.943 0.86559,-1.24645 0.86559,-2.6314 v -0.34623 q 0,-1.52344 -0.90021,-2.28516 -0.90022,-0.79634 -2.42365,-0.79634 -1.73118,0 -2.66602,1.00408 -0.93484,1.00409 -1.3157,2.38903 l -4.53569,-1.73118 q 0.41548,-1.24645 1.14258,-2.35441 0.72709,-1.14257 1.83505,-1.97354 1.14258,-0.83097 2.63139,-1.3157 1.48882,-0.51935 3.42774,-0.51935 1.97354,0 3.53161,0.55398 1.55806,0.55397 2.63139,1.52343 1.07333,0.96947 1.62731,2.31979 0.55398,1.31569 0.55398,2.87375 0,1.52344 -0.51936,2.80452 -0.48473,1.24645 -1.38494,2.3544 -0.86559,1.10796 -2.07742,2.14666 -1.1772,1.03871 -2.52752,2.07742 l -4.60494,3.56623 h 11.63353 z" />
      <path
         id="path3912"
         style="font-style:normal;font-variant:normal;font-weight:bold;font-stretch:normal;font-size:34.6236px;font-family:'IBM Plex Mono';-inkscape-font-specification:'IBM Plex Mono Bold';text-align:start;text-anchor:start;fill:#a9d8b8;fill-opacity:1;stroke-width:0.264582"
         d="m 875.74804,405.93824 h -11.18342 l -0.55398,7.65182 h 0.31161 q 0.38086,-0.83097 0.86559,-1.52344 0.48473,-0.7271 1.14258,-1.21183 0.65785,-0.51935 1.52344,-0.79634 0.86559,-0.27699 1.97354,-0.27699 1.48882,0 2.80451,0.51936 1.35032,0.51935 2.35441,1.52344 1.03871,0.96946 1.62731,2.42365 0.5886,1.41956 0.5886,3.21999 0,1.83505 -0.62323,3.39311 -0.62322,1.55807 -1.83505,2.70065 -1.1772,1.14257 -2.943,1.80042 -1.76581,0.62323 -4.01634,0.62323 -1.7658,0 -3.15075,-0.38086 -1.38494,-0.38086 -2.45827,-1.00409 -1.03871,-0.65784 -1.83505,-1.48881 -0.76172,-0.86559 -1.3157,-1.7658 l 3.77397,-2.97763 q 0.41548,0.69247 0.86559,1.31569 0.48473,0.62323 1.07333,1.10796 0.62323,0.4501 1.35032,0.72709 0.76172,0.24237 1.73118,0.24237 1.93893,0 2.90839,-1.03871 1.00408,-1.07333 1.00408,-2.83913 v -0.27699 q 0,-1.69656 -1.00408,-2.66602 -1.00409,-0.96946 -2.76989,-0.96946 -1.45419,0 -2.42365,0.5886 -0.93484,0.55398 -1.41957,1.10795 l -4.2587,-0.5886 0.90021,-13.67632 h 14.99202 z" />
      <path
         id="path3914"
         style="font-style:normal;font-variant:normal;font-weight:bold;font-stretch:normal;font-size:34.6236px;font-family:'IBM Plex Mono';-inkscape-font-specification:'IBM Plex Mono Bold';text-align:start;text-anchor:start;fill:#a9d8b8;fill-opacity:1;stroke-width:0.264582"
         d="m 888.85686,425.98531 q -2.18129,0 -3.91247,-0.65785 -1.69656,-0.69247 -2.87376,-1.93892 -1.1772,-1.28108 -1.80042,-3.04688 -0.62323,-1.7658 -0.62323,-3.94709 0,-2.52752 0.79634,-4.77806 0.79635,-2.28515 2.0428,-4.18945 1.28107,-1.93892 2.83913,-3.46236 1.59269,-1.52344 3.15075,-2.56215 h 7.16708 q -2.25053,1.55806 -4.05096,3.01225 -1.7658,1.41957 -3.11612,2.87376 -1.3157,1.41957 -2.18129,2.94301 -0.83096,1.52344 -1.21182,3.28924 l 0.31161,0.10387 q 0.31161,-0.69247 0.76172,-1.35032 0.4501,-0.65785 1.10795,-1.14258 0.65785,-0.51935 1.52344,-0.83096 0.90021,-0.31162 2.07742,-0.31162 1.52344,0 2.83913,0.55398 1.3157,0.51936 2.25054,1.52344 0.96946,0.96946 1.52343,2.35441 0.55398,1.38494 0.55398,3.11612 0,1.83505 -0.65785,3.39311 -0.65784,1.55806 -1.86967,2.70064 -1.1772,1.10796 -2.87376,1.73118 -1.69656,0.62323 -3.77397,0.62323 z m -0.0346,-4.05096 q 1.86968,0 2.83914,-0.96946 0.96946,-1.00409 0.96946,-2.80452 v -0.48473 q 0,-1.80042 -1.00408,-2.73526 -0.96946,-0.96946 -2.80452,-0.96946 -1.7658,0 -2.76988,0.96946 -1.00409,0.93484 -1.00409,2.73526 v 0.48473 q 0,1.80043 0.93484,2.80452 0.96946,0.96946 2.83913,0.96946 z" />
    </g>
    <path
       d="m 909.65653,414.64116 h 39.07526 v 65.38435 H -234.82439 v -65.38435 h 39.07526"
       style="font-variation-settings:normal;vector-effect:none;fill:none;fill-opacity:1;stroke:#ffffff;stroke-width:8;stroke-linecap:butt;stroke-linejoin:miter;stroke-miterlimit:4;stroke-dasharray:none;stroke-dashoffset:0;stroke-opacity:1;marker-end:url(#marker2665);stop-color:#000000"
       id="path2661" />
    <g
       transform="translate(0,489.47867)"
       id="g3452">
      <path
         id="path3420"
         style="color:#000000;font-style:normal;font-variant:normal;font-weight:normal;font-stretch:normal;font-size:medium;line-height:normal;font-family:sans-serif;font-variant-ligatures:normal;font-variant-position:normal;font-variant-caps:normal;font-variant-numeric:normal;font-variant-alternates:normal;font-variant-east-asian:normal;font-feature-settings:normal;font-variation-settings:normal;text-indent:0;text-align:start;text-decoration:none;text-decoration-line:none;text-decoration-style:solid;text-decoration-color:#000000;letter-spacing:normal;word-spacing:normal;text-transform:none;writing-mode:lr-tb;direction:ltr;text-orientation:mixed;dominant-baseline:auto;baseline-shift:baseline;text-anchor:start;white-space:normal;shape-padding:0;shape-margin:0;inline-size:0;clip-rule:nonzero;display:inline;overflow:visible;visibility:visible;isolation:auto;mix-blend-mode:normal;color-interpolation:sRGB;color-interpolation-filters:linearRGB;solid-color:#000000;solid-opacity:1;vector-effect:none;fill:#ffffff;fill-opacity:1;fill-rule:nonzero;stroke:none;stroke-width:30.2362;stroke-linecap:butt;stroke-linejoin:miter;stroke-miterlimit:4;stroke-dasharray:none;stroke-dashoffset:0;stroke-opacity:1;color-rendering:auto;image-rendering:auto;shape-rendering:auto;text-rendering:auto;enable-background:accumulate;stop-color:#000000"
         d="m 193.48242,-335.41211 v 30.23438 h 32.88281 v -30.23438 z m 56.30274,0 v 30.23438 h 24.43554 v -30.23438 z m 47.85742,0 v 30.23438 h 24.43554 v -30.23438 z m 47.85547,0 v 30.23438 h 24.43554 v -30.23438 z m 47.85547,0 v 30.23438 h 24.43554 v -30.23438 z m 47.85546,0 v 30.23438 h 47.64454 v -30.23438 z"
         transform="matrix(0.26458333,0,0,0.26458333,71.885875,9.9068093)" />
      <g
         id="g3410">
        <g
           style="opacity:1"
           id="g3414">
          <path
             id="path3416"
             d="m 210.4602,-74.837593 -13.84,8 v -16 z"
             style="color:#000000;font-style:normal;font-variant:normal;font-weight:normal;font-stretch:normal;font-size:medium;line-height:normal;font-family:sans-serif;font-variant-ligatures:normal;font-variant-position:normal;font-variant-caps:normal;font-variant-numeric:normal;font-variant-alternates:normal;font-variant-east-asian:normal;font-feature-settings:normal;font-variation-settings:normal;text-indent:0;text-align:start;text-decoration:none;text-decoration-line:none;text-decoration-style:solid;text-decoration-color:#000000;letter-spacing:normal;word-spacing:normal;text-transform:none;writing-mode:lr-tb;direction:ltr;text-orientation:mixed;dominant-baseline:auto;baseline-shift:baseline;text-anchor:start;white-space:normal;shape-padding:0;shape-margin:0;inline-size:0;clip-rule:nonzero;display:inline;overflow:visible;visibility:visible;isolation:auto;mix-blend-mode:normal;color-interpolation:sRGB;color-interpolation-filters:linearRGB;solid-color:#000000;solid-opacity:1;vector-effect:none;fill:#ffffff;fill-opacity:1;fill-rule:evenodd;stroke:none;stroke-width:1.6pt;stroke-linecap:butt;stroke-linejoin:miter;stroke-miterlimit:4;stroke-dasharray:none;stroke-dashoffset:0;stroke-opacity:1;color-rendering:auto;image-rendering:auto;shape-rendering:auto;text-rendering:auto;enable-background:accumulate;stop-color:#000000;stop-opacity:1" />
          <path
             id="path3418"
             d="m 195.55273,-84.685547 v 19.697266 l 17.03907,-9.84961 -1.59766,-0.923828 z m 2.13477,3.697266 10.64062,6.15039 -10.64062,6.150391 z"
             style="color:#000000;font-style:normal;font-variant:normal;font-weight:normal;font-stretch:normal;font-size:medium;line-height:normal;font-family:sans-serif;font-variant-ligatures:normal;font-variant-position:normal;font-variant-caps:normal;font-variant-numeric:normal;font-variant-alternates:normal;font-variant-east-asian:normal;font-feature-settings:normal;font-variation-settings:normal;text-indent:0;text-align:start;text-decoration:none;text-decoration-line:none;text-decoration-style:solid;text-decoration-color:#000000;letter-spacing:normal;word-spacing:normal;text-transform:none;writing-mode:lr-tb;direction:ltr;text-orientation:mixed;dominant-baseline:auto;baseline-shift:baseline;text-anchor:start;white-space:normal;shape-padding:0;shape-margin:0;inline-size:0;clip-rule:nonzero;display:inline;overflow:visible;visibility:visible;isolation:auto;mix-blend-mode:normal;color-interpolation:sRGB;color-interpolation-filters:linearRGB;solid-color:#000000;solid-opacity:1;vector-effect:none;fill:#ffffff;fill-opacity:1;fill-rule:evenodd;stroke:none;stroke-width:1.6pt;stroke-linecap:butt;stroke-linejoin:miter;stroke-miterlimit:4;stroke-dasharray:none;stroke-dashoffset:0;stroke-opacity:1;color-rendering:auto;image-rendering:auto;shape-rendering:auto;text-rendering:auto;enable-background:accumulate;stop-color:#000000;stop-opacity:1" />
        </g>
      </g>
    </g>
    <g
       id="g3630"
       transform="translate(596.90052,489.47867)">
      <path
         transform="matrix(0.26458333,0,0,0.26458333,71.885875,9.9068093)"
         d="m 193.48242,-335.41211 v 30.23438 h 32.88281 v -30.23438 z m 56.30274,0 v 30.23438 h 24.43554 v -30.23438 z m 47.85742,0 v 30.23438 h 24.43554 v -30.23438 z m 47.85547,0 v 30.23438 h 24.43554 v -30.23438 z m 47.85547,0 v 30.23438 h 24.43554 v -30.23438 z m 47.85546,0 v 30.23438 h 47.64454 v -30.23438 z"
         style="color:#000000;font-style:normal;font-variant:normal;font-weight:normal;font-stretch:normal;font-size:medium;line-height:normal;font-family:sans-serif;font-variant-ligatures:normal;font-variant-position:normal;font-variant-caps:normal;font-variant-numeric:normal;font-variant-alternates:normal;font-variant-east-asian:normal;font-feature-settings:normal;font-variation-settings:normal;text-indent:0;text-align:start;text-decoration:none;text-decoration-line:none;text-decoration-style:solid;text-decoration-color:#000000;letter-spacing:normal;word-spacing:normal;text-transform:none;writing-mode:lr-tb;direction:ltr;text-orientation:mixed;dominant-baseline:auto;baseline-shift:baseline;text-anchor:start;white-space:normal;shape-padding:0;shape-margin:0;inline-size:0;clip-rule:nonzero;display:inline;overflow:visible;visibility:visible;isolation:auto;mix-blend-mode:normal;color-interpolation:sRGB;color-interpolation-filters:linearRGB;solid-color:#000000;solid-opacity:1;vector-effect:none;fill:#ffffff;fill-opacity:1;fill-rule:nonzero;stroke:none;stroke-width:30.2362;stroke-linecap:butt;stroke-linejoin:miter;stroke-miterlimit:4;stroke-dasharray:none;stroke-dashoffset:0;stroke-opacity:1;color-rendering:auto;image-rendering:auto;shape-rendering:auto;text-rendering:auto;enable-background:accumulate;stop-color:#000000"
         id="path3620" />
      <g
         id="g3628">
        <g
           id="g3626"
           style="opacity:1">
          <path
             style="color:#000000;font-style:normal;font-variant:normal;font-weight:normal;font-stretch:normal;font-size:medium;line-height:normal;font-family:sans-serif;font-variant-ligatures:normal;font-variant-position:normal;font-variant-caps:normal;font-variant-numeric:normal;font-variant-alternates:normal;font-variant-east-asian:normal;font-feature-settings:normal;font-variation-settings:normal;text-indent:0;text-align:start;text-decoration:none;text-decoration-line:none;text-decoration-style:solid;text-decoration-color:#000000;letter-spacing:normal;word-spacing:normal;text-transform:none;writing-mode:lr-tb;direction:ltr;text-orientation:mixed;dominant-baseline:auto;baseline-shift:baseline;text-anchor:start;white-space:normal;shape-padding:0;shape-margin:0;inline-size:0;clip-rule:nonzero;display:inline;overflow:visible;visibility:visible;isolation:auto;mix-blend-mode:normal;color-interpolation:sRGB;color-interpolation-filters:linearRGB;solid-color:#000000;solid-opacity:1;vector-effect:none;fill:#ffffff;fill-opacity:1;fill-rule:evenodd;stroke:none;stroke-width:1.6pt;stroke-linecap:butt;stroke-linejoin:miter;stroke-miterlimit:4;stroke-dasharray:none;stroke-dashoffset:0;stroke-opacity:1;color-rendering:auto;image-rendering:auto;shape-rendering:auto;text-rendering:auto;enable-background:accumulate;stop-color:#000000;stop-opacity:1"
             d="m 210.4602,-74.837593 -13.84,8 v -16 z"
             id="path3622" />
          <path
             style="color:#000000;font-style:normal;font-variant:normal;font-weight:normal;font-stretch:normal;font-size:medium;line-height:normal;font-family:sans-serif;font-variant-ligatures:normal;font-variant-position:normal;font-variant-caps:normal;font-variant-numeric:normal;font-variant-alternates:normal;font-variant-east-asian:normal;font-feature-settings:normal;font-variation-settings:normal;text-indent:0;text-align:start;text-decoration:none;text-decoration-line:none;text-decoration-style:solid;text-decoration-color:#000000;letter-spacing:normal;word-spacing:normal;text-transform:none;writing-mode:lr-tb;direction:ltr;text-orientation:mixed;dominant-baseline:auto;baseline-shift:baseline;text-anchor:start;white-space:normal;shape-padding:0;shape-margin:0;inline-size:0;clip-rule:nonzero;display:inline;overflow:visible;visibility:visible;isolation:auto;mix-blend-mode:normal;color-interpolation:sRGB;color-interpolation-filters:linearRGB;solid-color:#000000;solid-opacity:1;vector-effect:none;fill:#ffffff;fill-opacity:1;fill-rule:evenodd;stroke:none;stroke-width:1.6pt;stroke-linecap:butt;stroke-linejoin:miter;stroke-miterlimit:4;stroke-dasharray:none;stroke-dashoffset:0;stroke-opacity:1;color-rendering:auto;image-rendering:auto;shape-rendering:auto;text-rendering:auto;enable-background:accumulate;stop-color:#000000;stop-opacity:1"
             d="m 195.55273,-84.685547 v 19.697266 l 17.03907,-9.84961 -1.59766,-0.923828 z m 2.13477,3.697266 10.64062,6.15039 -10.64062,6.150391 z"
             id="path3624" />
        </g>
      </g>
    </g>
  </g>
</svg>
