<?xml version="1.0" encoding="UTF-8" standalone="no"?>
<svg
   xmlns:dc="http://purl.org/dc/elements/1.1/"
   xmlns:cc="http://creativecommons.org/ns#"
   xmlns:rdf="http://www.w3.org/1999/02/22-rdf-syntax-ns#"
   xmlns:svg="http://www.w3.org/2000/svg"
   xmlns="http://www.w3.org/2000/svg"
   xmlns:sodipodi="http://sodipodi.sourceforge.net/DTD/sodipodi-0.dtd"
   xmlns:inkscape="http://www.inkscape.org/namespaces/inkscape"
   inkscape:version="1.0 (4035a4f, 2020-05-01)"
   sodipodi:docname="poupees-russes-4070337.simple.svg"
   viewBox="0 0 3606.0901 1085.37"
   height="1085.37"
   width="3606.0901"
   xml:space="preserve"
   id="svg2"
   version="1.1"><metadata
     id="metadata8"><rdf:RDF><cc:Work
         rdf:about=""><dc:format>image/svg+xml</dc:format><dc:type
           rdf:resource="http://purl.org/dc/dcmitype/StillImage" /><dc:title></dc:title></cc:Work></rdf:RDF></metadata><defs
     id="defs6" /><sodipodi:namedview
     inkscape:current-layer="g10"
     inkscape:window-maximized="0"
     inkscape:window-y="27"
     inkscape:window-x="0"
     inkscape:cy="474.71531"
     inkscape:cx="1817.7247"
     inkscape:zoom="0.1160542"
     showgrid="false"
     id="namedview4"
     inkscape:window-height="480"
     inkscape:window-width="888"
     inkscape:pageshadow="2"
     inkscape:pageopacity="0"
     guidetolerance="10"
     gridtolerance="10"
     objecttolerance="10"
     borderopacity="1"
     bordercolor="#666666"
     pagecolor="#ffffff" /><g
     transform="matrix(1.3333333,0,0,1.3333333,0,-8.8657491e-6)"
     inkscape:label="poupees-russes-4070337"
     inkscape:groupmode="layer"
     id="g10"><g
       id="g12"><path
         id="path14"
         style="fill:#815e3a;fill-opacity:1;fill-rule:nonzero;stroke:none"
         d="m 1468.207,467.379 h -451.004 c -1.668,15.441 -2.519,30.965 -2.551,46.5 0,166.582 26.684,279.695 232.336,279.695 205.649,0 223.567,-113.113 223.567,-279.695 0,-15.078 -0.801,-30.633 -2.348,-46.5 z" /><path
         id="path16"
         style="fill:#815e3a;fill-opacity:1;fill-rule:nonzero;stroke:none"
         d="M 541.922,393.922 H 42.609 c -1.847,17.086 -2.789,34.258 -2.82,51.441 0,184.418 29.539,309.653 257.25,309.653 227.707,0 247.5,-125.25 247.5,-309.653 0,-16.691 -0.887,-33.914 -2.598,-51.441 z" /><g
         id="g18"><path
           id="path20"
           style="fill:#137ab5;fill-opacity:1;fill-rule:nonzero;stroke:#000000;stroke-width:5.085;stroke-linecap:square;stroke-linejoin:miter;stroke-miterlimit:4;stroke-dasharray:none;stroke-opacity:1"
           d="M 559.5,454.703 H 24.66 c 0,1.801 -0.039,3.598 -0.039,5.383 0,195.414 31.313,328.164 272.59,328.164 241.273,0 262.289,-132.75 262.289,-328.164 0,-1.785 0,-3.582 0,-5.383 z" /></g><g
         id="g22"><path
           id="path24"
           style="fill:#fef6d8;fill-opacity:1;fill-rule:nonzero;stroke:#000000;stroke-width:5.085;stroke-linecap:square;stroke-linejoin:miter;stroke-miterlimit:4;stroke-dasharray:none;stroke-opacity:1"
           d="m 296.684,762.156 c -136.5,0 -214.829,-53.34 -222.965,-132.148 V 490.086 h 443.25 V 630 c -0.031,76.828 -98.867,132.156 -220.285,132.156 z" /></g><g
         id="g26"><path
           id="path28"
           style="fill:#f10023;fill-opacity:1;fill-rule:nonzero;stroke:#000000;stroke-width:5.085;stroke-linecap:square;stroke-linejoin:miter;stroke-miterlimit:4;stroke-dasharray:none;stroke-opacity:1"
           d="m 296.684,772.816 c -137.211,0 -224.481,-53.738 -233.563,-141.75 L 63.059,630 V 479.438 H 527.594 V 630 c 0,82.852 -102.043,142.816 -230.91,142.816 z m 0,-21.308 C 415.328,751.5 506.25,698.062 506.25,630 V 490.086 l 10.656,10.66 H 73.656 l 10.66,-10.66 V 630 l -0.062,-1.094 c 7.816,75.133 84.91,122.594 212.43,122.594 z" /></g><g
         id="g30"><path
           id="path32"
           style="fill:#fef6d8;fill-opacity:1;fill-rule:nonzero;stroke:#000000;stroke-width:5.085;stroke-linecap:square;stroke-linejoin:miter;stroke-miterlimit:4;stroke-dasharray:none;stroke-opacity:1"
           d="M 510.824,454.441 H 78.391 c -1.762,11.875 -3.317,24.086 -4.672,36.637 h 443.25 c -1.313,-9.066 -3.285,-21.578 -6.145,-36.637 z" /></g><g
         id="g34"><path
           id="path36"
           style="fill:#f10023;fill-opacity:1;fill-rule:nonzero;stroke:#000000;stroke-width:5.085;stroke-linecap:square;stroke-linejoin:miter;stroke-miterlimit:4;stroke-dasharray:none;stroke-opacity:1"
           d="m 520.613,454.441 h -19.418 c 2.477,13.055 4.567,25.754 6.293,37.981 l 9.45,-10.883 H 73.688 l 9.488,10.559 c 1.375,-12.821 2.98,-25.371 4.82,-37.657 H 68.738 c -1.707,11.649 -3.207,23.524 -4.5,35.625 l -1.14,10.559 h 464.828 l -1.547,-10.875 c -1.609,-11.414 -3.531,-23.184 -5.766,-35.309 z" /></g><g
         id="g38"><path
           id="path40"
           style="fill:#f10023;fill-opacity:1;fill-rule:nonzero;stroke:#000000;stroke-width:5.085;stroke-linecap:square;stroke-linejoin:miter;stroke-miterlimit:4;stroke-dasharray:none;stroke-opacity:1"
           d="M 26.055,519.66 H 558.75 c 0.609,-16.5 0.863,-33.547 0.922,-51.137 H 24.816 c 0.09,17.59 0.457,34.653 1.239,51.137 z" /></g><g
         id="g42"><path
           id="path44"
           style="fill:none;stroke:#f10023;stroke-width:5.085;stroke-linecap:square;stroke-linejoin:miter;stroke-miterlimit:4;stroke-dasharray:none;stroke-opacity:1"
           d="m 292.066,674.055 48.352,-48.352 16.402,16.184 -16.402,15.976 16.191,-15.976 -16.191,-16.184 z m -32.168,-0.219 15.973,16.41 16.195,-16.191 -16.195,16.191 z m 64.543,0.219 -16.191,16.191 -66.164,-66.293 66.164,66.293 z m -82.355,-50.102 -14.566,-14.66 16.191,-15.75 -16.191,15.75 z m 49.98,-47.039 48.352,48.75 z m 48.352,48.75 16.402,-16.191 -15.976,-15.977 15.976,15.977 z m -15.977,-48.75 -16.191,-15.75 -16.184,15.75 16.184,-15.75 z m -32.375,0 -16.195,-15.973 z m 0,0 -64.546,64.762 16.23,16.187 -16.191,-16.187 z m -16.195,-15.973 -15.973,15.973 15.973,-15.973 16.195,15.973 z" /></g><g
         id="g46"><path
           id="path48"
           style="fill:#f10023;fill-opacity:1;fill-rule:nonzero;stroke:#f10023;stroke-width:5.085;stroke-linecap:square;stroke-linejoin:miter;stroke-miterlimit:4;stroke-dasharray:none;stroke-opacity:1"
           d="m 299.699,625.641 -7.664,-13.2 -7.613,13.2 7.613,13.105 z m 0,-77.797 -7.664,-13.207 -7.613,13.207 7.613,13.097 z m 0,156.668 -7.664,-13.207 -7.613,13.207 7.613,13.101 z" /></g><g
         id="g50"><path
           id="path52"
           style="fill:#f10023;fill-opacity:1;fill-rule:nonzero;stroke:#f10023;stroke-width:5.085;stroke-linecap:square;stroke-linejoin:miter;stroke-miterlimit:4;stroke-dasharray:none;stroke-opacity:1"
           d="m 365.453,633.234 13.207,-7.668 -13.207,-7.613 -13.101,7.613 z m -146.902,0 13.199,-7.668 -13.199,-7.613 -13.102,7.613 z" /></g><g
         id="g54"><path
           id="path56"
           style="fill:none;stroke:#f10023;stroke-width:5.085;stroke-linecap:square;stroke-linejoin:miter;stroke-miterlimit:4;stroke-dasharray:none;stroke-opacity:1"
           d="m 103.656,549.465 14.422,-14.317 15.617,14.317 16.168,-14.317 13.793,14.317 m -45.578,14.012 15.152,-14.012 13.305,14.012" /></g><g
         id="g58"><path
           id="path60"
           style="fill:none;stroke:#f10023;stroke-width:5.085;stroke-linecap:square;stroke-linejoin:miter;stroke-miterlimit:4;stroke-dasharray:none;stroke-opacity:1"
           d="m 167.512,670.117 -14.422,14.317 -15.613,-14.317 -16.165,14.317 -13.8,-14.317 m 45.578,-14.008 -15.149,14.008 -13.304,-14.008" /></g><g
         id="g62"><path
           id="path64"
           style="fill:none;stroke:#f10023;stroke-width:5.085;stroke-linecap:square;stroke-linejoin:miter;stroke-miterlimit:4;stroke-dasharray:none;stroke-opacity:1"
           d="m 420.863,545.723 14.43,-14.317 15.613,14.317 16.164,-14.317 13.801,14.317 m -45.578,14.011 15.148,-14.011 13.305,14.011" /></g><g
         id="g66"><path
           id="path68"
           style="fill:none;stroke:#f10023;stroke-width:5.085;stroke-linecap:square;stroke-linejoin:miter;stroke-miterlimit:4;stroke-dasharray:none;stroke-opacity:1"
           d="m 480.871,673.859 -14.43,14.317 -15.617,-14.317 -16.16,14.317 -13.801,-14.317 M 466.441,659.852 451.289,673.859 438,659.852" /></g><g
         id="g70"><path
           id="path72"
           style="fill:#137ab5;fill-opacity:1;fill-rule:nonzero;stroke:#000000;stroke-width:5.085;stroke-linecap:square;stroke-linejoin:miter;stroke-miterlimit:4;stroke-dasharray:none;stroke-opacity:1"
           d="M 559.32,449.055 C 554.07,255.219 441.422,2.852 297.211,2.852 153,2.852 30.547,255.219 24.832,449.055 Z" /></g><g
         id="g74"><path
           id="path76"
           style="fill:#fef6d8;fill-opacity:1;fill-rule:nonzero;stroke:#000000;stroke-width:5.085;stroke-linecap:square;stroke-linejoin:miter;stroke-miterlimit:4;stroke-dasharray:none;stroke-opacity:1"
           d="M 509.152,448.801 C 489.391,349.809 434.25,157.68 295.883,70.289 c 0,0 -169.403,83.438 -216.172,378.512 z" /></g><g
         id="g78"><path
           id="path80"
           style="fill:#f10023;fill-opacity:1;fill-rule:nonzero;stroke:#000000;stroke-width:5.085;stroke-linecap:square;stroke-linejoin:miter;stroke-miterlimit:4;stroke-dasharray:none;stroke-opacity:1"
           d="M 519,448.801 C 509.391,399.578 494.574,345.703 473.566,292.637 433.027,190.297 376.5,109.914 300.984,62.25 l -4.5,-2.852 -4.793,2.364 c -2.062,1.011 -5.687,3 -10.644,6.121 -9.297,5.859 -18.242,12.258 -26.797,19.156 -27.406,22.004 -54.75,50.75 -80.25,87 C 124.074,245.25 87.629,336.098 70.035,448.801 h 19.32 c 17.309,-108.457 52.454,-195.602 100.336,-263.778 24.403,-34.761 50.504,-62.203 76.543,-83.113 7.954,-6.449 16.27,-12.43 24.914,-17.91 2.582,-1.613 4.864,-2.953 6.805,-4.035 1.109,-0.613 1.836,-0.996 2.145,-1.149 l -9.309,-0.488 c 71.535,45.188 125.852,122.387 165,221.297 18.969,48.328 33.598,98.25 43.711,149.176 z" /></g><g
         id="g82"><path
           id="path84"
           style="fill:#f5c95e;fill-opacity:1;fill-rule:nonzero;stroke:#000000;stroke-width:5.085;stroke-linecap:square;stroke-linejoin:miter;stroke-miterlimit:4;stroke-dasharray:none;stroke-opacity:1"
           d="M 527.746,269.398 C 483.977,127.68 398.078,2.543 296.527,2.543 194.25,2.543 102.891,129.512 56.391,272.488 c 45.675,56.051 133.593,93.75 233.746,93.75 103.547,0 192,-39.605 237.609,-96.859 z" /></g><g
         id="g86"><path
           id="path88"
           style="fill:#4a3f1b;fill-opacity:1;fill-rule:nonzero;stroke:#000000;stroke-width:5.085;stroke-linecap:square;stroke-linejoin:miter;stroke-miterlimit:4;stroke-dasharray:none;stroke-opacity:1"
           d="m 430.086,182.535 c 0,-76.223 -61.789,-138 -138,-138 -76.207,0 -138,61.793 -138,138 0,76.207 61.793,138 138,138 76.219,0 138,-61.785 138,-138 z" /></g><g
         id="g90"><path
           id="path92"
           style="fill:#ffcfbf;fill-opacity:1;fill-rule:nonzero;stroke:#000000;stroke-width:5.085;stroke-linecap:square;stroke-linejoin:miter;stroke-miterlimit:4;stroke-dasharray:none;stroke-opacity:1"
           d="m 407.715,195.234 c 0,-70.367 -115.649,-121.367 -115.649,-121.367 0,0 -123.496,51 -123.496,121.367 0,70.364 53.129,127.414 123.496,127.414 70.364,0 115.649,-57.043 115.649,-127.414 z" /></g><path
         id="path94"
         style="fill:#000000;fill-opacity:1;fill-rule:nonzero;stroke:none"
         d="m 375.637,178.215 c -13.739,-13.617 -35.887,-13.617 -49.625,0 -7.02,6.93 -10.961,16.387 -10.946,26.25 v 3.324 c 0,3.082 5.395,2.84 5.793,-0.16 0.735,-4.848 3.176,-9.27 6.891,-12.473 4.082,9.121 13.16,14.969 23.152,14.918 9.989,-0.054 19.008,-5.996 22.996,-15.156 3.844,3.199 6.29,7.773 6.817,12.75 0.316,3.074 5.781,3.238 5.781,0.156 v -3.32 c 0.02,-9.859 -3.887,-19.32 -10.859,-26.289 z m 1.187,-11.797 c -5.808,-18.75 -43.996,-43.852 -58.945,0.57 18.594,-21.074 46.84,-12.554 58.945,-0.57 z" /><path
         id="path96"
         style="fill:#000000;fill-opacity:1;fill-rule:nonzero;stroke:none"
         d="m 253.824,178.215 c -13.742,-13.617 -35.89,-13.617 -49.629,0 -7.015,6.933 -10.957,16.387 -10.941,26.25 v 3.324 c 0,3.082 5.391,2.84 5.789,-0.16 0.734,-4.852 3.18,-9.281 6.898,-12.488 4.082,9.121 13.161,14.972 23.149,14.921 9.992,-0.054 19.008,-6 22.992,-15.16 3.848,3.2 6.293,7.774 6.816,12.75 0.317,3.075 5.793,3.239 5.793,0.157 v -3.321 c 0.016,-9.855 -3.898,-19.308 -10.867,-26.273 z M 199.5,166.418 c 5.805,-18.75 43.996,-43.852 58.941,0.57 -18.582,-21.074 -46.836,-12.554 -58.941,-0.57 z" /><g
         id="g98"><path
           id="path100"
           style="fill:none;stroke:#000000;stroke-width:3.75;stroke-linecap:butt;stroke-linejoin:miter;stroke-miterlimit:10;stroke-dasharray:none;stroke-opacity:1"
           d="m 323.707,272.574 c -22.238,12.938 -37.91,12.75 -63.277,0.262" /></g><path
         id="path102"
         style="fill:#db004c;fill-opacity:1;fill-rule:nonzero;stroke:none"
         d="m 301.199,269.949 c -4.199,-3.75 -7.828,1.926 -9.043,4.903 -1.238,-3 -3.054,-8.25 -8.25,-4.903 -4.5,3.11 5.039,12.899 5.039,12.899 0,0 -3.832,5.675 -3,9.922 2.129,9.246 10.5,9.246 12.426,0 0.902,-4.29 -3,-9.922 -3,-9.922 0,0 10.027,-9.149 5.828,-12.899 z m -9.043,14.938 c -0.172,-2.301 -1.238,-1.723 -3.211,-2.078 1.762,-0.321 3.059,-0.141 3.231,-2.481 0.168,2.301 1.215,2.121 3.195,2.481 -1.793,0.398 -3.043,-0.188 -3.215,2.078 z" /><path
         id="path104"
         style="fill:#000000;fill-opacity:1;fill-rule:nonzero;stroke:none"
         d="m 300.539,254.176 c 4.195,0 6.297,-5.074 3.332,-8.043 -2.969,-2.965 -8.043,-0.863 -8.043,3.332 0,2.601 2.11,4.711 4.711,4.711 z m -16.941,0 c 4.199,0.008 6.304,-5.067 3.34,-8.039 -2.965,-2.969 -8.043,-0.871 -8.043,3.328 0,2.597 2.105,4.707 4.703,4.711 z" /><g
         id="g106"><path
           id="path108"
           style="fill:#ffd163;fill-opacity:1;fill-rule:nonzero;stroke:#000000;stroke-width:5.085;stroke-linecap:round;stroke-linejoin:round;stroke-miterlimit:4;stroke-dasharray:none;stroke-opacity:1"
           d="m 346.5,353.699 c -15.504,-8.945 -25.254,-10.258 -35.723,-8.472 -2.129,0.359 -17.086,4.597 -19.328,5.171 -0.426,0.114 58.051,28.711 58.051,28.711 l -58.051,-28.711 43.981,44.852 c 0,0 -43.907,-44.859 -44.016,-44.828 -1.5,24 -1.336,47.551 21.785,60.902 28.465,16.43 51.817,15.93 81.848,9.18 -9.293,-28.793 -20.293,-50.469 -48.547,-66.805 z" /></g><g
         id="g110"><path
           id="path112"
           style="fill:#ffd163;fill-opacity:1;fill-rule:nonzero;stroke:#000000;stroke-width:5.085;stroke-linecap:round;stroke-linejoin:round;stroke-miterlimit:4;stroke-dasharray:none;stroke-opacity:1"
           d="m 248.012,370.266 c 11.726,-11.719 20.144,-15.231 29.929,-16.145 2.004,-0.187 16.395,0 18.547,0 0.414,0 -45.066,39.613 -45.066,39.613 l 45.066,-39.613 -28.648,50.676 c 0,0 28.539,-50.676 28.648,-50.676 7.082,21.117 12.602,42.238 -4.894,59.731 -21.535,21.531 -42.563,26.683 -71.055,27.847 1.414,-27.984 6.066,-50.027 27.473,-71.433 z" /></g><g
         id="g114"><path
           id="path116"
           style="fill:#ffd163;fill-opacity:1;fill-rule:nonzero;stroke:#000000;stroke-width:5.085;stroke-linecap:square;stroke-linejoin:miter;stroke-miterlimit:4;stroke-dasharray:none;stroke-opacity:1"
           d="m 321,343.746 c 0,-12.164 -7.328,-23.129 -18.566,-27.785 -11.239,-4.652 -24.172,-2.082 -32.774,6.519 -8.601,8.602 -11.176,21.54 -6.519,32.778 4.652,11.238 15.621,18.566 27.785,18.566 16.609,0 30.074,-13.465 30.074,-30.078 z" /></g><g
         id="g118"><path
           id="path120"
           style="fill:none;stroke:#f10023;stroke-width:5.085;stroke-linecap:square;stroke-linejoin:miter;stroke-miterlimit:4;stroke-dasharray:none;stroke-opacity:1"
           d="m 115.949,398.918 13.5,-13.387 14.551,13.387 15.141,-13.418 12.894,13.387 m -42.601,13.097 14.16,-13.097 12.406,13.125 m 256.426,-16.598 13.5,-13.387 14.586,13.387 15.113,-13.387 12.898,13.387 m -42.597,13.098 14.16,-13.098 12.434,13.098" /></g><g
         id="g122"><path
           id="path124"
           style="fill:none;stroke:#f10023;stroke-width:5.085;stroke-linecap:square;stroke-linejoin:miter;stroke-miterlimit:4;stroke-dasharray:none;stroke-opacity:1"
           d="m 181.672,322.043 -18.981,7.266 -8.492,-19.411 -20.578,6.602 -6.824,-18.676 m 47.344,5.602 -19.5,6.699 -6.5,-18.195" /></g><g
         id="g126"><path
           id="path128"
           style="fill:none;stroke:#f10023;stroke-width:5.085;stroke-linecap:square;stroke-linejoin:miter;stroke-miterlimit:4;stroke-dasharray:none;stroke-opacity:1"
           d="m 247.164,342.234 -17.402,10.5 -11.789,-17.605 -19.086,10.098 -10.028,-17.176 m 47.594,-2.844 -18,10.027 -9.617,-16.754" /></g><g
         id="g130"><path
           id="path132"
           style="fill:none;stroke:#f10023;stroke-width:5.085;stroke-linecap:square;stroke-linejoin:miter;stroke-miterlimit:4;stroke-dasharray:none;stroke-opacity:1"
           d="m 120.324,289.5 -20.191,2.379 -3.457,-20.902 -21.555,1.304 -2.027,-19.785 m 44.515,17.078 -20.566,1.688 -1.793,-19.223" /></g><g
         id="g134"><path
           id="path136"
           style="fill:none;stroke:#f10023;stroke-width:5.085;stroke-linecap:square;stroke-linejoin:miter;stroke-miterlimit:4;stroke-dasharray:none;stroke-opacity:1"
           d="m 405.398,322.043 18.981,7.266 8.492,-19.411 20.57,6.602 6.832,-18.676 m -47.347,5.602 19.5,6.699 6.504,-18.195" /></g><g
         id="g138"><path
           id="path140"
           style="fill:none;stroke:#f10023;stroke-width:5.085;stroke-linecap:square;stroke-linejoin:miter;stroke-miterlimit:4;stroke-dasharray:none;stroke-opacity:1"
           d="m 339.906,342.234 17.403,10.5 11.781,-17.605 19.094,10.098 10.019,-17.176 m -47.594,-2.844 18,10.027 9.61,-16.754" /></g><g
         id="g142"><path
           id="path144"
           style="fill:none;stroke:#f10023;stroke-width:5.085;stroke-linecap:square;stroke-linejoin:miter;stroke-miterlimit:4;stroke-dasharray:none;stroke-opacity:1"
           d="m 466.738,289.5 20.192,2.379 3.457,-20.902 21.562,1.304 2.028,-19.785 m -44.524,17.078 20.574,1.688 1.832,-19.239" /></g><g
         id="g146"><path
           id="path148"
           style="fill:#c2986d;fill-opacity:1;fill-rule:nonzero;stroke:#000000;stroke-width:5.505;stroke-linecap:square;stroke-linejoin:miter;stroke-miterlimit:4;stroke-dasharray:none;stroke-opacity:1"
           d="M 566.664,414.141 H 17.887 c -2.028,18.781 -3.063,37.652 -3.106,56.535 0,202.695 32.477,340.328 282.707,340.328 250.231,0 272.032,-137.633 272.032,-340.328 0,-18.344 -0.973,-37.274 -2.856,-56.535 z" /></g><g
         id="g150"><path
           id="path152"
           style="fill:#137ab5;fill-opacity:1;fill-rule:nonzero;stroke:#000000;stroke-width:5.505;stroke-linecap:square;stroke-linejoin:miter;stroke-miterlimit:4;stroke-dasharray:none;stroke-opacity:1"
           d="M 581.34,447.441 H 2.789 c 0,1.95 -0.012,3.895 -0.035,5.829 0,211.418 33.867,354.984 294.875,354.984 261.008,0 283.742,-143.566 283.742,-354.984 0,-1.934 0,-3.879 0,-5.829 z" /></g><g
         id="g154"><path
           id="path156"
           style="fill:#fef6d8;fill-opacity:1;fill-rule:nonzero;stroke:#000000;stroke-width:5.505;stroke-linecap:square;stroke-linejoin:miter;stroke-miterlimit:4;stroke-dasharray:none;stroke-opacity:1"
           d="m 297.059,780.039 c -147.704,0 -232.403,-57.707 -241.2,-142.961 V 485.723 h 479.453 v 151.355 c 0,83.102 -106.914,142.961 -238.253,142.961 z" /></g><g
         id="g158"><path
           id="path160"
           style="fill:#f10023;fill-opacity:1;fill-rule:nonzero;stroke:#000000;stroke-width:5.505;stroke-linecap:square;stroke-linejoin:miter;stroke-miterlimit:4;stroke-dasharray:none;stroke-opacity:1"
           d="m 297.059,791.566 c -148.43,0 -242.84,-58.132 -252.668,-153.3 l -0.059,-1.188 V 474.195 h 502.5 v 162.883 c 0.008,89.625 -110.379,154.488 -249.773,154.488 z m 0,-23.054 c 128.332,0 226.734,-57.813 226.734,-131.434 V 485.723 l 11.519,11.527 H 55.859 l 11.52,-11.52 v 151.348 l -0.059,-1.183 c 8.43,81.269 91.785,132.617 229.739,132.617 z" /></g><g
         id="g162"><path
           id="path164"
           style="fill:#fef6d8;fill-opacity:1;fill-rule:nonzero;stroke:#000000;stroke-width:5.505;stroke-linecap:square;stroke-linejoin:miter;stroke-miterlimit:4;stroke-dasharray:none;stroke-opacity:1"
           d="M 528.699,447.156 H 60.914 c -1.902,12.848 -3.59,26.059 -5.055,39.641 H 535.312 C 533.926,477 531.797,463.5 528.699,447.156 Z" /></g><g
         id="g166"><path
           id="path168"
           style="fill:#f10023;fill-opacity:1;fill-rule:nonzero;stroke:#000000;stroke-width:5.505;stroke-linecap:square;stroke-linejoin:miter;stroke-miterlimit:4;stroke-dasharray:none;stroke-opacity:1"
           d="m 539.289,447.156 h -21 c 2.668,14.125 4.934,27.856 6.809,41.086 l 10.214,-11.765 H 55.859 l 10.262,11.421 c 1.5,-13.875 3.25,-27.457 5.25,-40.742 H 50.469 c -1.84,12.602 -3.465,25.446 -4.875,38.535 l -1.223,11.422 h 502.828 l -1.664,-11.765 c -1.746,-12.336 -3.824,-25.094 -6.246,-38.192 z" /></g><g
         id="g170"><path
           id="path172"
           style="fill:#f10023;fill-opacity:1;fill-rule:nonzero;stroke:#000000;stroke-width:5.505;stroke-linecap:square;stroke-linejoin:miter;stroke-miterlimit:4;stroke-dasharray:none;stroke-opacity:1"
           d="m 4.305,517.711 h 576.234 c 0.652,-17.836 0.938,-36.293 1.004,-55.32 H 3 c 0.09,19.027 0.496,37.5 1.344,55.32 z" /></g><g
         id="g174"><path
           id="path176"
           style="fill:none;stroke:#f10023;stroke-width:5.505;stroke-linecap:square;stroke-linejoin:miter;stroke-miterlimit:4;stroke-dasharray:none;stroke-opacity:1"
           d="m 292.059,684.75 52.304,-52.305 17.746,17.512 -17.746,17.25 17.512,-17.25 -17.512,-17.512 z m -34.809,-0.254 17.25,17.742 17.559,-17.488 -17.512,17.512 z m 69.816,0.231 -17.511,17.511 -71.578,-71.707 71.578,71.707 z m -89.078,-54.196 -15.75,-15.855 17.516,-17.047 -17.516,17.047 z m 54.071,-50.886 52.304,52.777 z m 52.304,52.777 17.746,-17.512 -17.25,-17.25 17.25,17.25 z m -17.25,-52.777 -17.511,-17.047 -17.516,17.047 17.516,-17.047 z m -35.027,0 -17.512,-17.25 z m 0,0 -69.824,70.058 17.511,17.512 -17.511,-17.512 z m -17.512,-17.25 -17.25,17.25 17.25,-17.25 17.512,17.25 z" /></g><g
         id="g178"><path
           id="path180"
           style="fill:#f10023;fill-opacity:1;fill-rule:nonzero;stroke:#f10023;stroke-width:5.505;stroke-linecap:square;stroke-linejoin:miter;stroke-miterlimit:4;stroke-dasharray:none;stroke-opacity:1"
           d="m 300.316,632.363 -8.289,-14.25 -8.25,14.25 8.25,14.168 z m 0,-84.164 -8.289,-14.25 -8.25,14.25 8.25,14.164 z m 0,169.5 -8.289,-14.25 -8.25,14.25 8.25,14.172 z" /></g><g
         id="g182"><path
           id="path184"
           style="fill:#f10023;fill-opacity:1;fill-rule:nonzero;stroke:#f10023;stroke-width:5.505;stroke-linecap:square;stroke-linejoin:miter;stroke-miterlimit:4;stroke-dasharray:none;stroke-opacity:1"
           d="m 371.445,640.566 14.25,-8.285 -14.25,-8.25 -14.175,8.25 z m -158.918,0 14.289,-8.316 -14.289,-8.25 -14.168,8.25 z" /></g><g
         id="g186"><path
           id="path188"
           style="fill:none;stroke:#f10023;stroke-width:5.505;stroke-linecap:square;stroke-linejoin:miter;stroke-miterlimit:4;stroke-dasharray:none;stroke-opacity:1"
           d="m 88.246,549.953 15.606,-15.488 16.898,15.488 17.484,-15.488 14.922,15.488 m -49.297,15.156 16.387,-15.156 14.387,15.156" /></g><g
         id="g190"><path
           id="path192"
           style="fill:none;stroke:#f10023;stroke-width:5.505;stroke-linecap:square;stroke-linejoin:miter;stroke-miterlimit:4;stroke-dasharray:none;stroke-opacity:1"
           d="M 157.328,680.469 141.75,696 124.859,680.504 107.34,696 92.414,680.504 m 49.336,-15.195 -16.426,15.16 -14.383,-15.16" /></g><g
         id="g194"><path
           id="path196"
           style="fill:none;stroke:#f10023;stroke-width:5.505;stroke-linecap:square;stroke-linejoin:miter;stroke-miterlimit:4;stroke-dasharray:none;stroke-opacity:1"
           d="M 431.391,545.91 447,530.414 l 16.891,15.496 17.48,-15.496 14.926,15.496 M 447,561.066 463.387,545.91 477.75,561.066" /></g><g
         id="g198"><path
           id="path200"
           style="fill:none;stroke:#f10023;stroke-width:5.505;stroke-linecap:square;stroke-linejoin:miter;stroke-miterlimit:4;stroke-dasharray:none;stroke-opacity:1"
           d="m 496.297,684.516 -15.606,15.496 -16.89,-15.496 -17.492,15.496 -14.918,-15.496 m 49.3,-15.157 -16.39,15.157 -14.391,-15.157" /></g><g
         id="g202"><path
           id="path204"
           style="fill:#137ab5;fill-opacity:1;fill-rule:nonzero;stroke:#000000;stroke-width:5.505;stroke-linecap:square;stroke-linejoin:miter;stroke-miterlimit:4;stroke-dasharray:none;stroke-opacity:1"
           d="M 383.176,624.898 C 535.426,769.156 814.664,876.023 924.977,765.711 1035.285,655.402 935.91,368.691 792,216.059 Z" /></g><g
         id="g206"><path
           id="path208"
           style="fill:#fef6d8;fill-opacity:1;fill-rule:nonzero;stroke:#000000;stroke-width:5.505;stroke-linecap:square;stroke-linejoin:miter;stroke-miterlimit:4;stroke-dasharray:none;stroke-opacity:1"
           d="m 421.746,586.719 c 90.832,60.605 280,165.359 452.656,126.394 0,0 65.762,-193.402 -124.168,-454.879 z" /></g><g
         id="g210"><path
           id="path212"
           style="fill:#f10023;fill-opacity:1;fill-rule:nonzero;stroke:#000000;stroke-width:5.505;stroke-linecap:square;stroke-linejoin:miter;stroke-miterlimit:4;stroke-dasharray:none;stroke-opacity:1"
           d="m 414.227,594.238 c 45,30.301 97.543,60.168 154.214,84.692 109.266,47.297 214.012,65.519 308.25,44.25 l 5.637,-1.274 1.863,-5.476 c 0.801,-2.356 2.039,-6.668 3.457,-12.825 2.606,-11.589 4.54,-23.316 5.782,-35.128 4.132,-37.793 3.054,-80.696 -5.203,-127.922 -16.215,-92.7 -57.836,-190.067 -130.579,-289.731 l -14.773,14.774 c 69.75,96.203 109.5,189.75 125.016,278.519 7.914,45.254 8.941,86.25 5.019,122.117 -1.156,11.004 -2.953,21.938 -5.379,32.735 -0.75,3.219 -1.5,6 -2.121,8.297 -0.375,1.328 -0.644,2.168 -0.75,2.519 l 7.5,-6.75 c -89.25,20.145 -189.887,2.649 -295.5,-43.066 -54,-23.36 -104.25,-51.75 -147.531,-80.625 z" /></g><g
         id="g214"><path
           id="path216"
           style="fill:#f5c95e;fill-opacity:1;fill-rule:nonzero;stroke:#000000;stroke-width:5.505;stroke-linecap:square;stroke-linejoin:miter;stroke-miterlimit:4;stroke-dasharray:none;stroke-opacity:1"
           d="m 544.746,738.164 c 141.887,74.926 303.309,104.941 381,27.262 78.25,-78.238 51,-245.25 -22.805,-390.172 C 825.121,367.32 729,405.75 652.402,482.324 573.203,561.531 535.852,659.469 544.746,738.164 Z" /></g><g
         id="g218"><path
           id="path220"
           style="fill:#4a3f1b;fill-opacity:1;fill-rule:nonzero;stroke:#000000;stroke-width:5.505;stroke-linecap:square;stroke-linejoin:miter;stroke-miterlimit:4;stroke-dasharray:none;stroke-opacity:1"
           d="m 685.891,729.906 c 58.304,58.305 152.843,58.305 211.148,0 58.305,-58.304 58.305,-152.832 0,-211.14 -58.305,-58.305 -152.844,-58.305 -211.148,0 -58.305,58.308 -58.305,152.836 0,211.14 z" /></g><g
         id="g222"><path
           id="path224"
           style="fill:#ffcfbf;fill-opacity:1;fill-rule:nonzero;stroke:#000000;stroke-width:5.505;stroke-linecap:square;stroke-linejoin:miter;stroke-miterlimit:4;stroke-dasharray:none;stroke-opacity:1"
           d="m 693.285,703.086 c 53.828,53.828 181.305,4.375 181.305,4.375 0,0 55.449,-133.5 1.621,-187.297 -53.828,-53.801 -138.098,-56.828 -191.926,-3 -53.828,53.824 -44.828,132.098 9,185.922 z" /></g><path
         id="path226"
         style="fill:#000000;fill-opacity:1;fill-rule:nonzero;stroke:none"
         d="m 730.844,691.566 c 20.929,-0.097 37.867,-17.039 37.965,-37.964 0.066,-10.672 -4.161,-20.922 -11.723,-28.454 l -2.539,-2.543 c -2.363,-2.355 -6.293,1.95 -4.309,4.551 3.153,4.282 4.664,9.547 4.262,14.844 -10.098,-3.855 -21.516,-1.383 -29.117,6.297 -7.602,7.683 -9.953,19.129 -5.992,29.187 -5.379,0.496 -10.743,-1.117 -14.953,-4.5 -2.594,-2.117 -6.907,1.95 -4.551,4.305 l 2.539,2.539 c 7.539,7.531 17.765,11.754 28.418,11.738 z m 8.117,9.93 c 18.793,9.918 67.199,-0.105 44.652,-45.523 1.907,30.343 -26.226,45.433 -44.652,45.523 z" /><path
         id="path228"
         style="fill:#000000;fill-opacity:1;fill-rule:nonzero;stroke:none"
         d="m 824.016,598.387 c 20.929,-0.09 37.871,-17.032 37.968,-37.957 0.075,-10.688 -4.152,-20.957 -11.722,-28.5 l -2.543,-2.543 c -2.356,-2.356 -6.293,1.957 -4.305,4.554 3.152,4.27 4.668,9.528 4.274,14.821 -10.098,-3.86 -21.524,-1.387 -29.126,6.297 -7.601,7.687 -9.949,19.136 -5.984,29.191 -5.375,0.496 -10.734,-1.117 -14.945,-4.5 -2.602,-2.113 -6.906,1.941 -4.555,4.297 l 2.543,2.543 c 7.52,7.551 17.738,11.797 28.395,11.797 z m 50.589,-32.528 c 9.907,18.797 -0.113,67.2 -45.531,44.657 30.344,1.898 45.426,-26.227 45.531,-44.657 z" /><g
         id="g230"><path
           id="path232"
           style="fill:none;stroke:#000000;stroke-width:3.75;stroke-linecap:butt;stroke-linejoin:miter;stroke-miterlimit:10;stroke-dasharray:none;stroke-opacity:1"
           d="m 698.387,579.668 c 7.117,-26.91 19.258,-38.754 48.207,-48.602" /></g><path
         id="path234"
         style="fill:#db004c;fill-opacity:1;fill-rule:nonzero;stroke:none"
         d="m 717.613,564.457 c 6.086,-0.344 4.5,-7.5 3.168,-10.672 3.223,1.336 8.653,3.981 10.063,-2.558 1.058,-5.813 -13.715,-6 -13.715,-6 0,0 -1.41,-7.266 -5.313,-9.864 -8.699,-5.441 -15.097,0.953 -9.507,9.504 2.593,3.969 9.898,5.25 9.898,5.25 0,0 -0.676,14.684 5.406,14.34 z m -4.5,-18.344 c 1.891,1.633 2.25,0.375 4.051,-0.871 -1.109,1.598 -2.25,2.453 -0.578,4.379 -1.887,-1.633 -2.555,-0.695 -4.34,0.543 1.055,-1.676 2.504,-2.184 0.863,-4.051 z" /><path
         id="path236"
         style="fill:#000000;fill-opacity:1;fill-rule:nonzero;stroke:none"
         d="m 730.191,576 c -3.203,3.203 -0.933,8.68 3.598,8.68 4.531,0 6.797,-5.477 3.598,-8.68 -1.985,-1.996 -5.211,-1.996 -7.196,0 z m 12.954,-12.961 c -3.207,3.207 -0.938,8.695 3.601,8.695 4.535,0 6.809,-5.488 3.598,-8.695 -1.992,-1.98 -5.215,-1.969 -7.199,0.023 z" /><g
         id="g238"><path
           id="path240"
           style="fill:#ffd163;fill-opacity:1;fill-rule:nonzero;stroke:#000000;stroke-width:5.505;stroke-linecap:round;stroke-linejoin:round;stroke-miterlimit:4;stroke-dasharray:none;stroke-opacity:1"
           d="m 618.93,535.02 c 18.707,-5.016 27.164,-11.473 33.808,-20.844 1.352,-1.903 9.551,-16.582 10.824,-18.75 0.239,-0.41 -66.367,22.449 -66.367,22.449 l 66.367,-22.449 -67.964,-0.614 c 0,0 67.898,0.75 67.964,0.614 -17.25,-19.5 -35.355,-37.387 -63.253,-29.91 -34.336,9.203 -51.821,27.453 -69.625,55.586 29.117,14.902 54.113,23.062 88.246,13.918 z" /></g><g
         id="g242"><path
           id="path244"
           style="fill:#ffd163;fill-opacity:1;fill-rule:nonzero;stroke:#000000;stroke-width:5.505;stroke-linecap:round;stroke-linejoin:round;stroke-miterlimit:4;stroke-dasharray:none;stroke-opacity:1"
           d="m 681.562,447.039 c 0,17.938 -3.75,27.059 -10.546,35.25 -1.379,1.672 -12.555,12.523 -14.18,14.188 -0.316,0.316 4.168,-64.786 4.168,-64.786 l -4.168,64.809 -16.852,-60.684 c 0,0 16.934,60.594 16.852,60.684 -21.57,-10.746 -41.949,-22.68 -41.949,-49.441 0,-32.938 12.144,-52.973 33.054,-75.653 20.309,22.465 33.621,42.887 33.621,75.633 z" /></g><g
         id="g246"><path
           id="path248"
           style="fill:#ffd163;fill-opacity:1;fill-rule:nonzero;stroke:#000000;stroke-width:5.505;stroke-linecap:square;stroke-linejoin:miter;stroke-miterlimit:4;stroke-dasharray:none;stroke-opacity:1"
           d="m 646.051,523.125 c 9.301,9.301 23.293,12.082 35.445,7.047 12.156,-5.035 20.078,-16.895 20.078,-30.051 0,-13.152 -7.922,-25.016 -20.078,-30.051 -12.152,-5.035 -26.144,-2.25 -35.445,7.051 -6.102,6.098 -9.531,14.375 -9.531,23 0,8.629 3.429,16.902 9.531,23.004 z" /></g><g
         id="g250"><path
           id="path252"
           style="fill:none;stroke:#f10023;stroke-width:5.505;stroke-linecap:square;stroke-linejoin:miter;stroke-miterlimit:4;stroke-dasharray:none;stroke-opacity:1"
           d="m 760.664,324.105 -0.066,20.559 -21.407,0.922 -1.32,21.801 -20.121,-0.383 m 22.566,-42.598 -0.816,20.848 -19.5,-0.5 m -183.457,208.828 -0.074,20.559 -21.407,0.921 -1.312,21.801 -20.109,-0.379 m 22.57,-42.601 -0.82,20.851 -19.5,-0.504" /></g><g
         id="g254"><path
           id="path256"
           style="fill:none;stroke:#f10023;stroke-width:5.505;stroke-linecap:square;stroke-linejoin:miter;stroke-miterlimit:4;stroke-dasharray:none;stroke-opacity:1"
           d="m 769.199,433.184 9,-20.082 21.301,8.351 10.719,-20.758 19.5,9.067 m -40.5,31.929 9.808,-20.054 18.895,8.945" /></g><g
         id="g258"><path
           id="path260"
           style="fill:none;stroke:#f10023;stroke-width:5.505;stroke-linecap:square;stroke-linejoin:miter;stroke-miterlimit:4;stroke-dasharray:none;stroke-opacity:1"
           d="m 703.656,467.836 5.25,-21.352 22.5,4.454 6.879,-22.329 20.805,5.477 m -34.231,38.578 6.121,-21.473 20.168,5.469" /></g><g
         id="g262"><path
           id="path264"
           style="fill:none;stroke:#f10023;stroke-width:5.505;stroke-linecap:square;stroke-linejoin:miter;stroke-miterlimit:4;stroke-dasharray:none;stroke-opacity:1"
           d="m 841.004,411.137 13.629,-17.25 18.629,13.363 15.488,-17.52 16.68,13.59 m -47.114,21 14.446,-17.023 16.109,13.312" /></g><g
         id="g266"><path
           id="path268"
           style="fill:none;stroke:#f10023;stroke-width:5.505;stroke-linecap:square;stroke-linejoin:miter;stroke-miterlimit:4;stroke-dasharray:none;stroke-opacity:1"
           d="m 598.066,604.312 -20.078,9 8.356,21.344 -20.762,10.719 9.059,19.5 m 31.929,-40.5 -20.07,9.781 9,18.883" /></g><g
         id="g270"><path
           id="path272"
           style="fill:none;stroke:#f10023;stroke-width:5.505;stroke-linecap:square;stroke-linejoin:miter;stroke-miterlimit:4;stroke-dasharray:none;stroke-opacity:1"
           d="m 632.715,538.77 -21.344,5.25 4.445,22.5 -22.328,6.886 5.477,20.805 m 38.582,-34.231 -21.469,6.114 5.461,20.172" /></g><g
         id="g274"><path
           id="path276"
           style="fill:none;stroke:#f10023;stroke-width:5.505;stroke-linecap:square;stroke-linejoin:miter;stroke-miterlimit:4;stroke-dasharray:none;stroke-opacity:1"
           d="m 576,676.117 -17.25,13.629 13.352,18.629 -17.493,15.496 13.59,16.68 m 21,-47.11 -17.015,14.438 13.312,16.109" /></g><g
         id="g278"><path
           id="path280"
           style="fill:#137ab5;fill-opacity:1;fill-rule:nonzero;stroke:#000000;stroke-width:4.6425;stroke-linecap:square;stroke-linejoin:miter;stroke-miterlimit:4;stroke-dasharray:none;stroke-opacity:1"
           d="M 1486.32,507.359 H 998.738 c 0,1.637 0,3.278 0,4.914 0,178.168 28.543,299.168 248.504,299.168 219.961,0 239.102,-121 239.102,-299.191 0,-1.637 0,-3.277 0,-4.914 z" /></g><g
         id="g282"><path
           id="path284"
           style="fill:#fef6d8;fill-opacity:1;fill-rule:nonzero;stroke:#000000;stroke-width:4.6425;stroke-linecap:square;stroke-linejoin:miter;stroke-miterlimit:4;stroke-dasharray:none;stroke-opacity:1"
           d="m 1246.734,787.656 c -124.5,0 -195.855,-48.629 -203.25,-120.48 V 539.617 H 1447.5 v 127.559 c 0,70.074 -90.074,120.48 -200.766,120.48 z" /></g><g
         id="g286"><path
           id="path288"
           style="fill:#f10023;fill-opacity:1;fill-rule:nonzero;stroke:#000000;stroke-width:4.6425;stroke-linecap:square;stroke-linejoin:miter;stroke-miterlimit:4;stroke-dasharray:none;stroke-opacity:1"
           d="m 1246.734,797.371 c -125.093,0 -204.656,-48.992 -212.933,-129.195 l -0.055,-1 v -137.25 h 423.504 v 137.25 c 0,75.535 -93,130.195 -210.516,130.195 z m 0,-19.426 c 108.164,0 191.082,-48.75 191.082,-110.769 V 539.617 l 9.75,9.75 h -404.105 l 9.75,-9.75 v 127.559 l -0.055,-0.996 c 7.035,68.492 77.321,111.765 193.578,111.765 z" /></g><g
         id="g290"><path
           id="path292"
           style="fill:#fef6d8;fill-opacity:1;fill-rule:nonzero;stroke:#000000;stroke-width:4.6425;stroke-linecap:square;stroke-linejoin:miter;stroke-miterlimit:4;stroke-dasharray:none;stroke-opacity:1"
           d="M 1441.957,507.121 H 1047.75 c -1.605,10.824 -3.023,21.957 -4.262,33.402 H 1447.5 c -1.141,-8.261 -2.934,-19.656 -5.543,-33.402 z" /></g><g
         id="g294"><path
           id="path296"
           style="fill:#f10023;fill-opacity:1;fill-rule:nonzero;stroke:#000000;stroke-width:4.6425;stroke-linecap:square;stroke-linejoin:miter;stroke-miterlimit:4;stroke-dasharray:none;stroke-opacity:1"
           d="m 1450.883,507.121 h -17.699 c 2.25,11.902 4.152,23.473 5.738,34.617 l 8.578,-9.914 h -404.039 l 8.648,9.625 c 1.258,-11.687 2.723,-23.129 4.395,-34.328 h -17.582 c -1.555,10.613 -2.926,21.438 -4.11,32.473 l -1.035,9.633 h 423.75 l -1.402,-9.926 c -1.453,-10.395 -3.203,-21.149 -5.242,-32.18 z" /></g><g
         id="g298"><path
           id="path300"
           style="fill:#f10023;fill-opacity:1;fill-rule:nonzero;stroke:#000000;stroke-width:4.6425;stroke-linecap:square;stroke-linejoin:miter;stroke-miterlimit:4;stroke-dasharray:none;stroke-opacity:1"
           d="m 1000.012,566.578 h 485.633 c 0.546,-15 0.789,-30.582 0.839,-46.617 H 998.879 c 0.082,16.035 0.422,31.59 1.133,46.617 z" /></g><g
         id="g302"><path
           id="path304"
           style="fill:none;stroke:#f10023;stroke-width:4.6425;stroke-linecap:square;stroke-linejoin:miter;stroke-miterlimit:4;stroke-dasharray:none;stroke-opacity:1"
           d="m 1242.516,707.332 44.086,-44.078 14.957,14.746 -14.957,14.559 14.761,-14.559 -14.761,-14.762 z m -29.317,-0.195 14.551,14.957 14.762,-14.762 -14.762,14.762 z m 58.84,0.195 -14.762,14.762 -60.324,-60.438 60.324,60.438 z m -75.086,-45.676 -13.273,-13.355 14.761,-14.371 -14.761,14.371 z m 45.563,-42.906 44.086,44.477 z m 44.086,44.477 14.957,-14.762 -14.559,-14.535 14.559,14.566 z m -14.563,-44.477 -14.762,-14.371 -14.761,14.371 14.761,-14.371 z m -29.523,0 -14.766,-14.535 z m 0,0 -58.836,59.039 14.761,14.754 -14.761,-14.754 z m -14.766,-14.535 -14.551,14.535 14.551,-14.535 14.766,14.535 z" /></g><g
         id="g306"><path
           id="path308"
           style="fill:#f10023;fill-opacity:1;fill-rule:nonzero;stroke:#f10023;stroke-width:4.6425;stroke-linecap:square;stroke-linejoin:miter;stroke-miterlimit:4;stroke-dasharray:none;stroke-opacity:1"
           d="m 1249.5,663.203 -6.988,-12 -6.938,12 6.938,11.938 z m 0,-70.93 -6.988,-12.043 -6.938,12.043 6.938,11.942 z m 0,142.832 -6.988,-12 -6.938,12 6.938,11.942 z" /></g><g
         id="g310"><path
           id="path312"
           style="fill:#f10023;fill-opacity:1;fill-rule:nonzero;stroke:#f10023;stroke-width:4.6425;stroke-linecap:square;stroke-linejoin:miter;stroke-miterlimit:4;stroke-dasharray:none;stroke-opacity:1"
           d="m 1309.426,670.117 12.043,-6.988 -12.043,-6.938 -11.926,6.938 z m -133.93,0 12.039,-6.988 -12.039,-6.938 -11.937,6.938 z" /></g><g
         id="g314"><path
           id="path316"
           style="fill:none;stroke:#f10023;stroke-width:4.6425;stroke-linecap:square;stroke-linejoin:miter;stroke-miterlimit:4;stroke-dasharray:none;stroke-opacity:1"
           d="m 1070.754,593.754 13.152,-13.059 14.25,13.059 14.739,-13.059 12.578,13.059 m -41.551,12.75 13.816,-12.75 12.125,12.75" /></g><g
         id="g318"><path
           id="path320"
           style="fill:none;stroke:#f10023;stroke-width:4.6425;stroke-linecap:square;stroke-linejoin:miter;stroke-miterlimit:4;stroke-dasharray:none;stroke-opacity:1"
           d="m 1128.977,703.738 -13.157,13.059 -14.25,-13.059 -14.738,13.059 -12.578,-13.059 m 41.551,-12.75 -13.809,12.75 -12.125,-12.75" /></g><g
         id="g322"><path
           id="path324"
           style="fill:none;stroke:#f10023;stroke-width:4.6425;stroke-linecap:square;stroke-linejoin:miter;stroke-miterlimit:4;stroke-dasharray:none;stroke-opacity:1"
           d="m 1359.945,590.34 13.157,-13.059 14.25,13.059 14.734,-13.059 12.578,13.059 m -41.551,12.75 13.817,-12.75 12.129,12.75" /></g><g
         id="g326"><path
           id="path328"
           style="fill:none;stroke:#f10023;stroke-width:4.6425;stroke-linecap:square;stroke-linejoin:miter;stroke-miterlimit:4;stroke-dasharray:none;stroke-opacity:1"
           d="m 1414.648,707.16 -13.152,13.059 -14.25,-13.059 -14.746,13.059 -12.578,-13.059 m 41.551,-12.75 -13.817,12.75 -12.125,-12.75" /></g><g
         id="g330"><path
           id="path332"
           style="fill:#137ab5;fill-opacity:1;fill-rule:nonzero;stroke:#000000;stroke-width:4.6425;stroke-linecap:square;stroke-linejoin:miter;stroke-miterlimit:4;stroke-dasharray:none;stroke-opacity:1"
           d="M 1486.172,502.656 C 1481.387,325.949 1378.688,95.871 1247.25,95.871 c -131.438,0 -243.148,230.078 -248.355,406.785 z" /></g><g
         id="g334"><path
           id="path336"
           style="fill:#fef6d8;fill-opacity:1;fill-rule:nonzero;stroke:#000000;stroke-width:4.6425;stroke-linecap:square;stroke-linejoin:miter;stroke-miterlimit:4;stroke-dasharray:none;stroke-opacity:1"
           d="m 1440.434,502.426 c -18,-90.25 -68.317,-265.403 -194.43,-345.074 0,0 -154.445,76.07 -197.082,345.074 z" /></g><g
         id="g338"><path
           id="path340"
           style="fill:#f10023;fill-opacity:1;fill-rule:nonzero;stroke:#000000;stroke-width:4.6425;stroke-linecap:square;stroke-linejoin:miter;stroke-miterlimit:4;stroke-dasharray:none;stroke-opacity:1"
           d="m 1449.391,502.426 c -9.453,-48.617 -23.317,-96.27 -41.422,-142.367 C 1371,266.762 1319.477,193.5 1250.648,150 l -4.117,-2.602 -4.375,2.153 c -1.883,0.922 -5.179,2.75 -9.695,5.578 -8.461,5.351 -16.602,11.191 -24.383,17.492 -24.984,20.063 -49.914,46.266 -73.125,79.328 -45.586,64.91 -78.805,147.75 -94.851,250.5 h 17.617 c 15.75,-98.875 47.82,-178.32 91.5,-240.48 22.25,-31.68 46.043,-56.703 69.75,-75.75 7.25,-5.871 14.832,-11.313 22.715,-16.297 2.355,-1.5 4.433,-2.703 6.203,-3.684 1.019,-0.562 1.679,-0.91 1.957,-1.05 l -8.489,-0.442 c 65.25,41.195 114.75,111.578 150.434,201.75 17.297,44.051 30.641,89.551 39.871,135.965 z" /></g><g
         id="g342"><path
           id="path344"
           style="fill:#f5c95e;fill-opacity:1;fill-rule:nonzero;stroke:#000000;stroke-width:4.6425;stroke-linecap:square;stroke-linejoin:miter;stroke-miterlimit:4;stroke-dasharray:none;stroke-opacity:1"
           d="M 1457.387,338.871 C 1417.484,209.672 1339.172,95.586 1246.59,95.586 c -93.254,0 -176.528,115.75 -218.926,246.105 41.641,51.098 121.793,85.5 213.106,85.5 94.394,0 175.011,-36.105 216.617,-88.304 z" /></g><g
         id="g346"><path
           id="path348"
           style="fill:#4a3f1b;fill-opacity:1;fill-rule:nonzero;stroke:#000000;stroke-width:4.6425;stroke-linecap:square;stroke-linejoin:miter;stroke-miterlimit:4;stroke-dasharray:none;stroke-opacity:1"
           d="m 1368.352,259.68 c 0,-50.895 -30.653,-96.778 -77.668,-116.254 -47.02,-19.481 -101.141,-8.715 -137.129,27.269 -35.989,35.989 -46.754,90.11 -27.282,137.129 19.477,47.02 65.36,77.676 116.25,77.676 33.372,0.004 65.379,-13.254 88.973,-36.848 23.598,-23.597 36.856,-55.601 36.856,-88.972 z" /></g><g
         id="g350"><path
           id="path352"
           style="fill:#ffcfbf;fill-opacity:1;fill-rule:nonzero;stroke:#000000;stroke-width:4.6425;stroke-linecap:square;stroke-linejoin:miter;stroke-miterlimit:4;stroke-dasharray:none;stroke-opacity:1"
           d="m 1347.961,271.262 c 0,-64.157 -105.438,-110.649 -105.438,-110.649 0,0 -112.582,46.5 -112.582,110.649 0,64.144 48.43,116.164 112.582,116.164 64.157,0 105.438,-52.012 105.438,-116.164 z" /></g><path
         id="path354"
         style="fill:#000000;fill-opacity:1;fill-rule:nonzero;stroke:none"
         d="m 1318.711,255.75 c -12.523,-12.418 -32.719,-12.418 -45.242,0 -6.399,6.32 -9.992,14.945 -9.973,23.941 v 3 c 0,2.805 4.91,2.586 5.25,-0.152 0.672,-4.422 2.902,-8.457 6.293,-11.375 3.707,8.258 11.906,13.59 20.961,13.625 9.137,-0.074 17.391,-5.477 21.113,-13.82 3.496,2.914 5.723,7.074 6.211,11.601 0.289,2.813 5.25,2.953 5.25,0.149 v -3 c 0.031,-8.985 -3.515,-17.61 -9.863,-23.969 z m 1.086,-10.762 c -5.293,-17.109 -40.109,-39.984 -53.746,0.524 16.953,-19.223 42.699,-11.453 53.746,-0.524 z" /><path
         id="path356"
         style="fill:#000000;fill-opacity:1;fill-rule:nonzero;stroke:none"
         d="m 1207.656,255.75 c -12.523,-12.418 -32.715,-12.418 -45.238,0 -6.398,6.32 -9.996,14.945 -9.977,23.941 v 3 c 0,2.805 4.914,2.586 5.25,-0.152 0.676,-4.422 2.907,-8.457 6.293,-11.375 3.723,8.309 12,13.641 21.106,13.59 9.105,-0.047 17.324,-5.465 20.957,-13.816 3.5,2.91 5.73,7.074 6.215,11.601 0.293,2.813 5.25,2.957 5.25,0.152 v -3 c 0.027,-8.972 -3.516,-17.589 -9.856,-23.941 z m -49.5,-10.762 c 5.297,-17.109 40.11,-39.984 53.739,0.524 -16.973,-19.223 -42.727,-11.453 -53.758,-0.524 z" /><g
         id="g358"><path
           id="path360"
           style="fill:none;stroke:#000000;stroke-width:3.75;stroke-linecap:butt;stroke-linejoin:miter;stroke-miterlimit:10;stroke-dasharray:none;stroke-opacity:1"
           d="m 1271.371,341.766 c -20.25,11.8 -34.57,11.621 -57.691,0.234" /></g><path
         id="path362"
         style="fill:#db004c;fill-opacity:1;fill-rule:nonzero;stroke:none"
         d="m 1250.852,339.375 c -3.829,-3.422 -7.141,1.754 -8.25,4.5 -1.125,-2.715 -2.793,-7.5 -7.5,-4.5 -4.098,2.836 4.589,11.762 4.589,11.762 0,0 -3.496,5.172 -2.714,9.043 1.933,8.429 9.562,8.429 11.332,0 0.808,-3.907 -2.762,-9.043 -2.762,-9.043 0,0 9.137,-8.34 5.305,-11.762 z m -8.25,13.613 c -0.161,-2.093 -1.125,-1.566 -2.934,-1.89 1.613,-0.293 2.789,-0.129 2.945,-2.25 0.16,2.101 1.114,1.941 2.91,2.25 -1.617,0.359 -2.773,-0.172 -2.914,1.89 h -0.01 z" /><path
         id="path364"
         style="fill:#000000;fill-opacity:1;fill-rule:nonzero;stroke:none"
         d="m 1250.25,324.988 c 3.824,0.008 5.746,-4.613 3.043,-7.32 -2.699,-2.703 -7.324,-0.793 -7.324,3.031 0,2.367 1.914,4.289 4.281,4.289 z m -15.434,0 c 3.821,0 5.735,-4.621 3.032,-7.32 -2.703,-2.703 -7.325,-0.789 -7.325,3.031 0,2.367 1.918,4.285 4.286,4.289 h 0.01 z" /><g
         id="g366"><path
           id="path368"
           style="fill:#ffd163;fill-opacity:1;fill-rule:nonzero;stroke:#000000;stroke-width:4.6425;stroke-linecap:round;stroke-linejoin:round;stroke-miterlimit:4;stroke-dasharray:none;stroke-opacity:1"
           d="m 1292.113,415.727 c -14.136,-8.161 -23.023,-9.348 -32.562,-7.727 -1.942,0.328 -15.578,4.191 -17.625,4.727 -0.391,0.097 52.918,26.164 52.918,26.164 l -52.918,-26.164 40.133,40.867 c 0,0 -40.059,-40.899 -40.133,-40.867 -1.352,21.867 -1.215,43.347 19.867,55.5 25.949,15 47.25,14.527 74.617,8.367 -8.476,-26.211 -18.504,-45.973 -44.297,-60.867 z" /></g><g
         id="g370"><path
           id="path372"
           style="fill:#ffd163;fill-opacity:1;fill-rule:nonzero;stroke:#000000;stroke-width:4.6425;stroke-linecap:round;stroke-linejoin:round;stroke-miterlimit:4;stroke-dasharray:none;stroke-opacity:1"
           d="m 1202.363,430.836 c 10.688,-10.695 18.36,-13.887 27.285,-14.727 1.821,-0.168 14.946,0 16.911,0 0.375,0 -41.09,36.118 -41.09,36.118 l 41.09,-36.118 -26.121,46.207 c 0,0 26.015,-46.207 26.121,-46.207 6.453,19.258 11.484,38.512 -4.5,54.457 -19.625,19.633 -38.797,24.329 -64.778,25.387 1.321,-25.508 5.567,-45.601 25.082,-65.117 z" /></g><g
         id="g374"><path
           id="path376"
           style="fill:#ffd163;fill-opacity:1;fill-rule:nonzero;stroke:#000000;stroke-width:4.6425;stroke-linecap:square;stroke-linejoin:miter;stroke-miterlimit:4;stroke-dasharray:none;stroke-opacity:1"
           d="m 1268.863,406.656 c 0,-11.09 -6.675,-21.09 -16.922,-25.336 -10.246,-4.246 -22.043,-1.902 -29.886,5.942 -7.84,7.843 -10.188,19.636 -5.942,29.886 4.246,10.247 14.246,16.926 25.34,16.922 7.27,0 14.242,-2.886 19.383,-8.027 5.141,-5.145 8.027,-12.113 8.027,-19.387 z" /></g><g
         id="g378"><path
           id="path380"
           style="fill:none;stroke:#f10023;stroke-width:4.6425;stroke-linecap:square;stroke-linejoin:miter;stroke-miterlimit:4;stroke-dasharray:none;stroke-opacity:1"
           d="m 1081.965,456.953 12.285,-12.203 13.305,12.211 13.785,-12.211 11.754,12.211 m -38.844,11.926 12.906,-11.934 11.34,11.934 m 233.754,-15.137 12.293,-12.203 13.336,12.203 13.769,-12.203 11.758,12.203 m -38.832,11.941 12.906,-11.941 11.332,11.941" /></g><g
         id="g382"><path
           id="path384"
           style="fill:none;stroke:#f10023;stroke-width:4.6425;stroke-linecap:square;stroke-linejoin:miter;stroke-miterlimit:4;stroke-dasharray:none;stroke-opacity:1"
           d="m 1141.883,386.863 -17.309,6.625 -7.742,-17.691 -18.75,6 -6.223,-17.027 m 43.161,5.109 -17.797,6.105 -5.926,-16.593" /></g><g
         id="g386"><path
           id="path388"
           style="fill:none;stroke:#f10023;stroke-width:4.6425;stroke-linecap:square;stroke-linejoin:miter;stroke-miterlimit:4;stroke-dasharray:none;stroke-opacity:1"
           d="m 1201.59,405.277 -15.84,9.578 -10.746,-16.05 -17.43,9.195 -9.136,-15.66 m 43.386,-2.594 -16.437,9.149 -8.77,-15.278" /></g><g
         id="g390"><path
           id="path392"
           style="fill:none;stroke:#f10023;stroke-width:4.6425;stroke-linecap:square;stroke-linejoin:miter;stroke-miterlimit:4;stroke-dasharray:none;stroke-opacity:1"
           d="m 1085.953,357.211 -18.41,2.168 -3.152,-19.059 -19.649,1.192 -1.844,-18.035 m 40.582,15.57 -18.75,1.535 -1.671,-17.535" /></g><g
         id="g394"><path
           id="path396"
           style="fill:none;stroke:#f10023;stroke-width:4.6425;stroke-linecap:square;stroke-linejoin:miter;stroke-miterlimit:4;stroke-dasharray:none;stroke-opacity:1"
           d="m 1345.836,386.863 17.312,6.625 7.739,-17.691 18.75,6 6.226,-17.027 m -43.172,5.109 17.797,6.105 5.926,-16.593" /></g><g
         id="g398"><path
           id="path400"
           style="fill:none;stroke:#f10023;stroke-width:4.6425;stroke-linecap:square;stroke-linejoin:miter;stroke-miterlimit:4;stroke-dasharray:none;stroke-opacity:1"
           d="m 1286.137,405.277 15.863,9.578 10.746,-16.05 17.41,9.195 9.133,-15.66 m -43.394,-2.594 16.441,9.149 8.766,-15.278" /></g><g
         id="g402"><path
           id="path404"
           style="fill:none;stroke:#f10023;stroke-width:4.6425;stroke-linecap:square;stroke-linejoin:miter;stroke-miterlimit:4;stroke-dasharray:none;stroke-opacity:1"
           d="m 1401.75,357.211 18.406,2.168 3.149,-19.059 19.656,1.192 1.848,-18.035 m -40.582,15.57 18.75,1.535 1.664,-17.535" /></g><path
         id="path406"
         style="fill:#815e3a;fill-opacity:1;fill-rule:nonzero;stroke:none"
         d="m 1922.348,487.852 h -394.371 c -1.465,13.496 -2.219,27.062 -2.25,40.636 0,145.657 23.339,244.574 203.164,244.574 179.828,0 195.496,-98.917 195.496,-244.574 0,-13.187 -0.696,-26.789 -2.055,-40.636 z" /><g
         id="g408"><path
           id="path410"
           style="fill:#137ab5;fill-opacity:1;fill-rule:nonzero;stroke:#000000;stroke-width:4.05;stroke-linecap:square;stroke-linejoin:miter;stroke-miterlimit:4;stroke-dasharray:none;stroke-opacity:1"
           d="m 1938.09,545.953 h -426.164 c 0,1.434 0,2.867 0,4.293 0,155.738 24.945,261.488 217.199,261.488 192.254,0 209.012,-105.75 209.012,-261.488 0,-1.426 0,-2.859 0,-4.293 z" /></g><g
         id="g412"><path
           id="path414"
           style="fill:#fef6d8;fill-opacity:1;fill-rule:nonzero;stroke:#000000;stroke-width:4.05;stroke-linecap:square;stroke-linejoin:miter;stroke-miterlimit:4;stroke-dasharray:none;stroke-opacity:1"
           d="m 1728.684,790.949 c -108.797,0 -171.18,-42.508 -177.668,-105.308 V 574.148 h 353.175 v 111.493 c 0,61.218 -78.757,105.308 -175.507,105.308 z" /></g><g
         id="g416"><path
           id="path418"
           style="fill:#f10023;fill-opacity:1;fill-rule:nonzero;stroke:#000000;stroke-width:4.05;stroke-linecap:square;stroke-linejoin:miter;stroke-miterlimit:4;stroke-dasharray:none;stroke-opacity:1"
           d="m 1728.684,799.441 c -109.336,0 -178.875,-42.828 -186.114,-112.929 l -0.047,-0.871 v -120 h 370.157 v 120 c 0,66.015 -81.317,113.8 -183.996,113.8 z m 0,-16.98 c 94.535,0 167.015,-42.594 167.015,-96.82 V 574.148 l 8.492,8.489 H 1551 l 8.488,-8.489 v 111.493 l -0.043,-0.868 c 6.196,59.856 67.621,97.688 169.239,97.688 z" /></g><g
         id="g420"><path
           id="path422"
           style="fill:#fef6d8;fill-opacity:1;fill-rule:nonzero;stroke:#000000;stroke-width:4.05;stroke-linecap:square;stroke-linejoin:miter;stroke-miterlimit:4;stroke-dasharray:none;stroke-opacity:1"
           d="M 1899.316,545.746 H 1554.75 c -1.41,9.457 -2.66,19.192 -3.75,29.195 h 353.176 c -1.004,-7.191 -2.582,-17.179 -4.86,-29.195 z" /></g><g
         id="g424"><path
           id="path426"
           style="fill:#f10023;fill-opacity:1;fill-rule:nonzero;stroke:#000000;stroke-width:4.05;stroke-linecap:square;stroke-linejoin:miter;stroke-miterlimit:4;stroke-dasharray:none;stroke-opacity:1"
           d="m 1907.113,545.746 h -15.465 c 1.965,10.402 3.633,20.52 5.012,30.262 l 7.5,-8.672 H 1551 l 7.559,8.418 c 1.097,-10.215 2.375,-20.215 3.839,-30 h -15.367 c -1.355,9.273 -2.551,18.734 -3.59,28.379 l -0.902,8.414 h 370.41 l -1.199,-8.676 c -1.32,-9.082 -2.852,-18.48 -4.637,-28.125 z" /></g><g
         id="g428"><path
           id="path430"
           style="fill:#f10023;fill-opacity:1;fill-rule:nonzero;stroke:#000000;stroke-width:4.05;stroke-linecap:square;stroke-linejoin:miter;stroke-miterlimit:4;stroke-dasharray:none;stroke-opacity:1"
           d="m 1513.043,597.75 h 424.453 c 0.488,-13.133 0.692,-26.73 0.75,-40.746 h -426.195 c 0.07,14.016 0.363,27.613 0.992,40.746 z" /></g><g
         id="g432"><path
           id="path434"
           style="fill:none;stroke:#f10023;stroke-width:4.05;stroke-linecap:square;stroke-linejoin:miter;stroke-miterlimit:4;stroke-dasharray:none;stroke-opacity:1"
           d="m 1725,720.75 38.535,-38.535 13.067,12.906 -13.067,12.75 12.899,-12.75 -12.899,-12.906 z m -25.629,-0.172 12.75,13.07 12.879,-12.898 -12.898,12.898 z m 51.43,0.172 -12.903,12.898 -52.722,-52.82 52.722,52.82 z m -65.625,-39.922 -11.602,-11.687 12.899,-12.555 -12.899,12.555 z m 39.824,-37.5 38.535,38.871 z m 38.535,38.871 13.067,-12.898 -12.75,-12.75 12.75,12.75 z m -12.75,-38.871 -12.887,-12.578 -12.898,12.586 12.898,-12.586 z m -25.801,0 -12.898,-12.75 z m 0,0 -51.425,51.606 12.898,12.894 -12.898,-12.894 z m -12.898,-12.75 -12.75,12.75 12.75,-12.75 12.898,12.75 z" /></g><g
         id="g436"><path
           id="path438"
           style="fill:#f10023;fill-opacity:1;fill-rule:nonzero;stroke:#f10023;stroke-width:4.05;stroke-linecap:square;stroke-linejoin:miter;stroke-miterlimit:4;stroke-dasharray:none;stroke-opacity:1"
           d="m 1731.09,682.172 -6.113,-10.5 -6.059,10.5 6.059,10.43 z m 0,-62.004 -6.113,-10.5 -6.059,10.5 6.059,10.441 z m 0,124.844 -6.113,-10.5 -6.059,10.5 6.059,10.433 z" /></g><g
         id="g440"><path
           id="path442"
           style="fill:#f10023;fill-opacity:1;fill-rule:nonzero;stroke:#f10023;stroke-width:4.05;stroke-linecap:square;stroke-linejoin:miter;stroke-miterlimit:4;stroke-dasharray:none;stroke-opacity:1"
           d="m 1783.5,688.215 10.5,-6.113 -10.5,-6.067 -10.434,6.067 z m -117.051,0 10.5,-6.113 -10.5,-6.067 -10.449,6.067 z" /></g><g
         id="g444"><path
           id="path446"
           style="fill:none;stroke:#f10023;stroke-width:4.05;stroke-linecap:square;stroke-linejoin:miter;stroke-miterlimit:4;stroke-dasharray:none;stroke-opacity:1"
           d="m 1574.871,621.465 11.5,-11.414 12.434,11.414 12.886,-11.414 10.993,11.414 m -36.313,11.168 12.074,-11.168 10.598,11.168" /></g><g
         id="g448"><path
           id="path450"
           style="fill:none;stroke:#f10023;stroke-width:4.05;stroke-linecap:square;stroke-linejoin:miter;stroke-miterlimit:4;stroke-dasharray:none;stroke-opacity:1"
           d="M 1625.762,717.602 1614.262,729 1601.82,717.586 1588.941,729 1577.949,717.586 m 36.313,-11.16 -12.074,11.16 -10.598,-11.16" /></g><g
         id="g452"><path
           id="path454"
           style="fill:none;stroke:#f10023;stroke-width:4.05;stroke-linecap:square;stroke-linejoin:miter;stroke-miterlimit:4;stroke-dasharray:none;stroke-opacity:1"
           d="m 1827.637,618.48 11.5,-11.406 12.433,11.406 12.883,-11.406 10.996,11.406 m -36.312,11.168 12.074,-11.168 10.598,11.168" /></g><g
         id="g456"><path
           id="path458"
           style="fill:none;stroke:#f10023;stroke-width:4.05;stroke-linecap:square;stroke-linejoin:miter;stroke-miterlimit:4;stroke-dasharray:none;stroke-opacity:1"
           d="M 1875.449,720.586 1863.953,732 1851.512,720.586 1838.625,732 1827.637,720.586 m 36.316,-11.168 -12.074,11.168 -10.629,-11.168" /></g><g
         id="g460"><path
           id="path462"
           style="fill:#137ab5;fill-opacity:1;fill-rule:nonzero;stroke:#000000;stroke-width:4.05;stroke-linecap:square;stroke-linejoin:miter;stroke-miterlimit:4;stroke-dasharray:none;stroke-opacity:1"
           d="m 1938,541.734 c -4.176,-154.457 -93.945,-355.554 -208.859,-355.554 -114.914,0 -212.493,201.097 -217.043,355.554 z" /></g><g
         id="g464"><path
           id="path466"
           style="fill:#fef6d8;fill-opacity:1;fill-rule:nonzero;stroke:#000000;stroke-width:4.05;stroke-linecap:square;stroke-linejoin:miter;stroke-miterlimit:4;stroke-dasharray:none;stroke-opacity:1"
           d="m 1897.988,541.5 c -15.75,-78.879 -59.715,-231.969 -169.941,-301.605 0,0 -135,66.488 -172.254,301.605 z" /></g><g
         id="g468"><path
           id="path470"
           style="fill:#f10023;fill-opacity:1;fill-rule:nonzero;stroke:#000000;stroke-width:4.05;stroke-linecap:square;stroke-linejoin:miter;stroke-miterlimit:4;stroke-dasharray:none;stroke-opacity:1"
           d="m 1905.816,541.5 c -8.265,-42.492 -20.386,-84.141 -36.207,-124.434 -32.25,-81.546 -77.347,-145.597 -137.5,-183.597 l -3.597,-2.25 -3.828,1.883 c -1.641,0.816 -4.5,2.414 -8.473,4.882 -7.399,4.676 -14.516,9.778 -21.316,15.282 -21.833,17.535 -43.622,40.441 -63.915,69.339 -39.839,56.731 -68.871,129.122 -82.898,218.926 h 15.391 c 13.8,-86.418 41.797,-155.859 79.949,-210.179 19.457,-27.707 40.254,-49.571 61,-66.227 6.332,-5.133 12.961,-9.891 19.851,-14.25 2.055,-1.289 3.875,-2.355 5.422,-3.219 0.883,-0.484 1.461,-0.793 1.711,-0.914 l -7.418,-0.39 c 57,36 100.282,97.5 131.481,176.339 15.121,38.493 26.781,78.25 34.847,118.809 z" /></g><g
         id="g472"><path
           id="path474"
           style="fill:#f5c95e;fill-opacity:1;fill-rule:nonzero;stroke:#000000;stroke-width:4.05;stroke-linecap:square;stroke-linejoin:miter;stroke-miterlimit:4;stroke-dasharray:none;stroke-opacity:1"
           d="m 1912.801,398.574 c -34.875,-112.929 -103.321,-212.64 -184.246,-212.64 -81.504,0 -154.289,101.168 -191.34,215.105 36.39,44.664 106.449,74.715 186.254,74.715 82.5,0 153,-31.559 189.332,-77.18 z" /></g><g
         id="g476"><path
           id="path478"
           style="fill:#4a3f1b;fill-opacity:1;fill-rule:nonzero;stroke:#000000;stroke-width:4.05;stroke-linecap:square;stroke-linejoin:miter;stroke-miterlimit:4;stroke-dasharray:none;stroke-opacity:1"
           d="m 1834.98,329.363 c 0,-44.484 -26.792,-84.59 -67.886,-101.613 -41.098,-17.027 -88.403,-7.617 -119.86,23.836 -31.453,31.453 -40.867,78.758 -23.843,119.855 17.023,41.098 57.125,67.895 101.609,67.895 29.168,0 57.141,-11.586 77.766,-32.207 20.629,-20.625 32.214,-48.598 32.214,-77.766 z" /></g><g
         id="g480"><path
           id="path482"
           style="fill:#ffcfbf;fill-opacity:1;fill-rule:nonzero;stroke:#000000;stroke-width:4.05;stroke-linecap:square;stroke-linejoin:miter;stroke-miterlimit:4;stroke-dasharray:none;stroke-opacity:1"
           d="m 1817.16,339.48 c 0,-56.078 -92.152,-96.714 -92.152,-96.714 0,0 -98.406,40.636 -98.406,96.75 0,56.117 42.328,101.484 98.398,101.484 56.07,0 92.16,-45.449 92.16,-101.52 z" /></g><path
         id="path484"
         style="fill:#000000;fill-opacity:1;fill-rule:nonzero;stroke:none"
         d="m 1791.602,325.922 c -10.946,-10.863 -28.606,-10.863 -39.551,0 -5.59,5.523 -8.731,13.062 -8.715,20.922 v 2.656 c 0,2.453 4.293,2.25 4.605,-0.129 0.586,-3.863 2.536,-7.391 5.5,-9.945 3.254,7.258 10.485,11.91 18.438,11.867 7.953,-0.039 15.133,-4.77 18.312,-12.059 3.063,2.543 5.012,6.18 5.438,10.137 0.254,2.453 4.609,2.582 4.609,0.129 v -2.648 c 0.016,-7.848 -3.093,-15.379 -8.636,-20.93 z m 0.945,-9.406 c -4.629,-14.957 -35.063,-34.95 -46.973,0.449 14.813,-16.793 37.317,-10.004 46.973,-0.465 z" /><path
         id="path486"
         style="fill:#000000;fill-opacity:1;fill-rule:nonzero;stroke:none"
         d="m 1694.535,325.922 c -10.945,-10.863 -28.601,-10.863 -39.547,0 -5.593,5.523 -8.734,13.062 -8.715,20.922 v 2.656 c 0,2.453 4.289,2.25 4.614,-0.129 0.578,-3.863 2.527,-7.394 5.488,-9.945 3.254,7.258 10.484,11.91 18.437,11.867 7.954,-0.039 15.133,-4.77 18.313,-12.059 3.063,2.543 5.012,6.18 5.437,10.137 0.254,2.453 4.614,2.582 4.614,0.129 v -2.648 c 0.015,-7.848 -3.094,-15.379 -8.641,-20.93 z m -43.289,-9.422 c 4.625,-14.953 35.055,-34.949 46.973,0.449 -14.821,-16.777 -37.328,-9.988 -46.973,-0.449 z" /><g
         id="g488"><path
           id="path490"
           style="fill:none;stroke:#000000;stroke-width:3.75;stroke-linecap:butt;stroke-linejoin:miter;stroke-miterlimit:10;stroke-dasharray:none;stroke-opacity:1"
           d="m 1750.215,401.109 c -17.715,10.305 -30.211,10.153 -50.422,0.2" /></g><path
         id="path492"
         style="fill:#db004c;fill-opacity:1;fill-rule:nonzero;stroke:none"
         d="m 1732.281,399 c -3.343,-3 -6.238,1.539 -7.207,3.906 -0.98,-2.367 -2.429,-6.578 -6.57,-3.906 -3.582,2.477 4.012,10.273 4.012,10.273 0,0 -3.051,4.5 -2.375,7.907 1.695,7.371 8.363,7.371 9.906,0 0.715,-3.414 -2.406,-7.907 -2.406,-7.907 0,0 7.996,-7.273 4.64,-10.273 z m -7.207,11.895 c -0.133,-1.829 -0.98,-1.364 -2.558,-1.649 1.406,-0.258 2.437,-0.113 2.574,-1.98 0.137,1.828 0.969,1.695 2.551,1.98 -1.426,0.328 -2.43,-0.137 -2.567,1.664 z" /><path
         id="path494"
         style="fill:#000000;fill-opacity:1;fill-rule:nonzero;stroke:none"
         d="m 1731.75,386.438 c 3.34,0 5.016,-4.04 2.652,-6.403 -2.363,-2.363 -6.402,-0.687 -6.402,2.653 0,2.07 1.68,3.75 3.75,3.75 z m -13.5,0 c 3.34,0 5.016,-4.04 2.652,-6.403 -2.363,-2.363 -6.402,-0.687 -6.402,2.653 0,2.07 1.68,3.75 3.75,3.75 z" /><g
         id="g496"><path
           id="path498"
           style="fill:#ffd163;fill-opacity:1;fill-rule:nonzero;stroke:#000000;stroke-width:4.05;stroke-linecap:round;stroke-linejoin:round;stroke-miterlimit:4;stroke-dasharray:none;stroke-opacity:1"
           d="m 1768.352,465.75 c -12.356,-7.133 -20.125,-8.176 -28.5,-6.75 -1.704,0.293 -13.614,3.668 -15.407,4.125 -0.343,0.09 46.258,22.883 46.258,22.883 l -46.258,-22.883 35.078,35.723 c 0,0 -34.988,-35.746 -35.078,-35.723 -1.179,19.125 -1.066,37.891 17.364,48.531 22.679,13.09 41.293,12.692 65.25,7.313 -7.395,-22.934 -16.172,-40.207 -38.707,-53.219 z" /></g><g
         id="g500"><path
           id="path502"
           style="fill:#ffd163;fill-opacity:1;fill-rule:nonzero;stroke:#000000;stroke-width:4.05;stroke-linecap:round;stroke-linejoin:round;stroke-miterlimit:4;stroke-dasharray:none;stroke-opacity:1"
           d="m 1689.898,478.949 c 9.348,-9.344 16.051,-12.14 23.852,-12.871 1.598,-0.148 13.066,0 14.781,0 0.324,0 -35.918,31.57 -35.918,31.57 l 35.918,-31.57 -22.828,40.391 c 0,0 22.738,-40.391 22.828,-40.391 5.641,16.832 10.035,33.66 -3.906,47.606 -17.16,17.152 -33.906,21.261 -56.617,22.183 1.133,-22.297 4.836,-39.863 21.89,-56.918 z" /></g><g
         id="g504"><path
           id="path506"
           style="fill:#ffd163;fill-opacity:1;fill-rule:nonzero;stroke:#000000;stroke-width:4.05;stroke-linecap:square;stroke-linejoin:miter;stroke-miterlimit:4;stroke-dasharray:none;stroke-opacity:1"
           d="m 1748.031,457.816 c -0.015,-9.687 -5.859,-18.41 -14.808,-22.109 -8.95,-3.699 -19.25,-1.648 -26.098,5.203 -6.848,6.848 -8.898,17.145 -5.199,26.094 3.699,8.953 12.422,14.797 22.105,14.812 13.258,0 24,-10.746 24,-24 z" /></g><g
         id="g508"><path
           id="path510"
           style="fill:none;stroke:#f10023;stroke-width:4.05;stroke-linecap:square;stroke-linejoin:miter;stroke-miterlimit:4;stroke-dasharray:none;stroke-opacity:1"
           d="m 1584.668,501.75 10.746,-10.664 11.625,10.664 12.047,-10.664 10.273,10.664 m -33.945,10.5 11.25,-10.441 9.945,10.441 m 204.325,-13.223 10.746,-10.672 11.625,10.672 12.047,-10.672 10.273,10.672 m -33.945,10.434 11.25,-10.434 9.906,10.434" /></g><g
         id="g512"><path
           id="path514"
           style="fill:none;stroke:#f10023;stroke-width:4.05;stroke-linecap:square;stroke-linejoin:miter;stroke-miterlimit:4;stroke-dasharray:none;stroke-opacity:1"
           d="m 1637.039,440.52 -15.125,5.789 -6.75,-15.465 -16.398,5.25 -5.442,-14.879 m 37.731,4.5 -15.555,5.281 -5.184,-14.5" /></g><g
         id="g516"><path
           id="path518"
           style="fill:none;stroke:#f10023;stroke-width:4.05;stroke-linecap:square;stroke-linejoin:miter;stroke-miterlimit:4;stroke-dasharray:none;stroke-opacity:1"
           d="m 1689.227,456.609 -13.868,8.391 -9.39,-14.031 -15.219,8.031 -7.98,-13.688 m 37.921,-2.25 -14.371,7.997 -7.656,-13.352" /></g><g
         id="g520"><path
           id="path522"
           style="fill:none;stroke:#f10023;stroke-width:4.05;stroke-linecap:square;stroke-linejoin:miter;stroke-miterlimit:4;stroke-dasharray:none;stroke-opacity:1"
           d="m 1588.156,414.602 -16.09,1.894 -2.75,-16.656 -17.183,1.043 -1.613,-15.75 m 35.476,13.605 -16.394,1.34 -1.457,-15.328" /></g><g
         id="g524"><path
           id="path526"
           style="fill:none;stroke:#f10023;stroke-width:4.05;stroke-linecap:square;stroke-linejoin:miter;stroke-miterlimit:4;stroke-dasharray:none;stroke-opacity:1"
           d="m 1815.309,440.52 15.125,5.789 6.75,-15.465 16.394,5.25 5.445,-14.879 m -37.73,4.5 15.555,5.332 5.183,-14.496" /></g><g
         id="g528"><path
           id="path530"
           style="fill:none;stroke:#f10023;stroke-width:4.05;stroke-linecap:square;stroke-linejoin:miter;stroke-miterlimit:4;stroke-dasharray:none;stroke-opacity:1"
           d="m 1763.121,456.609 13.867,8.391 9.391,-14.031 15.219,8.031 7.98,-13.688 m -37.922,-2.25 14.371,7.997 7.657,-13.352" /></g><g
         id="g532"><path
           id="path534"
           style="fill:none;stroke:#f10023;stroke-width:4.05;stroke-linecap:square;stroke-linejoin:miter;stroke-miterlimit:4;stroke-dasharray:none;stroke-opacity:1"
           d="m 1864.191,414.602 16.09,1.894 2.75,-16.656 17.184,1.043 1.613,-15.75 m -35.469,13.605 16.387,1.34 1.457,-15.32" /></g><path
         id="path536"
         style="fill:#815e3a;fill-opacity:1;fill-rule:nonzero;stroke:none"
         d="m 2325.953,524.559 h -349.816 c -1.293,11.968 -1.953,23.996 -1.981,36.035 0,129.203 20.703,216.945 180.211,216.945 159.512,0 173.406,-87.75 173.406,-216.945 0,-11.692 -0.621,-23.758 -1.82,-36.035 z" /><g
         id="g538"><path
           id="path540"
           style="fill:#137ab5;fill-opacity:1;fill-rule:nonzero;stroke:#000000;stroke-width:3.615;stroke-linecap:square;stroke-linejoin:miter;stroke-miterlimit:4;stroke-dasharray:none;stroke-opacity:1"
           d="m 2340.473,575.512 h -379.125 c 0,1.285 0,2.55 0,3.824 0,138.543 22.199,232.621 193.238,232.621 171.035,0 185.93,-94.078 185.93,-232.621 0,-1.274 0,-2.539 0,-3.824 z" /></g><g
         id="g542"><path
           id="path544"
           style="fill:#fef6d8;fill-opacity:1;fill-rule:nonzero;stroke:#000000;stroke-width:3.615;stroke-linecap:square;stroke-linejoin:miter;stroke-miterlimit:4;stroke-dasharray:none;stroke-opacity:1"
           d="m 2154.18,793.5 c -96.793,0 -152.25,-37.816 -158.055,-93.684 v -99.214 h 314.184 v 99.148 c 0,54.488 -70.059,93.75 -156.129,93.75 z" /></g><g
         id="g546"><path
           id="path548"
           style="fill:#f10023;fill-opacity:1;fill-rule:nonzero;stroke:#000000;stroke-width:3.615;stroke-linecap:square;stroke-linejoin:miter;stroke-miterlimit:4;stroke-dasharray:none;stroke-opacity:1"
           d="m 2154.18,801 c -97.266,0 -159.133,-38.094 -165.571,-100.453 l -0.043,-0.75 v -106.75 h 329.293 V 699.75 c 0,58.762 -72.359,101.25 -163.679,101.25 z m 0,-15.105 c 84.097,0 148.574,-37.883 148.574,-86.129 v -99.164 l 7.555,7.55 h -314.184 l 7.547,-7.55 V 699.75 699 c 5.457,53.25 60.109,86.91 150.508,86.91 z" /></g><g
         id="g550"><path
           id="path552"
           style="fill:#fef6d8;fill-opacity:1;fill-rule:nonzero;stroke:#000000;stroke-width:3.615;stroke-linecap:square;stroke-linejoin:miter;stroke-miterlimit:4;stroke-dasharray:none;stroke-opacity:1"
           d="m 2305.973,575.332 h -306.539 c -1.246,8.414 -2.348,17.074 -3.309,25.973 h 314.184 c -0.911,-6.426 -2.305,-15.285 -4.336,-25.973 z" /></g><g
         id="g554"><path
           id="path556"
           style="fill:#f10023;fill-opacity:1;fill-rule:nonzero;stroke:#000000;stroke-width:3.615;stroke-linecap:square;stroke-linejoin:miter;stroke-miterlimit:4;stroke-dasharray:none;stroke-opacity:1"
           d="m 2312.918,575.332 h -13.77 c 1.754,9.254 3.239,18.254 4.5,26.918 l 6.688,-7.711 h -314.211 l 6.75,7.5 c 1,-9.09 2.141,-17.988 3.422,-26.691 h -13.676 c -1.203,8.25 -2.269,16.664 -3.195,25.246 l -0.801,7.5 h 329.477 l -1.098,-7.711 c -1.141,-8.106 -2.5,-16.457 -4.086,-25.051 z" /></g><g
         id="g558"><path
           id="path560"
           style="fill:#f10023;fill-opacity:1;fill-rule:nonzero;stroke:#000000;stroke-width:3.615;stroke-linecap:square;stroke-linejoin:miter;stroke-miterlimit:4;stroke-dasharray:none;stroke-opacity:1"
           d="m 1962.336,621.562 h 377.605 c 0.434,-11.683 0.614,-23.781 0.661,-36.246 h -379.141 c 0.059,12.465 0.32,24.563 0.875,36.246 z" /></g><g
         id="g562"><path
           id="path564"
           style="fill:none;stroke:#f10023;stroke-width:3.615;stroke-linecap:square;stroke-linejoin:miter;stroke-miterlimit:4;stroke-dasharray:none;stroke-opacity:1"
           d="m 2150.902,731.012 34.274,-34.278 11.633,11.477 -11.633,11.324 11.476,-11.324 -11.476,-11.477 z m -22.8,-0.16 11.324,11.632 11.476,-11.472 -11.476,11.472 z m 45.75,0.16 -11.473,11.472 -46.906,-46.996 46.906,47.012 z m -58.379,-35.524 -10.328,-10.386 11.484,-11.176 -11.484,11.176 z m 35.429,-33.343 34.274,34.589 z m 34.274,34.589 11.633,-11.48 -11.325,-11.328 11.325,11.328 z M 2173.852,662.145 2162.379,651 2150.902,662.168 2162.379,651 Z m -22.95,0 -11.476,-11.317 z m 0,0 -45.75,45.906 11.485,11.484 -11.485,-11.484 z m -11.476,-11.317 -11.324,11.317 11.324,-11.317 11.476,11.317 z" /></g><g
         id="g566"><path
           id="path568"
           style="fill:#f10023;fill-opacity:1;fill-rule:nonzero;stroke:#f10023;stroke-width:3.615;stroke-linecap:square;stroke-linejoin:miter;stroke-miterlimit:4;stroke-dasharray:none;stroke-opacity:1"
           d="m 2156.316,696.699 -5.437,-9.371 -5.391,9.371 5.391,9.285 z m 0,-55.156 -5.437,-9.367 -5.391,9.367 5.391,9.285 z m 0,111.059 -5.437,-9.352 -5.391,9.367 5.391,9.285 z" /></g><g
         id="g570"><path
           id="path572"
           style="fill:#f10023;fill-opacity:1;fill-rule:nonzero;stroke:#f10023;stroke-width:3.615;stroke-linecap:square;stroke-linejoin:miter;stroke-miterlimit:4;stroke-dasharray:none;stroke-opacity:1"
           d="m 2202.922,702.066 9.367,-5.429 -9.367,-5.399 -9.285,5.399 z m -104.137,0 9.367,-5.429 -9.367,-5.399 -9.285,5.399 z" /></g><g
         id="g574"><path
           id="path576"
           style="fill:none;stroke:#f10023;stroke-width:3.615;stroke-linecap:square;stroke-linejoin:miter;stroke-miterlimit:4;stroke-dasharray:none;stroke-opacity:1"
           d="m 2017.344,642.691 10.23,-10.148 11.067,10.148 11.453,-10.148 9.75,10.148 m -32.301,9.93 10.738,-9.93 9.43,9.93" /></g><g
         id="g578"><path
           id="path580"
           style="fill:none;stroke:#f10023;stroke-width:3.615;stroke-linecap:square;stroke-linejoin:miter;stroke-miterlimit:4;stroke-dasharray:none;stroke-opacity:1"
           d="m 2062.613,728.25 -10.23,10.156 -11.063,-10.156 -11.461,10.156 -9.75,-10.156 m 32.305,-9.93 -10.766,9.93 -9.433,-9.93" /></g><g
         id="g582"><path
           id="path584"
           style="fill:none;stroke:#f10023;stroke-width:3.615;stroke-linecap:square;stroke-linejoin:miter;stroke-miterlimit:4;stroke-dasharray:none;stroke-opacity:1"
           d="m 2242.207,640.035 10.231,-10.148 11.062,10.148 11.461,-10.148 9.75,10.148 m -32.305,9.938 10.742,-9.938 9.426,9.938" /></g><g
         id="g586"><path
           id="path588"
           style="fill:none;stroke:#f10023;stroke-width:3.615;stroke-linecap:square;stroke-linejoin:miter;stroke-miterlimit:4;stroke-dasharray:none;stroke-opacity:1"
           d="M 2284.738,730.867 2274.512,741 2263.449,730.844 2251.988,741 l -9.75,-10.156 m 32.301,-9.93 -10.738,9.93 -9.43,-9.93" /></g><g
         id="g590"><path
           id="path592"
           style="fill:#137ab5;fill-opacity:1;fill-rule:nonzero;stroke:#000000;stroke-width:3.615;stroke-linecap:square;stroke-linejoin:miter;stroke-miterlimit:4;stroke-dasharray:none;stroke-opacity:1"
           d="m 2340.352,571.5 c -3.75,-137.406 -83.571,-316.305 -185.797,-316.305 -102.227,0 -189,178.899 -193.086,316.305 z" /></g><g
         id="g594"><path
           id="path596"
           style="fill:#fef6d8;fill-opacity:1;fill-rule:nonzero;stroke:#000000;stroke-width:3.615;stroke-linecap:square;stroke-linejoin:miter;stroke-miterlimit:4;stroke-dasharray:none;stroke-opacity:1"
           d="m 2304.789,571.352 c -14.004,-70.18 -53.117,-206.372 -151.18,-268.321 0,0 -120.089,59.153 -153.238,268.321 z" /></g><g
         id="g598"><path
           id="path600"
           style="fill:#f10023;fill-opacity:1;fill-rule:nonzero;stroke:#000000;stroke-width:3.615;stroke-linecap:square;stroke-linejoin:miter;stroke-miterlimit:4;stroke-dasharray:none;stroke-opacity:1"
           d="m 2311.754,571.352 c -7.359,-37.805 -18.156,-74.86 -32.25,-110.704 -28.715,-72.546 -68.805,-129.523 -122.316,-163.332 l -3.204,-2.027 -3.359,1.711 c -1.5,0.75 -4.035,2.145 -7.547,4.344 -6.578,4.16 -12.906,8.699 -18.957,13.597 -19.426,15.598 -38.805,36 -56.859,61.688 -35.446,50.465 -61.274,114.859 -73.754,194.758 h 13.695 c 12.277,-76.883 37.184,-138.653 71.129,-186.989 17.305,-24.636 35.797,-44.093 54.254,-58.914 5.637,-4.582 11.535,-8.836 17.664,-12.734 1.836,-1.148 3.449,-2.094 4.824,-2.859 0.793,-0.434 1.305,-0.703 1.5,-0.817 l -6.601,-0.344 c 50.715,32.032 89.25,86.758 117,156.872 13.453,34.257 23.828,69.648 31.004,105.75 z" /></g><g
         id="g602"><path
           id="path604"
           style="fill:#f5c95e;fill-opacity:1;fill-rule:nonzero;stroke:#000000;stroke-width:3.615;stroke-linecap:square;stroke-linejoin:miter;stroke-miterlimit:4;stroke-dasharray:none;stroke-opacity:1"
           d="M 2317.973,444.18 C 2286.945,343.719 2226.051,255 2154.066,255 c -72.507,0 -137.25,90 -170.25,191.363 32.379,39.75 94.704,66.465 165.7,66.465 73.402,0 136.086,-28.074 168.433,-68.656 z" /></g><g
         id="g606"><path
           id="path608"
           style="fill:#4a3f1b;fill-opacity:1;fill-rule:nonzero;stroke:#000000;stroke-width:3.615;stroke-linecap:square;stroke-linejoin:miter;stroke-miterlimit:4;stroke-dasharray:none;stroke-opacity:1"
           d="m 2248.738,382.605 c 0,-39.574 -23.832,-75.25 -60.39,-90.398 -36.563,-15.145 -78.645,-6.773 -106.625,21.207 -27.985,27.984 -36.356,70.066 -21.207,106.629 15.144,36.559 50.82,60.395 90.394,60.391 25.945,0 50.828,-10.305 69.176,-28.653 18.348,-18.347 28.652,-43.23 28.652,-69.176 z" /></g><g
         id="g610"><path
           id="path612"
           style="fill:#ffcfbf;fill-opacity:1;fill-rule:nonzero;stroke:#000000;stroke-width:3.615;stroke-linecap:square;stroke-linejoin:miter;stroke-miterlimit:4;stroke-dasharray:none;stroke-opacity:1"
           d="m 2232.887,391.605 c 0,-49.882 -81.977,-86.039 -81.977,-86.039 0,0 -87.547,36.157 -87.547,86.039 0,49.883 37.657,90.321 87.547,90.321 49.891,0 81.977,-40.438 81.977,-90.321 z" /></g><path
         id="path614"
         style="fill:#000000;fill-opacity:1;fill-rule:nonzero;stroke:none"
         d="m 2210.145,379.539 c -9.743,-9.652 -25.442,-9.652 -35.184,0 -4.973,4.914 -7.77,11.621 -7.754,18.613 v 2.348 c 0,2.184 3.824,2.012 4.102,-0.121 0.523,-3.438 2.257,-6.578 4.89,-8.848 2.895,6.461 9.328,10.606 16.41,10.567 7.079,-0.036 13.469,-4.243 16.297,-10.735 2.723,2.258 4.457,5.489 4.84,9 0.223,2.184 4.102,2.305 4.102,0.121 v -2.363 c 0,-6.969 -2.77,-13.656 -7.703,-18.582 z m 0.855,-8.363 c -4.117,-13.297 -31.184,-31.09 -41.781,0.402 13.16,-14.937 33.187,-8.902 41.781,-0.402 z" /><path
         id="path616"
         style="fill:#000000;fill-opacity:1;fill-rule:nonzero;stroke:none"
         d="m 2123.797,379.539 c -9.742,-9.652 -25.438,-9.652 -35.184,0 -4.972,4.914 -7.765,11.621 -7.754,18.613 v 2.348 c 0,2.184 3.817,2.012 4.102,-0.121 0.523,-3.438 2.258,-6.578 4.891,-8.848 2.894,6.461 9.328,10.606 16.41,10.567 7.078,-0.036 13.468,-4.243 16.297,-10.735 2.718,2.262 4.453,5.489 4.839,9 0.215,2.184 4.094,2.305 4.094,0.121 v -2.363 c 0,-6.969 -2.769,-13.652 -7.695,-18.582 z m -38.512,-8.363 c 4.117,-13.297 31.184,-31.09 41.781,0.402 -13.175,-14.937 -33.203,-8.902 -41.781,-0.402 z" /><g
         id="g618"><path
           id="path620"
           style="fill:none;stroke:#000000;stroke-width:3.75;stroke-linecap:butt;stroke-linejoin:miter;stroke-miterlimit:10;stroke-dasharray:none;stroke-opacity:1"
           d="m 2173.336,446.43 c -15.75,9.164 -26.883,9 -44.859,0.179" /></g><path
         id="path622"
         style="fill:#db004c;fill-opacity:1;fill-rule:nonzero;stroke:none"
         d="m 2157.383,444.562 c -3,-2.656 -5.559,1.372 -6.414,3.481 -0.875,-2.109 -2.168,-5.852 -5.848,-3.481 -3.187,2.204 3.57,9.149 3.57,9.149 0,0 -2.714,4.023 -2.117,7.027 1.5,6.559 7.442,6.559 8.813,0 0.629,-3.035 -2.145,-7.027 -2.145,-7.027 0,0 7.117,-6.484 4.141,-9.149 z m -6.383,10.59 c -0.129,-1.629 -0.879,-1.214 -2.25,-1.5 1.254,-0.226 2.168,-0.105 2.25,-1.761 0.129,1.632 0.863,1.5 2.25,1.761 -1.273,0.309 -2.16,-0.105 -2.25,1.5 z" /><path
         id="path624"
         style="fill:#000000;fill-opacity:1;fill-rule:nonzero;stroke:none"
         d="m 2156.91,433.379 c 2.977,0 4.465,-3.598 2.356,-5.699 -2.106,-2.102 -5.7,-0.606 -5.692,2.371 0,1.84 1.492,3.332 3.336,3.328 z m -12,0 c 2.977,0 4.465,-3.598 2.356,-5.699 -2.106,-2.102 -5.7,-0.606 -5.692,2.371 0,1.84 1.488,3.328 3.328,3.328 h 0.01 z" /><g
         id="g626"><path
           id="path628"
           style="fill:#ffd163;fill-opacity:1;fill-rule:nonzero;stroke:#000000;stroke-width:3.615;stroke-linecap:round;stroke-linejoin:round;stroke-miterlimit:4;stroke-dasharray:none;stroke-opacity:1"
           d="m 2189.461,503.934 c -10.988,-6.348 -17.895,-7.27 -25.313,-6 -1.5,0.254 -12.113,3.261 -13.71,3.675 -0.301,0.075 41.152,20.344 41.152,20.344 l -41.152,-20.344 31.207,31.778 c 0,0 -31.125,-31.801 -31.207,-31.778 -1.051,17.008 -0.946,33.703 15.449,43.168 20.175,11.649 36.75,11.25 58.019,6.504 -6.59,-20.402 -14.406,-35.769 -34.445,-47.347 z" /></g><g
         id="g630"><path
           id="path632"
           style="fill:#ffd163;fill-opacity:1;fill-rule:nonzero;stroke:#000000;stroke-width:3.615;stroke-linecap:round;stroke-linejoin:round;stroke-miterlimit:4;stroke-dasharray:none;stroke-opacity:1"
           d="m 2119.672,515.676 c 8.316,-8.309 14.25,-10.797 21.226,-11.442 1.411,-0.136 11.618,0 13.141,0 0.289,0 -31.953,28.086 -31.953,28.086 l 31.953,-28.086 -20.289,35.922 c 0,0 20.25,-35.922 20.301,-35.922 5.019,15 8.933,29.938 -3.473,42.344 -15.262,15.262 -30.164,18.914 -50.367,19.738 0.996,-19.836 4.289,-35.457 19.461,-50.64 z" /></g><g
         id="g634"><path
           id="path636"
           style="fill:#ffd163;fill-opacity:1;fill-rule:nonzero;stroke:#000000;stroke-width:3.615;stroke-linecap:square;stroke-linejoin:miter;stroke-miterlimit:4;stroke-dasharray:none;stroke-opacity:1"
           d="m 2171.387,496.883 c 0,-8.621 -5.196,-16.395 -13.16,-19.692 -7.965,-3.3 -17.133,-1.476 -23.231,4.618 -6.094,6.097 -7.918,15.265 -4.617,23.23 3.297,7.965 11.07,13.16 19.691,13.16 11.774,0 21.317,-9.543 21.317,-21.316 z" /></g><g
         id="g638"><path
           id="path640"
           style="fill:none;stroke:#f10023;stroke-width:3.615;stroke-linecap:square;stroke-linejoin:miter;stroke-miterlimit:4;stroke-dasharray:none;stroke-opacity:1"
           d="m 2026.059,535.988 9.562,-9.488 10.379,9.488 10.672,-9.488 9.144,9.488 m -30.195,9.262 10.035,-9.285 8.813,9.285 m 181.777,-11.766 9.555,-9.488 10.347,9.488 10.711,-9.488 9.145,9.488 m -30.203,9.282 10.043,-9.282 8.812,9.282" /></g><g
         id="g642"><path
           id="path644"
           style="fill:none;stroke:#f10023;stroke-width:3.615;stroke-linecap:square;stroke-linejoin:miter;stroke-miterlimit:4;stroke-dasharray:none;stroke-opacity:1"
           d="m 2072.648,481.5 -13.457,5.152 -6,-13.761 -14.578,4.656 -4.847,-13.246 m 33.562,3.976 -13.828,4.739 -4.605,-12.899" /></g><g
         id="g646"><path
           id="path648"
           style="fill:none;stroke:#f10023;stroke-width:3.615;stroke-linecap:square;stroke-linejoin:miter;stroke-miterlimit:4;stroke-dasharray:none;stroke-opacity:1"
           d="m 2119.074,495.809 -12.324,7.441 -8.355,-12.48 -13.5,7.156 -7.102,-12.18 m 33.75,-2.012 -12.75,7.11 -6.816,-11.879" /></g><g
         id="g650"><path
           id="path652"
           style="fill:none;stroke:#f10023;stroke-width:3.615;stroke-linecap:square;stroke-linejoin:miter;stroke-miterlimit:4;stroke-dasharray:none;stroke-opacity:1"
           d="m 2029.164,458.438 -14.32,1.679 -2.446,-14.812 -15.285,0.945 -1.429,-14.023 m 31.566,12.082 -14.578,1.199 -1.301,-13.637" /></g><g
         id="g654"><path
           id="path656"
           style="fill:none;stroke:#f10023;stroke-width:3.615;stroke-linecap:square;stroke-linejoin:miter;stroke-miterlimit:4;stroke-dasharray:none;stroke-opacity:1"
           d="m 2231.25,481.5 13.453,5.152 6,-13.761 14.582,4.656 4.844,-13.246 m -33.563,3.976 13.84,4.746 4.606,-12.898" /></g><g
         id="g658"><path
           id="path660"
           style="fill:none;stroke:#f10023;stroke-width:3.615;stroke-linecap:square;stroke-linejoin:miter;stroke-miterlimit:4;stroke-dasharray:none;stroke-opacity:1"
           d="m 2184.816,495.809 12.34,7.449 8.348,-12.481 13.5,7.157 7.101,-12.18 m -33.75,-2.012 12.75,7.11 6.817,-11.879" /></g><g
         id="g662"><path
           id="path664"
           style="fill:none;stroke:#f10023;stroke-width:3.615;stroke-linecap:square;stroke-linejoin:miter;stroke-miterlimit:4;stroke-dasharray:none;stroke-opacity:1"
           d="m 2274.75,458.438 14.309,1.679 2.453,-14.812 15.261,0.945 1.434,-14.023 m -31.551,12.101 14.594,1.172 1.289,-13.637" /></g><g
         id="g666"><path
           id="path668"
           style="fill:#ffd163;fill-opacity:1;fill-rule:nonzero;stroke:#000000;stroke-width:3.21;stroke-linecap:square;stroke-linejoin:miter;stroke-miterlimit:4;stroke-dasharray:none;stroke-opacity:1"
           d="m 2702.656,601.816 c 0,-124.597 -73.058,-293.378 -167.25,-293.378 -94.195,0 -173.785,168.75 -173.785,293.378 0,124.625 19.965,209.204 173.785,209.204 153.817,0 167.25,-84.606 167.25,-209.204 z" /></g><g
         id="g670"><path
           id="path672"
           style="fill:#ffffff;fill-opacity:1;fill-rule:nonzero;stroke:#137ab5;stroke-width:13.59;stroke-linecap:square;stroke-linejoin:miter;stroke-miterlimit:4;stroke-dasharray:none;stroke-opacity:1"
           d="m 2535.098,794.391 c -87.051,0 -136.965,-34.012 -142.157,-84.254 v -89.196 h 282.571 v 89.196 c 0,48.984 -63.008,84.254 -140.414,84.254 z" /></g><g
         id="g674"><path
           id="path676"
           style="fill:#ffffff;fill-opacity:1;fill-rule:nonzero;stroke:#137ab5;stroke-width:12.1725;stroke-linecap:square;stroke-linejoin:miter;stroke-miterlimit:4;stroke-dasharray:none;stroke-opacity:1"
           d="m 2675.512,621.57 c -6,-42.601 -35.856,-203.761 -140.934,-270.144 0,0 -118.91,58.578 -141.637,270.144 z" /></g><g
         id="g678"><path
           id="path680"
           style="fill:#137ab5;fill-opacity:1;fill-rule:nonzero;stroke:#000000;stroke-width:3.615;stroke-linecap:square;stroke-linejoin:miter;stroke-miterlimit:4;stroke-dasharray:none;stroke-opacity:1"
           d="m 2362.559,639.789 h 339.601 c 0.391,-10.5 0.555,-21.383 0.594,-32.598 H 2361.75 c 0.051,11.215 0.293,22.09 0.75,32.598 z" /></g><g
         id="g682"><path
           id="path684"
           style="fill:#6500aa;fill-opacity:1;fill-rule:nonzero;stroke:#137ab5;stroke-width:4.0725;stroke-linecap:square;stroke-linejoin:miter;stroke-miterlimit:4;stroke-dasharray:none;stroke-opacity:1"
           d="m 2532.148,738.227 30.829,-30.836 10.453,10.359 -10.453,10.184 10.32,-10.184 -10.32,-10.32 z m -20.503,-0.145 10.179,10.465 10.324,-10.32 -10.324,10.32 z m 41.144,0.145 -10.289,10.32 -42.188,-42.266 42.188,42.266 z m -52.5,-31.946 -9.285,-9.343 10.32,-10.051 -10.32,10.051 z m 31.867,-30 30.828,31.106 z m 30.828,31.106 10.454,-10.321 -10.176,-10.187 10.176,10.187 z m -10.187,-31.106 -10.297,-10.035 -10.32,10.043 10.32,-10.043 z m -20.641,0 -10.328,-10.176 z m 0,0 -41.152,41.25 10.32,10.321 -10.32,-10.321 z m -10.328,-10.176 -10.176,10.176 10.176,-10.176 10.328,10.176 z" /></g><g
         id="g686"><path
           id="path688"
           style="fill:#6500aa;fill-opacity:1;fill-rule:nonzero;stroke:#137ab5;stroke-width:4.0725;stroke-linecap:square;stroke-linejoin:miter;stroke-miterlimit:4;stroke-dasharray:none;stroke-opacity:1"
           d="m 2537.016,707.363 -4.887,-8.422 -4.856,8.422 4.856,8.348 z m 0,-49.605 -4.887,-8.422 -4.856,8.414 4.856,8.355 z m 0,99.883 -4.887,-8.391 -4.856,8.422 4.856,8.348 z" /></g><g
         id="g690"><path
           id="path692"
           style="fill:#6500aa;fill-opacity:1;fill-rule:nonzero;stroke:#137ab5;stroke-width:4.0725;stroke-linecap:square;stroke-linejoin:miter;stroke-miterlimit:4;stroke-dasharray:none;stroke-opacity:1"
           d="m 2578.934,712.199 8.418,-4.89 -8.418,-4.852 -8.356,4.852 z m -93.653,0 8.418,-4.89 -8.418,-4.852 -8.355,4.852 z" /></g><g
         id="g694"><path
           id="path696"
           style="fill:#ffffff;fill-opacity:1;fill-rule:nonzero;stroke:#000000;stroke-width:4.875;stroke-linecap:square;stroke-linejoin:miter;stroke-miterlimit:4;stroke-dasharray:none;stroke-opacity:1"
           d="M 2682.398,478.363 C 2654.496,388.02 2599.734,308.25 2535,308.25 c -65.211,0 -123.441,80.949 -153.09,172.102 29.113,35.73 85.168,59.785 149.016,59.785 66,0 122.394,-25.254 151.5,-61.758 z" /></g><g
         id="g698"><path
           id="path700"
           style="fill:#ead668;fill-opacity:1;fill-rule:nonzero;stroke:#000000;stroke-width:6.5775;stroke-linecap:square;stroke-linejoin:miter;stroke-miterlimit:4;stroke-dasharray:none;stroke-opacity:1"
           d="m 2620.141,423 c 0,-35.59 -21.434,-67.676 -54.313,-81.297 -32.879,-13.621 -70.726,-6.098 -95.894,19.07 -25.164,25.165 -32.696,63.008 -19.079,95.891 13.622,32.879 45.707,54.32 81.293,54.32 48.594,0 87.989,-39.39 87.993,-87.984 z" /></g><g
         id="g702"><path
           id="path704"
           style="fill:#ffcfbf;fill-opacity:1;fill-rule:nonzero;stroke:#000000;stroke-width:6.5775;stroke-linecap:square;stroke-linejoin:miter;stroke-miterlimit:4;stroke-dasharray:none;stroke-opacity:1"
           d="m 2605.883,431.086 c 0,-44.867 -73.735,-77.379 -73.735,-77.379 0,0 -78.75,32.512 -78.75,77.379 0,44.863 33.864,81.23 78.75,81.23 44.891,0 73.735,-36.367 73.735,-81.23 z" /></g><path
         id="path706"
         style="fill:#000000;fill-opacity:1;fill-rule:nonzero;stroke:none"
         d="m 2585.43,420.234 c -8.766,-8.672 -22.875,-8.672 -31.641,0 -4.477,4.422 -6.988,10.454 -6.977,16.746 v 2.114 c 0,1.965 3.442,1.816 3.692,-0.098 0.465,-3.094 2.027,-5.922 4.402,-7.965 2.598,5.813 8.387,9.543 14.75,9.508 6.367,-0.031 12.114,-3.82 14.656,-9.656 2.45,2.035 4.012,4.945 4.352,8.113 0.199,1.965 3.688,2.063 3.688,0.098 v -2.114 c 0.01,-6.281 -2.481,-12.304 -6.922,-16.746 z m 0.75,-7.5 c -3.703,-11.964 -28.051,-27.953 -37.582,0.368 11.855,-13.465 29.902,-8.036 37.59,-0.391 l -0.01,0.023 z" /><path
         id="path708"
         style="fill:#000000;fill-opacity:1;fill-rule:nonzero;stroke:none"
         d="m 2507.766,420.234 c -8.762,-8.668 -22.868,-8.668 -31.633,0 -4.477,4.422 -6.988,10.454 -6.977,16.746 v 2.114 c 0,1.965 3.438,1.816 3.692,-0.098 0.464,-3.094 2.023,-5.918 4.394,-7.965 2.606,5.813 8.391,9.539 14.758,9.508 6.367,-0.035 12.113,-3.82 14.656,-9.656 2.453,2.035 4.012,4.945 4.352,8.113 0.203,1.965 3.691,2.063 3.691,0.098 v -2.114 c 0,-6.281 -2.488,-12.308 -6.933,-16.746 z m -34.633,-7.5 c 3.703,-11.964 28.051,-27.953 37.582,0.368 -11.852,-13.465 -29.856,-8.036 -37.582,-0.391 z" /><g
         id="g710"><path
           id="path712"
           style="fill:none;stroke:#000000;stroke-width:3.75;stroke-linecap:butt;stroke-linejoin:miter;stroke-miterlimit:10;stroke-dasharray:none;stroke-opacity:1"
           d="m 2552.324,480.391 c -14.183,8.25 -24.172,8.129 -40.34,0.164" /></g><path
         id="path714"
         style="fill:#db004c;fill-opacity:1;fill-rule:nonzero;stroke:none"
         d="m 2538,478.719 c -2.676,-2.395 -4.988,1.23 -5.762,3.125 -0.785,-1.895 -1.949,-5.25 -5.25,-3.125 -2.863,1.98 3.211,8.25 3.211,8.25 0,0 -2.437,3.621 -1.898,6.328 1.359,5.894 6.691,5.894 7.929,0 0.571,-2.731 -1.929,-6.328 -1.929,-6.328 0,0 6.347,-5.86 3.699,-8.25 z m -5.789,9.531 c -0.113,-1.5 -0.789,-1.094 -2.055,-1.32 1.125,-0.203 1.957,-0.09 2.063,-1.582 0.109,1.5 0.75,1.355 2.039,1.582 -1.141,0.242 -1.942,-0.133 -2.047,1.32 z" /><path
         id="path716"
         style="fill:#000000;fill-opacity:1;fill-rule:nonzero;stroke:none"
         d="m 2537.551,468.66 c 2.672,0 4.011,-3.23 2.121,-5.121 -1.891,-1.891 -5.121,-0.551 -5.121,2.121 0,1.656 1.344,3 3,3 z m -10.801,0 c 2.672,0 4.012,-3.23 2.121,-5.121 -1.891,-1.891 -5.121,-0.551 -5.121,2.121 0,1.656 1.344,3 3,3 z" /><g
         id="g718"><path
           id="path720"
           style="fill:#ffffff;fill-opacity:1;fill-rule:nonzero;stroke:#000000;stroke-width:3.6675;stroke-linecap:round;stroke-linejoin:round;stroke-miterlimit:4;stroke-dasharray:none;stroke-opacity:1"
           d="m 2566.824,532.109 c -9.879,-5.707 -16.097,-6.539 -22.765,-5.398 -1.364,0.223 -10.895,2.926 -12.329,3.301 -0.269,0.066 37.012,18.297 37.012,18.297 l -37.012,-18.297 28.067,28.574 c 0,0 -27.992,-28.598 -28.067,-28.574 -0.945,15.297 -0.847,30.312 13.899,38.816 18.141,10.5 33,10.164 52.176,5.86 -5.926,-18.344 -12.946,-32.168 -30.981,-42.579 z" /></g><g
         id="g722"><path
           id="path724"
           style="fill:#ffffff;fill-opacity:1;fill-rule:nonzero;stroke:#000000;stroke-width:3.6675;stroke-linecap:round;stroke-linejoin:round;stroke-miterlimit:4;stroke-dasharray:none;stroke-opacity:1"
           d="m 2504.062,542.676 c 7.5,-7.5 12.84,-9.75 19.086,-10.297 1.27,-0.117 10.45,0 11.821,0 0.265,0 -28.731,25.254 -28.731,25.254 l 28.762,-25.254 -18.262,32.312 c 0,0 18.196,-32.312 18.262,-32.312 4.5,13.465 8.031,26.926 -3.121,38.078 -13.731,13.734 -27.133,17.02 -45.301,17.754 0.871,-17.836 3.844,-31.891 17.484,-45.535 z" /></g><g
         id="g726"><path
           id="path728"
           style="fill:#ffffff;fill-opacity:1;fill-rule:nonzero;stroke:#000000;stroke-width:3.21;stroke-linecap:square;stroke-linejoin:miter;stroke-miterlimit:4;stroke-dasharray:none;stroke-opacity:1"
           d="m 2550.57,525.75 c 0,-7.754 -4.672,-14.742 -11.836,-17.711 -7.16,-2.969 -15.406,-1.328 -20.89,4.156 -5.481,5.481 -7.121,13.727 -4.156,20.891 2.968,7.164 9.957,11.836 17.71,11.836 10.59,0 19.172,-8.586 19.172,-19.172 z" /></g><g
         id="g730"><path
           id="path732"
           style="fill:none;stroke:#137ab5;stroke-width:3.4425;stroke-linecap:square;stroke-linejoin:miter;stroke-miterlimit:4;stroke-dasharray:none;stroke-opacity:1"
           d="m 2412,658.793 9.203,-9.129 9.953,9.129 10.305,-9.129 8.797,9.129 m -29.055,8.934 9.66,-8.934 8.473,8.934" /></g><g
         id="g734"><path
           id="path736"
           style="fill:none;stroke:#137ab5;stroke-width:3.4425;stroke-linecap:square;stroke-linejoin:miter;stroke-miterlimit:4;stroke-dasharray:none;stroke-opacity:1"
           d="m 2452.746,735.75 -9.199,9.129 -9.953,-9.129 -10.305,9.129 -8.801,-9.129 m 29.059,-9 -9.66,9 -8.477,-9" /></g><g
         id="g738"><path
           id="path740"
           style="fill:none;stroke:#137ab5;stroke-width:3.4425;stroke-linecap:square;stroke-linejoin:miter;stroke-miterlimit:4;stroke-dasharray:none;stroke-opacity:1"
           d="m 2614.266,656.406 9.234,-9.156 9.953,9.129 10.297,-9.129 8.797,9.129 m -29.047,8.961 9.66,-8.934 8.477,8.934" /></g><g
         id="g742"><path
           id="path744"
           style="fill:none;stroke:#137ab5;stroke-width:3.4425;stroke-linecap:square;stroke-linejoin:miter;stroke-miterlimit:4;stroke-dasharray:none;stroke-opacity:1"
           d="m 2652.516,738.098 -9.2,9.129 -9.953,-9.129 -10.304,9.129 -8.797,-9.129 m 29.054,-8.934 -9.66,8.934 -8.476,-8.934" /></g><g
         id="g746"><path
           id="path748"
           style="fill:none;stroke:#137ab5;stroke-width:3.4425;stroke-linecap:square;stroke-linejoin:miter;stroke-miterlimit:4;stroke-dasharray:none;stroke-opacity:1"
           d="m 2419.867,560.934 8.633,-8.528 9.301,8.528 9.629,-8.528 8.25,8.528 m -27.18,8.355 9,-8.355 7.926,8.355 m 163.5,-10.586 8.574,-8.531 9.309,8.531 9.629,-8.531 8.25,8.531 m -27.188,8.348 9,-8.348 7.926,8.348" /></g><g
         id="g750"><path
           id="path752"
           style="fill:none;stroke:#137ab5;stroke-width:3.4425;stroke-linecap:square;stroke-linejoin:miter;stroke-miterlimit:4;stroke-dasharray:none;stroke-opacity:1"
           d="m 2461.77,511.926 -12.106,4.636 -5.414,-12.374 -13.109,4.183 -4.36,-11.871 m 30.188,3.578 -12.449,4.266 -4.141,-11.602" /></g><g
         id="g754"><path
           id="path756"
           style="fill:none;stroke:#137ab5;stroke-width:3.4425;stroke-linecap:square;stroke-linejoin:miter;stroke-miterlimit:4;stroke-dasharray:none;stroke-opacity:1"
           d="m 2503.5,524.797 -11.094,6.707 -7.5,-11.25 -12.156,6.457 -6.391,-10.949 m 30.344,-1.809 -11.496,6.391 -6.129,-10.68" /></g><g
         id="g758"><path
           id="path760"
           style="fill:none;stroke:#137ab5;stroke-width:3.4425;stroke-linecap:square;stroke-linejoin:miter;stroke-miterlimit:4;stroke-dasharray:none;stroke-opacity:1"
           d="m 2422.656,491.191 -12.867,1.5 -2.207,-13.328 -13.738,0.832 -1.293,-12.617 m 28.375,10.922 -13.11,1.074 -1.164,-12.258" /></g><g
         id="g762"><path
           id="path764"
           style="fill:none;stroke:#137ab5;stroke-width:3.4425;stroke-linecap:square;stroke-linejoin:miter;stroke-miterlimit:4;stroke-dasharray:none;stroke-opacity:1"
           d="m 2604.398,511.926 12.106,4.636 5.414,-12.374 13.117,4.183 4.352,-11.91 m -30.188,3.578 12.449,4.27 4.149,-11.606" /></g><g
         id="g766"><path
           id="path768"
           style="fill:none;stroke:#137ab5;stroke-width:3.4425;stroke-linecap:square;stroke-linejoin:miter;stroke-miterlimit:4;stroke-dasharray:none;stroke-opacity:1"
           d="m 2562.645,524.797 11.101,6.707 7.5,-11.25 12.18,6.434 6.383,-10.95 m -30.309,-1.785 11.496,6.391 6.129,-10.68" /></g><g
         id="g770"><path
           id="path772"
           style="fill:none;stroke:#137ab5;stroke-width:3.4425;stroke-linecap:square;stroke-linejoin:miter;stroke-miterlimit:4;stroke-dasharray:none;stroke-opacity:1"
           d="m 2643.512,491.191 12.867,1.5 2.207,-13.328 13.746,0.832 1.289,-12.617 m -28.371,10.922 13.109,1.074 1.172,-12.258" /></g></g></g></svg>
