<?xml version="1.0" encoding="UTF-8" standalone="no"?>
<!DOCTYPE svg PUBLIC "-//W3C//DTD SVG 1.1//EN"
 "http://www.w3.org/Graphics/SVG/1.1/DTD/svg11.dtd">
<!-- Generated by graphviz version 2.38.0 (20140413.2041)
 -->
<!-- Title: RFC Pages: 1 -->
<svg width="1274pt" height="1203pt"
 viewBox="0.00 0.00 1273.50 1203.00" xmlns="http://www.w3.org/2000/svg" xmlns:xlink="http://www.w3.org/1999/xlink">
<g id="graph0" class="graph" transform="scale(1 1) rotate(0) translate(4 1199)">
<title>RFC</title>
<polygon fill="white" stroke="none" points="-4,4 -4,-1199 1269.5,-1199 1269.5,4 -4,4"/>
<!-- 1988 -->
<g id="node1" class="node"><title>1988</title>
<text text-anchor="middle" x="27" y="-1160.3" font-family="Times,serif" font-size="14.00">1988</text>
</g>
<!-- 1994 -->
<g id="node2" class="node"><title>1994</title>
<text text-anchor="middle" x="27" y="-1061.3" font-family="Times,serif" font-size="14.00">1994</text>
</g>
<!-- 1988&#45;&gt;1994 -->
<g id="edge1" class="edge"><title>1988&#45;&gt;1994</title>
<path fill="none" stroke="black" d="M27,-1145.66C27,-1131.18 27,-1110.26 27,-1093.5"/>
<polygon fill="black" stroke="black" points="30.5001,-1093.19 27,-1083.19 23.5001,-1093.19 30.5001,-1093.19"/>
</g>
<!-- 1995 -->
<g id="node3" class="node"><title>1995</title>
<text text-anchor="middle" x="27" y="-962.3" font-family="Times,serif" font-size="14.00">1995</text>
</g>
<!-- 1994&#45;&gt;1995 -->
<g id="edge2" class="edge"><title>1994&#45;&gt;1995</title>
<path fill="none" stroke="black" d="M27,-1046.66C27,-1032.18 27,-1011.26 27,-994.499"/>
<polygon fill="black" stroke="black" points="30.5001,-994.191 27,-984.192 23.5001,-994.192 30.5001,-994.191"/>
</g>
<!-- 1998 -->
<g id="node4" class="node"><title>1998</title>
<text text-anchor="middle" x="27" y="-855.8" font-family="Times,serif" font-size="14.00">1998</text>
</g>
<!-- 1995&#45;&gt;1998 -->
<g id="edge3" class="edge"><title>1995&#45;&gt;1998</title>
<path fill="none" stroke="black" d="M27,-947.744C27,-931.483 27,-906.853 27,-887.904"/>
<polygon fill="black" stroke="black" points="30.5001,-887.782 27,-877.782 23.5001,-887.782 30.5001,-887.782"/>
</g>
<!-- 1999 -->
<g id="node5" class="node"><title>1999</title>
<text text-anchor="middle" x="27" y="-735.3" font-family="Times,serif" font-size="14.00">1999</text>
</g>
<!-- 1998&#45;&gt;1999 -->
<g id="edge4" class="edge"><title>1998&#45;&gt;1999</title>
<path fill="none" stroke="black" d="M27,-841.269C27,-821.874 27,-790.103 27,-767.317"/>
<polygon fill="black" stroke="black" points="30.5001,-767.252 27,-757.252 23.5001,-767.252 30.5001,-767.252"/>
</g>
<!-- 2005 -->
<g id="node6" class="node"><title>2005</title>
<text text-anchor="middle" x="27" y="-628.8" font-family="Times,serif" font-size="14.00">2005</text>
</g>
<!-- 1999&#45;&gt;2005 -->
<g id="edge5" class="edge"><title>1999&#45;&gt;2005</title>
<path fill="none" stroke="black" d="M27,-720.744C27,-704.483 27,-679.853 27,-660.904"/>
<polygon fill="black" stroke="black" points="30.5001,-660.782 27,-650.782 23.5001,-660.782 30.5001,-660.782"/>
</g>
<!-- 2010 -->
<g id="node7" class="node"><title>2010</title>
<text text-anchor="middle" x="27" y="-522.3" font-family="Times,serif" font-size="14.00">2010</text>
</g>
<!-- 2005&#45;&gt;2010 -->
<g id="edge6" class="edge"><title>2005&#45;&gt;2010</title>
<path fill="none" stroke="black" d="M27,-614.244C27,-597.983 27,-573.353 27,-554.404"/>
<polygon fill="black" stroke="black" points="30.5001,-554.282 27,-544.282 23.5001,-554.282 30.5001,-554.282"/>
</g>
<!-- 2011 -->
<g id="node8" class="node"><title>2011</title>
<text text-anchor="middle" x="27" y="-423.3" font-family="Times,serif" font-size="14.00">2011</text>
</g>
<!-- 2010&#45;&gt;2011 -->
<g id="edge7" class="edge"><title>2010&#45;&gt;2011</title>
<path fill="none" stroke="black" d="M27,-507.658C27,-493.175 27,-472.263 27,-455.499"/>
<polygon fill="black" stroke="black" points="30.5001,-455.191 27,-445.192 23.5001,-455.192 30.5001,-455.191"/>
</g>
<!-- 2013 -->
<g id="node9" class="node"><title>2013</title>
<text text-anchor="middle" x="27" y="-309.3" font-family="Times,serif" font-size="14.00">2013</text>
</g>
<!-- 2011&#45;&gt;2013 -->
<g id="edge8" class="edge"><title>2011&#45;&gt;2013</title>
<path fill="none" stroke="black" d="M27,-408.99C27,-391.063 27,-362.555 27,-341.442"/>
<polygon fill="black" stroke="black" points="30.5001,-341.17 27,-331.17 23.5001,-341.171 30.5001,-341.17"/>
</g>
<!-- 2014 -->
<g id="node10" class="node"><title>2014</title>
<text text-anchor="middle" x="27" y="-202.8" font-family="Times,serif" font-size="14.00">2014</text>
</g>
<!-- 2013&#45;&gt;2014 -->
<g id="edge9" class="edge"><title>2013&#45;&gt;2014</title>
<path fill="none" stroke="black" d="M27,-294.744C27,-278.483 27,-253.853 27,-234.904"/>
<polygon fill="black" stroke="black" points="30.5001,-234.782 27,-224.782 23.5001,-234.782 30.5001,-234.782"/>
</g>
<!-- 2017 -->
<g id="node11" class="node"><title>2017</title>
<text text-anchor="middle" x="27" y="-111.3" font-family="Times,serif" font-size="14.00">2017</text>
</g>
<!-- 2014&#45;&gt;2017 -->
<g id="edge10" class="edge"><title>2014&#45;&gt;2017</title>
<path fill="none" stroke="black" d="M27,-188.243C27,-175.49 27,-157.874 27,-143.229"/>
<polygon fill="black" stroke="black" points="30.5001,-143.203 27,-133.204 23.5001,-143.204 30.5001,-143.203"/>
</g>
<!-- 2020 -->
<g id="node12" class="node"><title>2020</title>
<text text-anchor="middle" x="27" y="-19.8" font-family="Times,serif" font-size="14.00">2020</text>
</g>
<!-- 2017&#45;&gt;2020 -->
<g id="edge11" class="edge"><title>2017&#45;&gt;2020</title>
<path fill="none" stroke="black" d="M27,-96.7435C27,-83.9905 27,-66.3736 27,-51.7294"/>
<polygon fill="black" stroke="black" points="30.5001,-51.7035 27,-41.7035 23.5001,-51.7036 30.5001,-51.7035"/>
</g>
<!-- RFC1647 -->
<g id="node13" class="node"><title>RFC1647</title>
<polygon fill="none" stroke="red" points="72,-1042 72,-1088 218,-1088 218,-1042 72,-1042"/>
<text text-anchor="middle" x="145" y="-1072.8" font-family="Times,serif" font-size="14.00" fill="red">1647</text>
<polyline fill="none" stroke="red" points="72,-1065 218,-1065 "/>
<text text-anchor="middle" x="145" y="-1049.8" font-family="Times,serif" font-size="14.00" fill="red">TN3270 Enhancements</text>
</g>
<!-- RFC2355 -->
<g id="node21" class="node"><title>RFC2355</title>
<polygon fill="none" stroke="black" points="72,-836.5 72,-882.5 218,-882.5 218,-836.5 72,-836.5"/>
<text text-anchor="middle" x="145" y="-867.3" font-family="Times,serif" font-size="14.00">2355</text>
<polyline fill="none" stroke="black" points="72,-859.5 218,-859.5 "/>
<text text-anchor="middle" x="145" y="-844.3" font-family="Times,serif" font-size="14.00">TN3270 Enhancements</text>
</g>
<!-- RFC1647&#45;&gt;RFC2355 -->
<g id="edge27" class="edge"><title>RFC1647&#45;&gt;RFC2355</title>
<path fill="none" stroke="red" d="M145,-1041.83C145,-1005.82 145,-934.457 145,-892.799"/>
<polygon fill="red" stroke="red" points="148.5,-892.638 145,-882.638 141.5,-892.638 148.5,-892.638"/>
<text text-anchor="middle" x="181.5" y="-962.3" font-family="Times,serif" font-size="14.00">obsoleted by</text>
</g>
<!-- RFC1738 -->
<g id="node14" class="node"><title>RFC1738</title>
<polygon fill="none" stroke="red" points="729,-1034.5 729,-1095.5 849,-1095.5 849,-1034.5 729,-1034.5"/>
<text text-anchor="middle" x="789" y="-1080.3" font-family="Times,serif" font-size="14.00" fill="red">1738</text>
<polyline fill="none" stroke="red" points="729,-1072.5 849,-1072.5 "/>
<text text-anchor="middle" x="789" y="-1057.3" font-family="Times,serif" font-size="14.00" fill="red">Uniform Resource</text>
<text text-anchor="middle" x="789" y="-1042.3" font-family="Times,serif" font-size="14.00" fill="red">Locators (URL)</text>
</g>
<!-- RFC1808 -->
<g id="node15" class="node"><title>RFC1808</title>
<polygon fill="none" stroke="red" points="629,-935.5 629,-996.5 753,-996.5 753,-935.5 629,-935.5"/>
<text text-anchor="middle" x="691" y="-981.3" font-family="Times,serif" font-size="14.00" fill="red">1808</text>
<polyline fill="none" stroke="red" points="629,-973.5 753,-973.5 "/>
<text text-anchor="middle" x="691" y="-958.3" font-family="Times,serif" font-size="14.00" fill="red">Relative Uniform</text>
<text text-anchor="middle" x="691" y="-943.3" font-family="Times,serif" font-size="14.00" fill="red">Resource Locators</text>
</g>
<!-- RFC1738&#45;&gt;RFC1808 -->
<g id="edge13" class="edge"><title>RFC1738&#45;&gt;RFC1808</title>
<path fill="none" stroke="black" stroke-dasharray="5,2" d="M759.064,-1034.37C749.371,-1024.78 738.499,-1014.01 728.337,-1003.96"/>
<polygon fill="black" stroke="black" points="730.66,-1001.33 721.09,-996.783 725.735,-1006.31 730.66,-1001.33"/>
</g>
<!-- RFC2368 -->
<g id="node16" class="node"><title>RFC2368</title>
<polygon fill="none" stroke="red" points="817,-829 817,-890 907,-890 907,-829 817,-829"/>
<text text-anchor="middle" x="862" y="-874.8" font-family="Times,serif" font-size="14.00" fill="red">2368</text>
<polyline fill="none" stroke="red" points="817,-867 907,-867 "/>
<text text-anchor="middle" x="862" y="-851.8" font-family="Times,serif" font-size="14.00" fill="red">The mailto</text>
<text text-anchor="middle" x="862" y="-836.8" font-family="Times,serif" font-size="14.00" fill="red">URL scheme</text>
</g>
<!-- RFC1738&#45;&gt;RFC2368 -->
<g id="edge14" class="edge"><title>RFC1738&#45;&gt;RFC2368</title>
<path fill="none" stroke="black" stroke-dasharray="5,2" d="M799.615,-1034.41C812.374,-998.841 833.827,-939.037 847.95,-899.668"/>
<polygon fill="black" stroke="black" points="851.29,-900.721 851.372,-890.126 844.701,-898.357 851.29,-900.721"/>
</g>
<!-- RFC2396 -->
<g id="node17" class="node"><title>RFC2396</title>
<polygon fill="none" stroke="red" points="406,-821.5 406,-897.5 526,-897.5 526,-821.5 406,-821.5"/>
<text text-anchor="middle" x="466" y="-882.3" font-family="Times,serif" font-size="14.00" fill="red">2396</text>
<polyline fill="none" stroke="red" points="406,-874.5 526,-874.5 "/>
<text text-anchor="middle" x="466" y="-859.3" font-family="Times,serif" font-size="14.00" fill="red">Uniform Resource</text>
<text text-anchor="middle" x="466" y="-844.3" font-family="Times,serif" font-size="14.00" fill="red">Identifiers (URI):</text>
<text text-anchor="middle" x="466" y="-829.3" font-family="Times,serif" font-size="14.00" fill="red">Generic Syntax</text>
</g>
<!-- RFC1738&#45;&gt;RFC2396 -->
<g id="edge15" class="edge"><title>RFC1738&#45;&gt;RFC2396</title>
<path fill="none" stroke="black" stroke-dasharray="5,2" d="M728.726,-1045.83C695.345,-1034.39 653.875,-1017.83 620,-997 578.338,-971.38 537.195,-934.126 507.93,-905.008"/>
<polygon fill="black" stroke="black" points="510.287,-902.414 500.753,-897.793 505.324,-907.351 510.287,-902.414"/>
</g>
<!-- RFC3986 -->
<g id="node23" class="node"><title>RFC3986</title>
<polygon fill="none" stroke="black" points="406,-594.5 406,-670.5 526,-670.5 526,-594.5 406,-594.5"/>
<text text-anchor="middle" x="466" y="-655.3" font-family="Times,serif" font-size="14.00">3986</text>
<polyline fill="none" stroke="black" points="406,-647.5 526,-647.5 "/>
<text text-anchor="middle" x="466" y="-632.3" font-family="Times,serif" font-size="14.00">Uniform Resource</text>
<text text-anchor="middle" x="466" y="-617.3" font-family="Times,serif" font-size="14.00">Identifiers (URI):</text>
<text text-anchor="middle" x="466" y="-602.3" font-family="Times,serif" font-size="14.00">Generic Syntax</text>
</g>
<!-- RFC1738&#45;&gt;RFC3986 -->
<g id="edge16" class="edge"><title>RFC1738&#45;&gt;RFC3986</title>
<path fill="none" stroke="black" stroke-dasharray="5,2" d="M728.797,-1062.22C614.638,-1057.2 378,-1038.21 378,-967 378,-967 378,-967 378,-738 378,-715.066 390.554,-694.549 406.178,-677.895"/>
<polygon fill="black" stroke="black" points="408.952,-680.07 413.539,-670.52 403.998,-675.125 408.952,-680.07"/>
</g>
<!-- RFC4248 -->
<g id="node25" class="node"><title>RFC4248</title>
<polygon fill="none" stroke="black" points="744.5,-602 744.5,-663 833.5,-663 833.5,-602 744.5,-602"/>
<text text-anchor="middle" x="789" y="-647.8" font-family="Times,serif" font-size="14.00">4248</text>
<polyline fill="none" stroke="black" points="744.5,-640 833.5,-640 "/>
<text text-anchor="middle" x="789" y="-624.8" font-family="Times,serif" font-size="14.00">The telnet</text>
<text text-anchor="middle" x="789" y="-609.8" font-family="Times,serif" font-size="14.00">URI Scheme</text>
</g>
<!-- RFC1738&#45;&gt;RFC4248 -->
<g id="edge28" class="edge"><title>RFC1738&#45;&gt;RFC4248</title>
<path fill="none" stroke="red" d="M789,-1034.28C789,-1015.08 789,-989.566 789,-967 789,-967 789,-967 789,-738 789,-716.624 789,-692.788 789,-673.285"/>
<polygon fill="red" stroke="red" points="792.5,-673.229 789,-663.229 785.5,-673.229 792.5,-673.229"/>
</g>
<!-- RFC4266 -->
<g id="node26" class="node"><title>RFC4266</title>
<polygon fill="none" stroke="black" points="890.5,-602 890.5,-663 979.5,-663 979.5,-602 890.5,-602"/>
<text text-anchor="middle" x="935" y="-647.8" font-family="Times,serif" font-size="14.00">4266</text>
<polyline fill="none" stroke="black" points="890.5,-640 979.5,-640 "/>
<text text-anchor="middle" x="935" y="-624.8" font-family="Times,serif" font-size="14.00">The gopher</text>
<text text-anchor="middle" x="935" y="-609.8" font-family="Times,serif" font-size="14.00">URI Scheme</text>
</g>
<!-- RFC1738&#45;&gt;RFC4266 -->
<g id="edge29" class="edge"><title>RFC1738&#45;&gt;RFC4266</title>
<path fill="none" stroke="red" d="M849.227,-1049.42C889.444,-1035.68 935,-1010.52 935,-967 935,-967 935,-967 935,-738 935,-716.624 935,-692.788 935,-673.285"/>
<polygon fill="red" stroke="red" points="938.5,-673.229 935,-663.229 931.5,-673.229 938.5,-673.229"/>
</g>
<!-- RFC6196 -->
<g id="node28" class="node"><title>RFC6196</title>
<polygon fill="none" stroke="black" points="932,-396.5 932,-457.5 1084,-457.5 1084,-396.5 932,-396.5"/>
<text text-anchor="middle" x="1008" y="-442.3" font-family="Times,serif" font-size="14.00">6196</text>
<polyline fill="none" stroke="black" points="932,-434.5 1084,-434.5 "/>
<text text-anchor="middle" x="1008" y="-419.3" font-family="Times,serif" font-size="14.00">Moving mailserver:</text>
<text text-anchor="middle" x="1008" y="-404.3" font-family="Times,serif" font-size="14.00">URI Scheme to Historic</text>
</g>
<!-- RFC1738&#45;&gt;RFC6196 -->
<g id="edge17" class="edge"><title>RFC1738&#45;&gt;RFC6196</title>
<path fill="none" stroke="black" stroke-dasharray="5,2" d="M849.132,-1062.23C913.965,-1056.74 1008,-1036.76 1008,-967 1008,-967 1008,-967 1008,-525 1008,-506.313 1008,-485.6 1008,-468.129"/>
<polygon fill="black" stroke="black" points="1011.5,-467.717 1008,-457.717 1004.5,-467.717 1011.5,-467.717"/>
</g>
<!-- RFC6270 -->
<g id="node29" class="node"><title>RFC6270</title>
<polygon fill="none" stroke="black" points="201.5,-396.5 201.5,-457.5 290.5,-457.5 290.5,-396.5 201.5,-396.5"/>
<text text-anchor="middle" x="246" y="-442.3" font-family="Times,serif" font-size="14.00">6270</text>
<polyline fill="none" stroke="black" points="201.5,-434.5 290.5,-434.5 "/>
<text text-anchor="middle" x="246" y="-419.3" font-family="Times,serif" font-size="14.00">The &#39;tn3270&#39;</text>
<text text-anchor="middle" x="246" y="-404.3" font-family="Times,serif" font-size="14.00">URI Scheme</text>
</g>
<!-- RFC1738&#45;&gt;RFC6270 -->
<g id="edge18" class="edge"><title>RFC1738&#45;&gt;RFC6270</title>
<path fill="none" stroke="black" stroke-dasharray="5,2" d="M728.816,-1063.87C603.269,-1061.98 325,-1048.58 325,-967 325,-967 325,-967 325,-525 325,-501.834 311.285,-481.133 295.285,-464.865"/>
<polygon fill="black" stroke="black" points="297.456,-462.098 287.813,-457.709 292.614,-467.154 297.456,-462.098"/>
</g>
<!-- RFC8089 -->
<g id="node31" class="node"><title>RFC8089</title>
<polygon fill="none" stroke="black" points="1067.5,-84.5 1067.5,-145.5 1156.5,-145.5 1156.5,-84.5 1067.5,-84.5"/>
<text text-anchor="middle" x="1112" y="-130.3" font-family="Times,serif" font-size="14.00">8089</text>
<polyline fill="none" stroke="black" points="1067.5,-122.5 1156.5,-122.5 "/>
<text text-anchor="middle" x="1112" y="-107.3" font-family="Times,serif" font-size="14.00">The &#39;file&#39;</text>
<text text-anchor="middle" x="1112" y="-92.3" font-family="Times,serif" font-size="14.00">URI Scheme</text>
</g>
<!-- RFC1738&#45;&gt;RFC8089 -->
<g id="edge19" class="edge"><title>RFC1738&#45;&gt;RFC8089</title>
<path fill="none" stroke="black" stroke-dasharray="5,2" d="M849.375,-1058.3C942.863,-1047.77 1112,-1021.23 1112,-967 1112,-967 1112,-967 1112,-205.5 1112,-189.34 1112,-171.539 1112,-156.098"/>
<polygon fill="black" stroke="black" points="1115.5,-155.833 1112,-145.833 1108.5,-155.833 1115.5,-155.833"/>
</g>
<!-- RFC1808&#45;&gt;RFC2368 -->
<g id="edge20" class="edge"><title>RFC1808&#45;&gt;RFC2368</title>
<path fill="none" stroke="black" stroke-dasharray="5,2" d="M739.544,-935.334C760.988,-922.23 786.272,-906.778 808.28,-893.329"/>
<polygon fill="black" stroke="black" points="810.147,-896.29 816.855,-888.089 806.497,-890.317 810.147,-896.29"/>
</g>
<!-- RFC1808&#45;&gt;RFC2396 -->
<g id="edge21" class="edge"><title>RFC1808&#45;&gt;RFC2396</title>
<path fill="none" stroke="black" stroke-dasharray="5,2" d="M628.922,-936.168C599.923,-922.7 565.289,-906.614 535.425,-892.744"/>
<polygon fill="black" stroke="black" points="536.865,-889.554 526.321,-888.516 533.917,-895.903 536.865,-889.554"/>
</g>
<!-- RFC1808&#45;&gt;RFC3986 -->
<g id="edge30" class="edge"><title>RFC1808&#45;&gt;RFC3986</title>
<path fill="none" stroke="red" d="M697.105,-935.4C706.038,-883.252 716.309,-774.271 663,-708 630.67,-667.809 601.169,-689.446 553,-671 547.254,-668.8 541.331,-666.442 535.403,-664.019"/>
<polygon fill="red" stroke="red" points="536.689,-660.764 526.11,-660.173 534.011,-667.231 536.689,-660.764"/>
</g>
<!-- RFC6068 -->
<g id="node27" class="node"><title>RFC6068</title>
<polygon fill="none" stroke="black" points="817.5,-495.5 817.5,-556.5 906.5,-556.5 906.5,-495.5 817.5,-495.5"/>
<text text-anchor="middle" x="862" y="-541.3" font-family="Times,serif" font-size="14.00">6068</text>
<polyline fill="none" stroke="black" points="817.5,-533.5 906.5,-533.5 "/>
<text text-anchor="middle" x="862" y="-518.3" font-family="Times,serif" font-size="14.00">The &#39;mailto&#39;</text>
<text text-anchor="middle" x="862" y="-503.3" font-family="Times,serif" font-size="14.00">URI Scheme</text>
</g>
<!-- RFC2368&#45;&gt;RFC6068 -->
<g id="edge31" class="edge"><title>RFC2368&#45;&gt;RFC6068</title>
<path fill="none" stroke="red" d="M862,-828.79C862,-769.053 862,-634.367 862,-566.978"/>
<polygon fill="red" stroke="red" points="865.5,-566.763 862,-556.763 858.5,-566.763 865.5,-566.763"/>
</g>
<!-- RFC2732 -->
<g id="node18" class="node"><title>RFC2732</title>
<polygon fill="none" stroke="red" points="494,-708.5 494,-769.5 654,-769.5 654,-708.5 494,-708.5"/>
<text text-anchor="middle" x="574" y="-754.3" font-family="Times,serif" font-size="14.00" fill="red">2732</text>
<polyline fill="none" stroke="red" points="494,-746.5 654,-746.5 "/>
<text text-anchor="middle" x="574" y="-731.3" font-family="Times,serif" font-size="14.00" fill="red">Format for Literal</text>
<text text-anchor="middle" x="574" y="-716.3" font-family="Times,serif" font-size="14.00" fill="red">IPv6 Addresses in URL&#39;s</text>
</g>
<!-- RFC2396&#45;&gt;RFC2732 -->
<g id="edge23" class="edge"><title>RFC2396&#45;&gt;RFC2732</title>
<path fill="none" stroke="black" stroke-dasharray="5,2" d="M499.876,-821.331C512.716,-807.243 527.327,-791.211 540.164,-777.126"/>
<polygon fill="black" stroke="black" points="542.94,-779.275 547.09,-769.527 537.767,-774.56 542.94,-779.275"/>
</g>
<!-- RFC2396&#45;&gt;RFC3986 -->
<g id="edge32" class="edge"><title>RFC2396&#45;&gt;RFC3986</title>
<path fill="none" stroke="red" d="M466,-821.346C466,-782.914 466,-722.771 466,-680.929"/>
<polygon fill="red" stroke="red" points="469.5,-680.709 466,-670.709 462.5,-680.709 469.5,-680.709"/>
</g>
<!-- RFC2732&#45;&gt;RFC3986 -->
<g id="edge33" class="edge"><title>RFC2732&#45;&gt;RFC3986</title>
<path fill="none" stroke="red" d="M543.34,-708.334C533.511,-698.823 522.403,-688.075 511.736,-677.754"/>
<polygon fill="red" stroke="red" points="514.063,-675.135 504.443,-670.697 509.195,-680.166 514.063,-675.135"/>
</g>
<!-- RFC7320 -->
<g id="node19" class="node"><title>RFC7320</title>
<polygon fill="none" stroke="red" points="452.5,-183.5 452.5,-229.5 623.5,-229.5 623.5,-183.5 452.5,-183.5"/>
<text text-anchor="middle" x="538" y="-214.3" font-family="Times,serif" font-size="14.00" fill="red">7320</text>
<polyline fill="none" stroke="red" points="452.5,-206.5 623.5,-206.5 "/>
<text text-anchor="middle" x="538" y="-191.3" font-family="Times,serif" font-size="14.00" fill="red">URI Design and Ownership</text>
</g>
<!-- RFC8820 -->
<g id="node32" class="node"><title>RFC8820</title>
<polygon fill="none" stroke="black" points="452.5,-0.5 452.5,-46.5 623.5,-46.5 623.5,-0.5 452.5,-0.5"/>
<text text-anchor="middle" x="538" y="-31.3" font-family="Times,serif" font-size="14.00">8820</text>
<polyline fill="none" stroke="black" points="452.5,-23.5 623.5,-23.5 "/>
<text text-anchor="middle" x="538" y="-8.3" font-family="Times,serif" font-size="14.00">URI Design and Ownership</text>
</g>
<!-- RFC7320&#45;&gt;RFC8820 -->
<g id="edge34" class="edge"><title>RFC7320&#45;&gt;RFC8820</title>
<path fill="none" stroke="red" d="M538,-183.306C538,-151.602 538,-93.1608 538,-56.7002"/>
<polygon fill="red" stroke="red" points="541.5,-56.5923 538,-46.5923 534.5,-56.5923 541.5,-56.5923"/>
</g>
<!-- RFC1041 -->
<g id="node20" class="node"><title>RFC1041</title>
<polygon fill="none" stroke="black" points="195.5,-1133.5 195.5,-1194.5 296.5,-1194.5 296.5,-1133.5 195.5,-1133.5"/>
<text text-anchor="middle" x="246" y="-1179.3" font-family="Times,serif" font-size="14.00">1041</text>
<polyline fill="none" stroke="black" points="195.5,-1171.5 296.5,-1171.5 "/>
<text text-anchor="middle" x="246" y="-1156.3" font-family="Times,serif" font-size="14.00">Telnet 3270</text>
<text text-anchor="middle" x="246" y="-1141.3" font-family="Times,serif" font-size="14.00">Regime Option</text>
</g>
<!-- RFC1041&#45;&gt;RFC6270 -->
<g id="edge12" class="edge"><title>RFC1041&#45;&gt;RFC6270</title>
<path fill="none" stroke="black" stroke-dasharray="5,2" d="M246,-1133.28C246,-1114.08 246,-1088.57 246,-1066 246,-1066 246,-1066 246,-525 246,-506.313 246,-485.6 246,-468.129"/>
<polygon fill="black" stroke="black" points="249.5,-467.717 246,-457.717 242.5,-467.717 249.5,-467.717"/>
<text text-anchor="middle" x="278" y="-791.8" font-family="Times,serif" font-size="14.00">updated by</text>
</g>
<!-- RFC2355&#45;&gt;RFC6270 -->
<g id="edge22" class="edge"><title>RFC2355&#45;&gt;RFC6270</title>
<path fill="none" stroke="black" stroke-dasharray="5,2" d="M154.469,-836.236C163.586,-812.753 176,-774.45 176,-740 176,-740 176,-740 176,-525 176,-502.691 188.325,-482.025 202.632,-465.551"/>
<polygon fill="black" stroke="black" points="205.563,-467.536 209.77,-457.812 200.417,-462.79 205.563,-467.536"/>
</g>
<!-- RFC2718 -->
<g id="node22" class="node"><title>RFC2718</title>
<polygon fill="none" stroke="black" points="1140.5,-708.5 1140.5,-769.5 1265.5,-769.5 1265.5,-708.5 1140.5,-708.5"/>
<text text-anchor="middle" x="1203" y="-754.3" font-family="Times,serif" font-size="14.00">2718</text>
<polyline fill="none" stroke="black" points="1140.5,-746.5 1265.5,-746.5 "/>
<text text-anchor="middle" x="1203" y="-731.3" font-family="Times,serif" font-size="14.00">Guidlines for</text>
<text text-anchor="middle" x="1203" y="-716.3" font-family="Times,serif" font-size="14.00">new URL Schemes</text>
</g>
<!-- RFC3986&#45;&gt;RFC7320 -->
<g id="edge25" class="edge"><title>RFC3986&#45;&gt;RFC7320</title>
<path fill="none" stroke="black" stroke-dasharray="5,2" d="M526.274,-597.305C561.464,-575.213 599,-546.968 599,-527 599,-527 599,-527 599,-312 599,-284.12 582.606,-257.062 566.816,-237.467"/>
<polygon fill="black" stroke="black" points="569.486,-235.204 560.368,-229.81 564.132,-239.713 569.486,-235.204"/>
</g>
<!-- RFC3987 -->
<g id="node24" class="node"><title>RFC3987</title>
<polygon fill="none" stroke="black" points="562,-602 562,-663 726,-663 726,-602 562,-602"/>
<text text-anchor="middle" x="644" y="-647.8" font-family="Times,serif" font-size="14.00">3987</text>
<polyline fill="none" stroke="black" points="562,-640 726,-640 "/>
<text text-anchor="middle" x="644" y="-624.8" font-family="Times,serif" font-size="14.00">Internationalized Resource</text>
<text text-anchor="middle" x="644" y="-609.8" font-family="Times,serif" font-size="14.00">Identifiers (IRIs)</text>
</g>
<!-- RFC3986&#45;&gt;RFC3987 -->
<g id="edge35" class="edge"><title>RFC3986&#45;&gt;RFC3987</title>
<path fill="none" stroke="blue" stroke-width="2" d="M526.145,-632.5C537.961,-632.5 549.777,-632.5 561.593,-632.5"/>
</g>
<!-- RFC6874 -->
<g id="node30" class="node"><title>RFC6874</title>
<polygon fill="none" stroke="black" points="391.5,-267.5 391.5,-358.5 570.5,-358.5 570.5,-267.5 391.5,-267.5"/>
<text text-anchor="middle" x="481" y="-343.3" font-family="Times,serif" font-size="14.00">6874</text>
<polyline fill="none" stroke="black" points="391.5,-335.5 570.5,-335.5 "/>
<text text-anchor="middle" x="481" y="-320.3" font-family="Times,serif" font-size="14.00">Representing IPv6</text>
<text text-anchor="middle" x="481" y="-305.3" font-family="Times,serif" font-size="14.00">Zone Identifiers in</text>
<text text-anchor="middle" x="481" y="-290.3" font-family="Times,serif" font-size="14.00">Address Literals and</text>
<text text-anchor="middle" x="481" y="-275.3" font-family="Times,serif" font-size="14.00">Uniform Resource Identifiers</text>
</g>
<!-- RFC3986&#45;&gt;RFC6874 -->
<g id="edge24" class="edge"><title>RFC3986&#45;&gt;RFC6874</title>
<path fill="none" stroke="black" stroke-dasharray="5,2" d="M467.75,-594.457C470.38,-538.792 475.367,-433.231 478.416,-368.689"/>
<polygon fill="black" stroke="black" points="481.912,-368.851 478.888,-358.697 474.92,-368.52 481.912,-368.851"/>
</g>
<!-- RFC3986&#45;&gt;RFC8820 -->
<g id="edge26" class="edge"><title>RFC3986&#45;&gt;RFC8820</title>
<path fill="none" stroke="black" stroke-dasharray="5,2" d="M405.786,-597.285C383.246,-579.729 363,-555.913 363,-527 363,-527 363,-527 363,-114 363,-73.0093 401.529,-50.781 442.43,-38.7324"/>
<polygon fill="black" stroke="black" points="443.577,-42.0473 452.294,-36.0265 441.725,-35.2967 443.577,-42.0473"/>
</g>
</g>
</svg>
