<svg class="railroad-diagram" height="62" viewBox="0 0 691.5 62" width="691.5" xmlns="http://www.w3.org/2000/svg">
<g transform="translate(.5 .5)">
<style>/* <![CDATA[ */
	svg.railroad-diagram {
		background-color:hsl(30,20%,95%);
	}
	svg.railroad-diagram path {
		stroke-width:3;
		stroke:black;
		fill:rgba(0,0,0,0);
	}
	svg.railroad-diagram text {
		font:bold 14px monospace;
		text-anchor:middle;
	}
	svg.railroad-diagram text.label{
		text-anchor:start;
	}
	svg.railroad-diagram text.comment{
		font:italic 12px monospace;
	}
	svg.railroad-diagram rect{
		stroke-width:3;
		stroke:black;
		fill:hsl(120,100%,90%);
	}
	svg.railroad-diagram rect.group-box {
		stroke: gray;
		stroke-dasharray: 10 5;
		fill: none;
	}

/* ]]> */
</style><g>
<path d="M20 21v20m10 -20v20m-10 -10h20"></path></g><path d="M40 31h10"></path><g>
<path d="M50 31h0.0"></path><path d="M641.5 31h0.0"></path><g class="non-terminal ">
<path d="M50.0 31h0.0"></path><path d="M146.5 31h0.0"></path><rect height="22" width="96.5" x="50.0" y="20"></rect><text x="98.25" y="35">dec-octet</text></g><path d="M146.5 31h10"></path><path d="M156.5 31h10"></path><g class="terminal ">
<path d="M166.5 31h0.0"></path><path d="M195.0 31h0.0"></path><rect height="22" rx="10" ry="10" width="28.5" x="166.5" y="20"></rect><text x="180.75" y="35">.</text></g><path d="M195.0 31h10"></path><path d="M205.0 31h10"></path><g class="non-terminal ">
<path d="M215.0 31h0.0"></path><path d="M311.5 31h0.0"></path><rect height="22" width="96.5" x="215.0" y="20"></rect><text x="263.25" y="35">dec-octet</text></g><path d="M311.5 31h10"></path><path d="M321.5 31h10"></path><g class="terminal ">
<path d="M331.5 31h0.0"></path><path d="M360.0 31h0.0"></path><rect height="22" rx="10" ry="10" width="28.5" x="331.5" y="20"></rect><text x="345.75" y="35">.</text></g><path d="M360.0 31h10"></path><path d="M370.0 31h10"></path><g class="non-terminal ">
<path d="M380.0 31h0.0"></path><path d="M476.5 31h0.0"></path><rect height="22" width="96.5" x="380.0" y="20"></rect><text x="428.25" y="35">dec-octet</text></g><path d="M476.5 31h10"></path><path d="M486.5 31h10"></path><g class="terminal ">
<path d="M496.5 31h0.0"></path><path d="M525.0 31h0.0"></path><rect height="22" rx="10" ry="10" width="28.5" x="496.5" y="20"></rect><text x="510.75" y="35">.</text></g><path d="M525.0 31h10"></path><path d="M535.0 31h10"></path><g class="non-terminal ">
<path d="M545.0 31h0.0"></path><path d="M641.5 31h0.0"></path><rect height="22" width="96.5" x="545.0" y="20"></rect><text x="593.25" y="35">dec-octet</text></g></g><path d="M641.5 31h10"></path><path d="M 651.5 31 h 20 m -10 -10 v 20 m 10 -20 v 20"></path></g></svg>