<svg class="railroad-diagram" height="533" viewBox="0 0 1116.5 533" width="1116.5" xmlns="http://www.w3.org/2000/svg">
<g transform="translate(.5 .5)">
<style>/* <![CDATA[ */
	svg.railroad-diagram {
		background-color:hsl(30,20%,95%);
	}
	svg.railroad-diagram path {
		stroke-width:3;
		stroke:black;
		fill:rgba(0,0,0,0);
	}
	svg.railroad-diagram text {
		font:bold 14px monospace;
		text-anchor:middle;
	}
	svg.railroad-diagram text.label{
		text-anchor:start;
	}
	svg.railroad-diagram text.comment{
		font:italic 12px monospace;
	}
	svg.railroad-diagram rect{
		stroke-width:3;
		stroke:black;
		fill:hsl(120,100%,90%);
	}
	svg.railroad-diagram rect.group-box {
		stroke: gray;
		stroke-dasharray: 10 5;
		fill: none;
	}

/* ]]> */
</style><g>
<path d="M20 21v20m10 -20v20m-10 -10h20"></path></g><g>
<path d="M40 31h0.0"></path><path d="M1076.5 31h0.0"></path><path d="M40.0 31h20"></path><g>
<path d="M60.0 31h129.25"></path><path d="M927.25 31h129.25"></path><g class="non-terminal ">
<path d="M189.25 31h0.0"></path><path d="M234.75 31h0.0"></path><rect height="22" width="45.5" x="189.25" y="20"></rect><text x="212.0" y="35">h16</text></g><path d="M234.75 31h10"></path><path d="M244.75 31h10"></path><g class="terminal ">
<path d="M254.75 31h0.0"></path><path d="M283.25 31h0.0"></path><rect height="22" rx="10" ry="10" width="28.5" x="254.75" y="20"></rect><text x="269.0" y="35">:</text></g><path d="M283.25 31h10"></path><path d="M293.25 31h10"></path><g class="non-terminal ">
<path d="M303.25 31h0.0"></path><path d="M348.75 31h0.0"></path><rect height="22" width="45.5" x="303.25" y="20"></rect><text x="326.0" y="35">h16</text></g><path d="M348.75 31h10"></path><path d="M358.75 31h10"></path><g class="terminal ">
<path d="M368.75 31h0.0"></path><path d="M397.25 31h0.0"></path><rect height="22" rx="10" ry="10" width="28.5" x="368.75" y="20"></rect><text x="383.0" y="35">:</text></g><path d="M397.25 31h10"></path><path d="M407.25 31h10"></path><g class="non-terminal ">
<path d="M417.25 31h0.0"></path><path d="M462.75 31h0.0"></path><rect height="22" width="45.5" x="417.25" y="20"></rect><text x="440.0" y="35">h16</text></g><path d="M462.75 31h10"></path><path d="M472.75 31h10"></path><g class="terminal ">
<path d="M482.75 31h0.0"></path><path d="M511.25 31h0.0"></path><rect height="22" rx="10" ry="10" width="28.5" x="482.75" y="20"></rect><text x="497.0" y="35">:</text></g><path d="M511.25 31h10"></path><path d="M521.25 31h10"></path><g class="non-terminal ">
<path d="M531.25 31h0.0"></path><path d="M576.75 31h0.0"></path><rect height="22" width="45.5" x="531.25" y="20"></rect><text x="554.0" y="35">h16</text></g><path d="M576.75 31h10"></path><path d="M586.75 31h10"></path><g class="terminal ">
<path d="M596.75 31h0.0"></path><path d="M625.25 31h0.0"></path><rect height="22" rx="10" ry="10" width="28.5" x="596.75" y="20"></rect><text x="611.0" y="35">:</text></g><path d="M625.25 31h10"></path><path d="M635.25 31h10"></path><g class="non-terminal ">
<path d="M645.25 31h0.0"></path><path d="M690.75 31h0.0"></path><rect height="22" width="45.5" x="645.25" y="20"></rect><text x="668.0" y="35">h16</text></g><path d="M690.75 31h10"></path><path d="M700.75 31h10"></path><g class="terminal ">
<path d="M710.75 31h0.0"></path><path d="M739.25 31h0.0"></path><rect height="22" rx="10" ry="10" width="28.5" x="710.75" y="20"></rect><text x="725.0" y="35">:</text></g><path d="M739.25 31h10"></path><path d="M749.25 31h10"></path><g class="non-terminal ">
<path d="M759.25 31h0.0"></path><path d="M804.75 31h0.0"></path><rect height="22" width="45.5" x="759.25" y="20"></rect><text x="782.0" y="35">h16</text></g><path d="M804.75 31h10"></path><path d="M814.75 31h10"></path><g class="terminal ">
<path d="M824.75 31h0.0"></path><path d="M853.25 31h0.0"></path><rect height="22" rx="10" ry="10" width="28.5" x="824.75" y="20"></rect><text x="839.0" y="35">:</text></g><path d="M853.25 31h10"></path><path d="M863.25 31h10"></path><g class="non-terminal ">
<path d="M873.25 31h0.0"></path><path d="M927.25 31h0.0"></path><rect height="22" width="54.0" x="873.25" y="20"></rect><text x="900.25" y="35">ls32</text></g></g><path d="M1056.5 31h20"></path><path d="M40.0 31a10 10 0 0 1 10 10v10a10 10 0 0 0 10 10"></path><g>
<path d="M60.0 61h157.75"></path><path d="M898.75 61h157.75"></path><g class="terminal ">
<path d="M217.75 61h0.0"></path><path d="M254.75 61h0.0"></path><rect height="22" rx="10" ry="10" width="37.0" x="217.75" y="50"></rect><text x="236.25" y="65">::</text></g><path d="M254.75 61h10"></path><path d="M264.75 61h10"></path><g class="non-terminal ">
<path d="M274.75 61h0.0"></path><path d="M320.25 61h0.0"></path><rect height="22" width="45.5" x="274.75" y="50"></rect><text x="297.5" y="65">h16</text></g><path d="M320.25 61h10"></path><path d="M330.25 61h10"></path><g class="terminal ">
<path d="M340.25 61h0.0"></path><path d="M368.75 61h0.0"></path><rect height="22" rx="10" ry="10" width="28.5" x="340.25" y="50"></rect><text x="354.5" y="65">:</text></g><path d="M368.75 61h10"></path><path d="M378.75 61h10"></path><g class="non-terminal ">
<path d="M388.75 61h0.0"></path><path d="M434.25 61h0.0"></path><rect height="22" width="45.5" x="388.75" y="50"></rect><text x="411.5" y="65">h16</text></g><path d="M434.25 61h10"></path><path d="M444.25 61h10"></path><g class="terminal ">
<path d="M454.25 61h0.0"></path><path d="M482.75 61h0.0"></path><rect height="22" rx="10" ry="10" width="28.5" x="454.25" y="50"></rect><text x="468.5" y="65">:</text></g><path d="M482.75 61h10"></path><path d="M492.75 61h10"></path><g class="non-terminal ">
<path d="M502.75 61h0.0"></path><path d="M548.25 61h0.0"></path><rect height="22" width="45.5" x="502.75" y="50"></rect><text x="525.5" y="65">h16</text></g><path d="M548.25 61h10"></path><path d="M558.25 61h10"></path><g class="terminal ">
<path d="M568.25 61h0.0"></path><path d="M596.75 61h0.0"></path><rect height="22" rx="10" ry="10" width="28.5" x="568.25" y="50"></rect><text x="582.5" y="65">:</text></g><path d="M596.75 61h10"></path><path d="M606.75 61h10"></path><g class="non-terminal ">
<path d="M616.75 61h0.0"></path><path d="M662.25 61h0.0"></path><rect height="22" width="45.5" x="616.75" y="50"></rect><text x="639.5" y="65">h16</text></g><path d="M662.25 61h10"></path><path d="M672.25 61h10"></path><g class="terminal ">
<path d="M682.25 61h0.0"></path><path d="M710.75 61h0.0"></path><rect height="22" rx="10" ry="10" width="28.5" x="682.25" y="50"></rect><text x="696.5" y="65">:</text></g><path d="M710.75 61h10"></path><path d="M720.75 61h10"></path><g class="non-terminal ">
<path d="M730.75 61h0.0"></path><path d="M776.25 61h0.0"></path><rect height="22" width="45.5" x="730.75" y="50"></rect><text x="753.5" y="65">h16</text></g><path d="M776.25 61h10"></path><path d="M786.25 61h10"></path><g class="terminal ">
<path d="M796.25 61h0.0"></path><path d="M824.75 61h0.0"></path><rect height="22" rx="10" ry="10" width="28.5" x="796.25" y="50"></rect><text x="810.5" y="65">:</text></g><path d="M824.75 61h10"></path><path d="M834.75 61h10"></path><g class="non-terminal ">
<path d="M844.75 61h0.0"></path><path d="M898.75 61h0.0"></path><rect height="22" width="54.0" x="844.75" y="50"></rect><text x="871.75" y="65">ls32</text></g></g><path d="M1056.5 61a10 10 0 0 0 10 -10v-10a10 10 0 0 1 10 -10"></path><path d="M40.0 31a10 10 0 0 1 10 10v49a10 10 0 0 0 10 10"></path><g>
<path d="M60.0 100h167.0"></path><path d="M889.5 100h167.0"></path><g>
<path d="M227.0 100h0.0"></path><path d="M312.5 100h0.0"></path><path d="M227.0 100a10 10 0 0 0 10 -10v0a10 10 0 0 1 10 -10"></path><g>
<path d="M247.0 80h45.5"></path></g><path d="M292.5 80a10 10 0 0 1 10 10v0a10 10 0 0 0 10 10"></path><path d="M227.0 100h20"></path><g class="non-terminal ">
<path d="M247.0 100h0.0"></path><path d="M292.5 100h0.0"></path><rect height="22" width="45.5" x="247.0" y="89"></rect><text x="269.75" y="104">h16</text></g><path d="M292.5 100h20"></path></g><path d="M312.5 100h10"></path><g class="terminal ">
<path d="M322.5 100h0.0"></path><path d="M359.5 100h0.0"></path><rect height="22" rx="10" ry="10" width="37.0" x="322.5" y="89"></rect><text x="341.0" y="104">::</text></g><path d="M359.5 100h10"></path><path d="M369.5 100h10"></path><g class="non-terminal ">
<path d="M379.5 100h0.0"></path><path d="M425.0 100h0.0"></path><rect height="22" width="45.5" x="379.5" y="89"></rect><text x="402.25" y="104">h16</text></g><path d="M425.0 100h10"></path><path d="M435.0 100h10"></path><g class="terminal ">
<path d="M445.0 100h0.0"></path><path d="M473.5 100h0.0"></path><rect height="22" rx="10" ry="10" width="28.5" x="445.0" y="89"></rect><text x="459.25" y="104">:</text></g><path d="M473.5 100h10"></path><path d="M483.5 100h10"></path><g class="non-terminal ">
<path d="M493.5 100h0.0"></path><path d="M539.0 100h0.0"></path><rect height="22" width="45.5" x="493.5" y="89"></rect><text x="516.25" y="104">h16</text></g><path d="M539.0 100h10"></path><path d="M549.0 100h10"></path><g class="terminal ">
<path d="M559.0 100h0.0"></path><path d="M587.5 100h0.0"></path><rect height="22" rx="10" ry="10" width="28.5" x="559.0" y="89"></rect><text x="573.25" y="104">:</text></g><path d="M587.5 100h10"></path><path d="M597.5 100h10"></path><g class="non-terminal ">
<path d="M607.5 100h0.0"></path><path d="M653.0 100h0.0"></path><rect height="22" width="45.5" x="607.5" y="89"></rect><text x="630.25" y="104">h16</text></g><path d="M653.0 100h10"></path><path d="M663.0 100h10"></path><g class="terminal ">
<path d="M673.0 100h0.0"></path><path d="M701.5 100h0.0"></path><rect height="22" rx="10" ry="10" width="28.5" x="673.0" y="89"></rect><text x="687.25" y="104">:</text></g><path d="M701.5 100h10"></path><path d="M711.5 100h10"></path><g class="non-terminal ">
<path d="M721.5 100h0.0"></path><path d="M767.0 100h0.0"></path><rect height="22" width="45.5" x="721.5" y="89"></rect><text x="744.25" y="104">h16</text></g><path d="M767.0 100h10"></path><path d="M777.0 100h10"></path><g class="terminal ">
<path d="M787.0 100h0.0"></path><path d="M815.5 100h0.0"></path><rect height="22" rx="10" ry="10" width="28.5" x="787.0" y="89"></rect><text x="801.25" y="104">:</text></g><path d="M815.5 100h10"></path><path d="M825.5 100h10"></path><g class="non-terminal ">
<path d="M835.5 100h0.0"></path><path d="M889.5 100h0.0"></path><rect height="22" width="54.0" x="835.5" y="89"></rect><text x="862.5" y="104">ls32</text></g></g><path d="M1056.5 100a10 10 0 0 0 10 -10v-49a10 10 0 0 1 10 -10"></path><path d="M40.0 31a10 10 0 0 1 10 10v96a10 10 0 0 0 10 10"></path><g>
<path d="M60.0 147h152.0"></path><path d="M904.5 147h152.0"></path><g>
<path d="M212.0 147h0.0"></path><path d="M441.5 147h0.0"></path><path d="M212.0 147a10 10 0 0 0 10 -10v-8a10 10 0 0 1 10 -10"></path><g>
<path d="M232.0 119h189.5"></path></g><path d="M421.5 119a10 10 0 0 1 10 10v8a10 10 0 0 0 10 10"></path><path d="M212.0 147h20"></path><g>
<path d="M232.0 147h0.0"></path><path d="M421.5 147h0.0"></path><g>
<path d="M232.0 147h0.0"></path><path d="M366.0 147h0.0"></path><path d="M232.0 147a10 10 0 0 0 10 -10v0a10 10 0 0 1 10 -10"></path><g>
<path d="M252.0 127h94.0"></path></g><path d="M346.0 127a10 10 0 0 1 10 10v0a10 10 0 0 0 10 10"></path><path d="M232.0 147h20"></path><g>
<path d="M252.0 147h0.0"></path><path d="M346.0 147h0.0"></path><g class="non-terminal ">
<path d="M252.0 147h0.0"></path><path d="M297.5 147h0.0"></path><rect height="22" width="45.5" x="252.0" y="136"></rect><text x="274.75" y="151">h16</text></g><path d="M297.5 147h10"></path><path d="M307.5 147h10"></path><g class="terminal ">
<path d="M317.5 147h0.0"></path><path d="M346.0 147h0.0"></path><rect height="22" rx="10" ry="10" width="28.5" x="317.5" y="136"></rect><text x="331.75" y="151">:</text></g></g><path d="M346.0 147h20"></path></g><path d="M366.0 147h10"></path><g class="non-terminal ">
<path d="M376.0 147h0.0"></path><path d="M421.5 147h0.0"></path><rect height="22" width="45.5" x="376.0" y="136"></rect><text x="398.75" y="151">h16</text></g></g><path d="M421.5 147h20"></path></g><path d="M441.5 147h10"></path><g class="terminal ">
<path d="M451.5 147h0.0"></path><path d="M488.5 147h0.0"></path><rect height="22" rx="10" ry="10" width="37.0" x="451.5" y="136"></rect><text x="470.0" y="151">::</text></g><path d="M488.5 147h10"></path><path d="M498.5 147h10"></path><g class="non-terminal ">
<path d="M508.5 147h0.0"></path><path d="M554.0 147h0.0"></path><rect height="22" width="45.5" x="508.5" y="136"></rect><text x="531.25" y="151">h16</text></g><path d="M554.0 147h10"></path><path d="M564.0 147h10"></path><g class="terminal ">
<path d="M574.0 147h0.0"></path><path d="M602.5 147h0.0"></path><rect height="22" rx="10" ry="10" width="28.5" x="574.0" y="136"></rect><text x="588.25" y="151">:</text></g><path d="M602.5 147h10"></path><path d="M612.5 147h10"></path><g class="non-terminal ">
<path d="M622.5 147h0.0"></path><path d="M668.0 147h0.0"></path><rect height="22" width="45.5" x="622.5" y="136"></rect><text x="645.25" y="151">h16</text></g><path d="M668.0 147h10"></path><path d="M678.0 147h10"></path><g class="terminal ">
<path d="M688.0 147h0.0"></path><path d="M716.5 147h0.0"></path><rect height="22" rx="10" ry="10" width="28.5" x="688.0" y="136"></rect><text x="702.25" y="151">:</text></g><path d="M716.5 147h10"></path><path d="M726.5 147h10"></path><g class="non-terminal ">
<path d="M736.5 147h0.0"></path><path d="M782.0 147h0.0"></path><rect height="22" width="45.5" x="736.5" y="136"></rect><text x="759.25" y="151">h16</text></g><path d="M782.0 147h10"></path><path d="M792.0 147h10"></path><g class="terminal ">
<path d="M802.0 147h0.0"></path><path d="M830.5 147h0.0"></path><rect height="22" rx="10" ry="10" width="28.5" x="802.0" y="136"></rect><text x="816.25" y="151">:</text></g><path d="M830.5 147h10"></path><path d="M840.5 147h10"></path><g class="non-terminal ">
<path d="M850.5 147h0.0"></path><path d="M904.5 147h0.0"></path><rect height="22" width="54.0" x="850.5" y="136"></rect><text x="877.5" y="151">ls32</text></g></g><path d="M1056.5 147a10 10 0 0 0 10 -10v-96a10 10 0 0 1 10 -10"></path><path d="M40.0 31a10 10 0 0 1 10 10v151a10 10 0 0 0 10 10"></path><g>
<path d="M60.0 202h137.0"></path><path d="M919.5 202h137.0"></path><g>
<path d="M197.0 202h0.0"></path><path d="M570.5 202h0.0"></path><path d="M197.0 202a10 10 0 0 0 10 -10v-16a10 10 0 0 1 10 -10"></path><g>
<path d="M217.0 166h333.5"></path></g><path d="M550.5 166a10 10 0 0 1 10 10v16a10 10 0 0 0 10 10"></path><path d="M197.0 202h20"></path><g>
<path d="M217.0 202h0.0"></path><path d="M550.5 202h0.0"></path><g>
<path d="M217.0 202h0.0"></path><path d="M495.0 202h0.0"></path><path d="M217.0 202a10 10 0 0 0 10 -10v-8a10 10 0 0 1 10 -10"></path><g>
<path d="M237.0 174h238.0"></path></g><path d="M475.0 174a10 10 0 0 1 10 10v8a10 10 0 0 0 10 10"></path><path d="M217.0 202h20"></path><g>
<path d="M237.0 202h0.0"></path><path d="M475.0 202h0.0"></path><g class="non-terminal ">
<path d="M237.0 202h0.0"></path><path d="M282.5 202h0.0"></path><rect height="22" width="45.5" x="237.0" y="191"></rect><text x="259.75" y="206">h16</text></g><path d="M282.5 202h10"></path><path d="M292.5 202h10"></path><g class="terminal ">
<path d="M302.5 202h0.0"></path><path d="M331.0 202h0.0"></path><rect height="22" rx="10" ry="10" width="28.5" x="302.5" y="191"></rect><text x="316.75" y="206">:</text></g><path d="M331.0 202h10"></path><g>
<path d="M341.0 202h0.0"></path><path d="M475.0 202h0.0"></path><path d="M341.0 202a10 10 0 0 0 10 -10v0a10 10 0 0 1 10 -10"></path><g>
<path d="M361.0 182h94.0"></path></g><path d="M455.0 182a10 10 0 0 1 10 10v0a10 10 0 0 0 10 10"></path><path d="M341.0 202h20"></path><g>
<path d="M361.0 202h0.0"></path><path d="M455.0 202h0.0"></path><g class="non-terminal ">
<path d="M361.0 202h0.0"></path><path d="M406.5 202h0.0"></path><rect height="22" width="45.5" x="361.0" y="191"></rect><text x="383.75" y="206">h16</text></g><path d="M406.5 202h10"></path><path d="M416.5 202h10"></path><g class="terminal ">
<path d="M426.5 202h0.0"></path><path d="M455.0 202h0.0"></path><rect height="22" rx="10" ry="10" width="28.5" x="426.5" y="191"></rect><text x="440.75" y="206">:</text></g></g><path d="M455.0 202h20"></path></g></g><path d="M475.0 202h20"></path></g><path d="M495.0 202h10"></path><g class="non-terminal ">
<path d="M505.0 202h0.0"></path><path d="M550.5 202h0.0"></path><rect height="22" width="45.5" x="505.0" y="191"></rect><text x="527.75" y="206">h16</text></g></g><path d="M550.5 202h20"></path></g><path d="M570.5 202h10"></path><g class="terminal ">
<path d="M580.5 202h0.0"></path><path d="M617.5 202h0.0"></path><rect height="22" rx="10" ry="10" width="37.0" x="580.5" y="191"></rect><text x="599.0" y="206">::</text></g><path d="M617.5 202h10"></path><path d="M627.5 202h10"></path><g class="non-terminal ">
<path d="M637.5 202h0.0"></path><path d="M683.0 202h0.0"></path><rect height="22" width="45.5" x="637.5" y="191"></rect><text x="660.25" y="206">h16</text></g><path d="M683.0 202h10"></path><path d="M693.0 202h10"></path><g class="terminal ">
<path d="M703.0 202h0.0"></path><path d="M731.5 202h0.0"></path><rect height="22" rx="10" ry="10" width="28.5" x="703.0" y="191"></rect><text x="717.25" y="206">:</text></g><path d="M731.5 202h10"></path><path d="M741.5 202h10"></path><g class="non-terminal ">
<path d="M751.5 202h0.0"></path><path d="M797.0 202h0.0"></path><rect height="22" width="45.5" x="751.5" y="191"></rect><text x="774.25" y="206">h16</text></g><path d="M797.0 202h10"></path><path d="M807.0 202h10"></path><g class="terminal ">
<path d="M817.0 202h0.0"></path><path d="M845.5 202h0.0"></path><rect height="22" rx="10" ry="10" width="28.5" x="817.0" y="191"></rect><text x="831.25" y="206">:</text></g><path d="M845.5 202h10"></path><path d="M855.5 202h10"></path><g class="non-terminal ">
<path d="M865.5 202h0.0"></path><path d="M919.5 202h0.0"></path><rect height="22" width="54.0" x="865.5" y="191"></rect><text x="892.5" y="206">ls32</text></g></g><path d="M1056.5 202a10 10 0 0 0 10 -10v-151a10 10 0 0 1 10 -10"></path><path d="M40.0 31a10 10 0 0 1 10 10v214a10 10 0 0 0 10 10"></path><g>
<path d="M60.0 265h122.0"></path><path d="M934.5 265h122.0"></path><g>
<path d="M182.0 265h0.0"></path><path d="M699.5 265h0.0"></path><path d="M182.0 265a10 10 0 0 0 10 -10v-24a10 10 0 0 1 10 -10"></path><g>
<path d="M202.0 221h477.5"></path></g><path d="M679.5 221a10 10 0 0 1 10 10v24a10 10 0 0 0 10 10"></path><path d="M182.0 265h20"></path><g>
<path d="M202.0 265h0.0"></path><path d="M679.5 265h0.0"></path><g>
<path d="M202.0 265h0.0"></path><path d="M624.0 265h0.0"></path><path d="M202.0 265a10 10 0 0 0 10 -10v-16a10 10 0 0 1 10 -10"></path><g>
<path d="M222.0 229h382.0"></path></g><path d="M604.0 229a10 10 0 0 1 10 10v16a10 10 0 0 0 10 10"></path><path d="M202.0 265h20"></path><g>
<path d="M222.0 265h0.0"></path><path d="M604.0 265h0.0"></path><g class="non-terminal ">
<path d="M222.0 265h0.0"></path><path d="M267.5 265h0.0"></path><rect height="22" width="45.5" x="222.0" y="254"></rect><text x="244.75" y="269">h16</text></g><path d="M267.5 265h10"></path><path d="M277.5 265h10"></path><g class="terminal ">
<path d="M287.5 265h0.0"></path><path d="M316.0 265h0.0"></path><rect height="22" rx="10" ry="10" width="28.5" x="287.5" y="254"></rect><text x="301.75" y="269">:</text></g><path d="M316.0 265h10"></path><g>
<path d="M326.0 265h0.0"></path><path d="M604.0 265h0.0"></path><path d="M326.0 265a10 10 0 0 0 10 -10v-8a10 10 0 0 1 10 -10"></path><g>
<path d="M346.0 237h238.0"></path></g><path d="M584.0 237a10 10 0 0 1 10 10v8a10 10 0 0 0 10 10"></path><path d="M326.0 265h20"></path><g>
<path d="M346.0 265h0.0"></path><path d="M584.0 265h0.0"></path><g class="non-terminal ">
<path d="M346.0 265h0.0"></path><path d="M391.5 265h0.0"></path><rect height="22" width="45.5" x="346.0" y="254"></rect><text x="368.75" y="269">h16</text></g><path d="M391.5 265h10"></path><path d="M401.5 265h10"></path><g class="terminal ">
<path d="M411.5 265h0.0"></path><path d="M440.0 265h0.0"></path><rect height="22" rx="10" ry="10" width="28.5" x="411.5" y="254"></rect><text x="425.75" y="269">:</text></g><path d="M440.0 265h10"></path><g>
<path d="M450.0 265h0.0"></path><path d="M584.0 265h0.0"></path><path d="M450.0 265a10 10 0 0 0 10 -10v0a10 10 0 0 1 10 -10"></path><g>
<path d="M470.0 245h94.0"></path></g><path d="M564.0 245a10 10 0 0 1 10 10v0a10 10 0 0 0 10 10"></path><path d="M450.0 265h20"></path><g>
<path d="M470.0 265h0.0"></path><path d="M564.0 265h0.0"></path><g class="non-terminal ">
<path d="M470.0 265h0.0"></path><path d="M515.5 265h0.0"></path><rect height="22" width="45.5" x="470.0" y="254"></rect><text x="492.75" y="269">h16</text></g><path d="M515.5 265h10"></path><path d="M525.5 265h10"></path><g class="terminal ">
<path d="M535.5 265h0.0"></path><path d="M564.0 265h0.0"></path><rect height="22" rx="10" ry="10" width="28.5" x="535.5" y="254"></rect><text x="549.75" y="269">:</text></g></g><path d="M564.0 265h20"></path></g></g><path d="M584.0 265h20"></path></g></g><path d="M604.0 265h20"></path></g><path d="M624.0 265h10"></path><g class="non-terminal ">
<path d="M634.0 265h0.0"></path><path d="M679.5 265h0.0"></path><rect height="22" width="45.5" x="634.0" y="254"></rect><text x="656.75" y="269">h16</text></g></g><path d="M679.5 265h20"></path></g><path d="M699.5 265h10"></path><g class="terminal ">
<path d="M709.5 265h0.0"></path><path d="M746.5 265h0.0"></path><rect height="22" rx="10" ry="10" width="37.0" x="709.5" y="254"></rect><text x="728.0" y="269">::</text></g><path d="M746.5 265h10"></path><path d="M756.5 265h10"></path><g class="non-terminal ">
<path d="M766.5 265h0.0"></path><path d="M812.0 265h0.0"></path><rect height="22" width="45.5" x="766.5" y="254"></rect><text x="789.25" y="269">h16</text></g><path d="M812.0 265h10"></path><path d="M822.0 265h10"></path><g class="terminal ">
<path d="M832.0 265h0.0"></path><path d="M860.5 265h0.0"></path><rect height="22" rx="10" ry="10" width="28.5" x="832.0" y="254"></rect><text x="846.25" y="269">:</text></g><path d="M860.5 265h10"></path><path d="M870.5 265h10"></path><g class="non-terminal ">
<path d="M880.5 265h0.0"></path><path d="M934.5 265h0.0"></path><rect height="22" width="54.0" x="880.5" y="254"></rect><text x="907.5" y="269">ls32</text></g></g><path d="M1056.5 265a10 10 0 0 0 10 -10v-214a10 10 0 0 1 10 -10"></path><path d="M40.0 31a10 10 0 0 1 10 10v285a10 10 0 0 0 10 10"></path><g>
<path d="M60.0 336h107.0"></path><path d="M949.5 336h107.0"></path><g>
<path d="M167.0 336h0.0"></path><path d="M828.5 336h0.0"></path><path d="M167.0 336a10 10 0 0 0 10 -10v-32a10 10 0 0 1 10 -10"></path><g>
<path d="M187.0 284h621.5"></path></g><path d="M808.5 284a10 10 0 0 1 10 10v32a10 10 0 0 0 10 10"></path><path d="M167.0 336h20"></path><g>
<path d="M187.0 336h0.0"></path><path d="M808.5 336h0.0"></path><g>
<path d="M187.0 336h0.0"></path><path d="M753.0 336h0.0"></path><path d="M187.0 336a10 10 0 0 0 10 -10v-24a10 10 0 0 1 10 -10"></path><g>
<path d="M207.0 292h526.0"></path></g><path d="M733.0 292a10 10 0 0 1 10 10v24a10 10 0 0 0 10 10"></path><path d="M187.0 336h20"></path><g>
<path d="M207.0 336h0.0"></path><path d="M733.0 336h0.0"></path><g class="non-terminal ">
<path d="M207.0 336h0.0"></path><path d="M252.5 336h0.0"></path><rect height="22" width="45.5" x="207.0" y="325"></rect><text x="229.75" y="340">h16</text></g><path d="M252.5 336h10"></path><path d="M262.5 336h10"></path><g class="terminal ">
<path d="M272.5 336h0.0"></path><path d="M301.0 336h0.0"></path><rect height="22" rx="10" ry="10" width="28.5" x="272.5" y="325"></rect><text x="286.75" y="340">:</text></g><path d="M301.0 336h10"></path><g>
<path d="M311.0 336h0.0"></path><path d="M733.0 336h0.0"></path><path d="M311.0 336a10 10 0 0 0 10 -10v-16a10 10 0 0 1 10 -10"></path><g>
<path d="M331.0 300h382.0"></path></g><path d="M713.0 300a10 10 0 0 1 10 10v16a10 10 0 0 0 10 10"></path><path d="M311.0 336h20"></path><g>
<path d="M331.0 336h0.0"></path><path d="M713.0 336h0.0"></path><g class="non-terminal ">
<path d="M331.0 336h0.0"></path><path d="M376.5 336h0.0"></path><rect height="22" width="45.5" x="331.0" y="325"></rect><text x="353.75" y="340">h16</text></g><path d="M376.5 336h10"></path><path d="M386.5 336h10"></path><g class="terminal ">
<path d="M396.5 336h0.0"></path><path d="M425.0 336h0.0"></path><rect height="22" rx="10" ry="10" width="28.5" x="396.5" y="325"></rect><text x="410.75" y="340">:</text></g><path d="M425.0 336h10"></path><g>
<path d="M435.0 336h0.0"></path><path d="M713.0 336h0.0"></path><path d="M435.0 336a10 10 0 0 0 10 -10v-8a10 10 0 0 1 10 -10"></path><g>
<path d="M455.0 308h238.0"></path></g><path d="M693.0 308a10 10 0 0 1 10 10v8a10 10 0 0 0 10 10"></path><path d="M435.0 336h20"></path><g>
<path d="M455.0 336h0.0"></path><path d="M693.0 336h0.0"></path><g class="non-terminal ">
<path d="M455.0 336h0.0"></path><path d="M500.5 336h0.0"></path><rect height="22" width="45.5" x="455.0" y="325"></rect><text x="477.75" y="340">h16</text></g><path d="M500.5 336h10"></path><path d="M510.5 336h10"></path><g class="terminal ">
<path d="M520.5 336h0.0"></path><path d="M549.0 336h0.0"></path><rect height="22" rx="10" ry="10" width="28.5" x="520.5" y="325"></rect><text x="534.75" y="340">:</text></g><path d="M549.0 336h10"></path><g>
<path d="M559.0 336h0.0"></path><path d="M693.0 336h0.0"></path><path d="M559.0 336a10 10 0 0 0 10 -10v0a10 10 0 0 1 10 -10"></path><g>
<path d="M579.0 316h94.0"></path></g><path d="M673.0 316a10 10 0 0 1 10 10v0a10 10 0 0 0 10 10"></path><path d="M559.0 336h20"></path><g>
<path d="M579.0 336h0.0"></path><path d="M673.0 336h0.0"></path><g class="non-terminal ">
<path d="M579.0 336h0.0"></path><path d="M624.5 336h0.0"></path><rect height="22" width="45.5" x="579.0" y="325"></rect><text x="601.75" y="340">h16</text></g><path d="M624.5 336h10"></path><path d="M634.5 336h10"></path><g class="terminal ">
<path d="M644.5 336h0.0"></path><path d="M673.0 336h0.0"></path><rect height="22" rx="10" ry="10" width="28.5" x="644.5" y="325"></rect><text x="658.75" y="340">:</text></g></g><path d="M673.0 336h20"></path></g></g><path d="M693.0 336h20"></path></g></g><path d="M713.0 336h20"></path></g></g><path d="M733.0 336h20"></path></g><path d="M753.0 336h10"></path><g class="non-terminal ">
<path d="M763.0 336h0.0"></path><path d="M808.5 336h0.0"></path><rect height="22" width="45.5" x="763.0" y="325"></rect><text x="785.75" y="340">h16</text></g></g><path d="M808.5 336h20"></path></g><path d="M828.5 336h10"></path><g class="terminal ">
<path d="M838.5 336h0.0"></path><path d="M875.5 336h0.0"></path><rect height="22" rx="10" ry="10" width="37.0" x="838.5" y="325"></rect><text x="857.0" y="340">::</text></g><path d="M875.5 336h10"></path><path d="M885.5 336h10"></path><g class="non-terminal ">
<path d="M895.5 336h0.0"></path><path d="M949.5 336h0.0"></path><rect height="22" width="54.0" x="895.5" y="325"></rect><text x="922.5" y="340">ls32</text></g></g><path d="M1056.5 336a10 10 0 0 0 10 -10v-285a10 10 0 0 1 10 -10"></path><path d="M40.0 31a10 10 0 0 1 10 10v364a10 10 0 0 0 10 10"></path><g>
<path d="M60.0 415h39.25"></path><path d="M1017.25 415h39.25"></path><g>
<path d="M99.25 415h0.0"></path><path d="M904.75 415h0.0"></path><path d="M99.25 415a10 10 0 0 0 10 -10v-40a10 10 0 0 1 10 -10"></path><g>
<path d="M119.25 355h765.5"></path></g><path d="M884.75 355a10 10 0 0 1 10 10v40a10 10 0 0 0 10 10"></path><path d="M99.25 415h20"></path><g>
<path d="M119.25 415h0.0"></path><path d="M884.75 415h0.0"></path><g>
<path d="M119.25 415h0.0"></path><path d="M829.25 415h0.0"></path><path d="M119.25 415a10 10 0 0 0 10 -10v-32a10 10 0 0 1 10 -10"></path><g>
<path d="M139.25 363h670.0"></path></g><path d="M809.25 363a10 10 0 0 1 10 10v32a10 10 0 0 0 10 10"></path><path d="M119.25 415h20"></path><g>
<path d="M139.25 415h0.0"></path><path d="M809.25 415h0.0"></path><g class="non-terminal ">
<path d="M139.25 415h0.0"></path><path d="M184.75 415h0.0"></path><rect height="22" width="45.5" x="139.25" y="404"></rect><text x="162.0" y="419">h16</text></g><path d="M184.75 415h10"></path><path d="M194.75 415h10"></path><g class="terminal ">
<path d="M204.75 415h0.0"></path><path d="M233.25 415h0.0"></path><rect height="22" rx="10" ry="10" width="28.5" x="204.75" y="404"></rect><text x="219.0" y="419">:</text></g><path d="M233.25 415h10"></path><g>
<path d="M243.25 415h0.0"></path><path d="M809.25 415h0.0"></path><path d="M243.25 415a10 10 0 0 0 10 -10v-24a10 10 0 0 1 10 -10"></path><g>
<path d="M263.25 371h526.0"></path></g><path d="M789.25 371a10 10 0 0 1 10 10v24a10 10 0 0 0 10 10"></path><path d="M243.25 415h20"></path><g>
<path d="M263.25 415h0.0"></path><path d="M789.25 415h0.0"></path><g class="non-terminal ">
<path d="M263.25 415h0.0"></path><path d="M308.75 415h0.0"></path><rect height="22" width="45.5" x="263.25" y="404"></rect><text x="286.0" y="419">h16</text></g><path d="M308.75 415h10"></path><path d="M318.75 415h10"></path><g class="terminal ">
<path d="M328.75 415h0.0"></path><path d="M357.25 415h0.0"></path><rect height="22" rx="10" ry="10" width="28.5" x="328.75" y="404"></rect><text x="343.0" y="419">:</text></g><path d="M357.25 415h10"></path><g>
<path d="M367.25 415h0.0"></path><path d="M789.25 415h0.0"></path><path d="M367.25 415a10 10 0 0 0 10 -10v-16a10 10 0 0 1 10 -10"></path><g>
<path d="M387.25 379h382.0"></path></g><path d="M769.25 379a10 10 0 0 1 10 10v16a10 10 0 0 0 10 10"></path><path d="M367.25 415h20"></path><g>
<path d="M387.25 415h0.0"></path><path d="M769.25 415h0.0"></path><g class="non-terminal ">
<path d="M387.25 415h0.0"></path><path d="M432.75 415h0.0"></path><rect height="22" width="45.5" x="387.25" y="404"></rect><text x="410.0" y="419">h16</text></g><path d="M432.75 415h10"></path><path d="M442.75 415h10"></path><g class="terminal ">
<path d="M452.75 415h0.0"></path><path d="M481.25 415h0.0"></path><rect height="22" rx="10" ry="10" width="28.5" x="452.75" y="404"></rect><text x="467.0" y="419">:</text></g><path d="M481.25 415h10"></path><g>
<path d="M491.25 415h0.0"></path><path d="M769.25 415h0.0"></path><path d="M491.25 415a10 10 0 0 0 10 -10v-8a10 10 0 0 1 10 -10"></path><g>
<path d="M511.25 387h238.0"></path></g><path d="M749.25 387a10 10 0 0 1 10 10v8a10 10 0 0 0 10 10"></path><path d="M491.25 415h20"></path><g>
<path d="M511.25 415h0.0"></path><path d="M749.25 415h0.0"></path><g class="non-terminal ">
<path d="M511.25 415h0.0"></path><path d="M556.75 415h0.0"></path><rect height="22" width="45.5" x="511.25" y="404"></rect><text x="534.0" y="419">h16</text></g><path d="M556.75 415h10"></path><path d="M566.75 415h10"></path><g class="terminal ">
<path d="M576.75 415h0.0"></path><path d="M605.25 415h0.0"></path><rect height="22" rx="10" ry="10" width="28.5" x="576.75" y="404"></rect><text x="591.0" y="419">:</text></g><path d="M605.25 415h10"></path><g>
<path d="M615.25 415h0.0"></path><path d="M749.25 415h0.0"></path><path d="M615.25 415a10 10 0 0 0 10 -10v0a10 10 0 0 1 10 -10"></path><g>
<path d="M635.25 395h94.0"></path></g><path d="M729.25 395a10 10 0 0 1 10 10v0a10 10 0 0 0 10 10"></path><path d="M615.25 415h20"></path><g>
<path d="M635.25 415h0.0"></path><path d="M729.25 415h0.0"></path><g class="non-terminal ">
<path d="M635.25 415h0.0"></path><path d="M680.75 415h0.0"></path><rect height="22" width="45.5" x="635.25" y="404"></rect><text x="658.0" y="419">h16</text></g><path d="M680.75 415h10"></path><path d="M690.75 415h10"></path><g class="terminal ">
<path d="M700.75 415h0.0"></path><path d="M729.25 415h0.0"></path><rect height="22" rx="10" ry="10" width="28.5" x="700.75" y="404"></rect><text x="715.0" y="419">:</text></g></g><path d="M729.25 415h20"></path></g></g><path d="M749.25 415h20"></path></g></g><path d="M769.25 415h20"></path></g></g><path d="M789.25 415h20"></path></g></g><path d="M809.25 415h20"></path></g><path d="M829.25 415h10"></path><g class="non-terminal ">
<path d="M839.25 415h0.0"></path><path d="M884.75 415h0.0"></path><rect height="22" width="45.5" x="839.25" y="404"></rect><text x="862.0" y="419">h16</text></g></g><path d="M884.75 415h20"></path></g><path d="M904.75 415h10"></path><g class="terminal ">
<path d="M914.75 415h0.0"></path><path d="M951.75 415h0.0"></path><rect height="22" rx="10" ry="10" width="37.0" x="914.75" y="404"></rect><text x="933.25" y="419">::</text></g><path d="M951.75 415h10"></path><path d="M961.75 415h10"></path><g class="non-terminal ">
<path d="M971.75 415h0.0"></path><path d="M1017.25 415h0.0"></path><rect height="22" width="45.5" x="971.75" y="404"></rect><text x="994.5" y="419">h16</text></g></g><path d="M1056.5 415a10 10 0 0 0 10 -10v-364a10 10 0 0 1 10 -10"></path><path d="M40.0 31a10 10 0 0 1 10 10v451a10 10 0 0 0 10 10"></path><g>
<path d="M60.0 502h0.0"></path><path d="M1056.5 502h0.0"></path><g>
<path d="M60.0 502h0.0"></path><path d="M1009.5 502h0.0"></path><path d="M60.0 502a10 10 0 0 0 10 -10v-48a10 10 0 0 1 10 -10"></path><g>
<path d="M80.0 434h909.5"></path></g><path d="M989.5 434a10 10 0 0 1 10 10v48a10 10 0 0 0 10 10"></path><path d="M60.0 502h20"></path><g>
<path d="M80.0 502h0.0"></path><path d="M989.5 502h0.0"></path><g>
<path d="M80.0 502h0.0"></path><path d="M934.0 502h0.0"></path><path d="M80.0 502a10 10 0 0 0 10 -10v-40a10 10 0 0 1 10 -10"></path><g>
<path d="M100.0 442h814.0"></path></g><path d="M914.0 442a10 10 0 0 1 10 10v40a10 10 0 0 0 10 10"></path><path d="M80.0 502h20"></path><g>
<path d="M100.0 502h0.0"></path><path d="M914.0 502h0.0"></path><g class="non-terminal ">
<path d="M100.0 502h0.0"></path><path d="M145.5 502h0.0"></path><rect height="22" width="45.5" x="100.0" y="491"></rect><text x="122.75" y="506">h16</text></g><path d="M145.5 502h10"></path><path d="M155.5 502h10"></path><g class="terminal ">
<path d="M165.5 502h0.0"></path><path d="M194.0 502h0.0"></path><rect height="22" rx="10" ry="10" width="28.5" x="165.5" y="491"></rect><text x="179.75" y="506">:</text></g><path d="M194.0 502h10"></path><g>
<path d="M204.0 502h0.0"></path><path d="M914.0 502h0.0"></path><path d="M204.0 502a10 10 0 0 0 10 -10v-32a10 10 0 0 1 10 -10"></path><g>
<path d="M224.0 450h670.0"></path></g><path d="M894.0 450a10 10 0 0 1 10 10v32a10 10 0 0 0 10 10"></path><path d="M204.0 502h20"></path><g>
<path d="M224.0 502h0.0"></path><path d="M894.0 502h0.0"></path><g class="non-terminal ">
<path d="M224.0 502h0.0"></path><path d="M269.5 502h0.0"></path><rect height="22" width="45.5" x="224.0" y="491"></rect><text x="246.75" y="506">h16</text></g><path d="M269.5 502h10"></path><path d="M279.5 502h10"></path><g class="terminal ">
<path d="M289.5 502h0.0"></path><path d="M318.0 502h0.0"></path><rect height="22" rx="10" ry="10" width="28.5" x="289.5" y="491"></rect><text x="303.75" y="506">:</text></g><path d="M318.0 502h10"></path><g>
<path d="M328.0 502h0.0"></path><path d="M894.0 502h0.0"></path><path d="M328.0 502a10 10 0 0 0 10 -10v-24a10 10 0 0 1 10 -10"></path><g>
<path d="M348.0 458h526.0"></path></g><path d="M874.0 458a10 10 0 0 1 10 10v24a10 10 0 0 0 10 10"></path><path d="M328.0 502h20"></path><g>
<path d="M348.0 502h0.0"></path><path d="M874.0 502h0.0"></path><g class="non-terminal ">
<path d="M348.0 502h0.0"></path><path d="M393.5 502h0.0"></path><rect height="22" width="45.5" x="348.0" y="491"></rect><text x="370.75" y="506">h16</text></g><path d="M393.5 502h10"></path><path d="M403.5 502h10"></path><g class="terminal ">
<path d="M413.5 502h0.0"></path><path d="M442.0 502h0.0"></path><rect height="22" rx="10" ry="10" width="28.5" x="413.5" y="491"></rect><text x="427.75" y="506">:</text></g><path d="M442.0 502h10"></path><g>
<path d="M452.0 502h0.0"></path><path d="M874.0 502h0.0"></path><path d="M452.0 502a10 10 0 0 0 10 -10v-16a10 10 0 0 1 10 -10"></path><g>
<path d="M472.0 466h382.0"></path></g><path d="M854.0 466a10 10 0 0 1 10 10v16a10 10 0 0 0 10 10"></path><path d="M452.0 502h20"></path><g>
<path d="M472.0 502h0.0"></path><path d="M854.0 502h0.0"></path><g class="non-terminal ">
<path d="M472.0 502h0.0"></path><path d="M517.5 502h0.0"></path><rect height="22" width="45.5" x="472.0" y="491"></rect><text x="494.75" y="506">h16</text></g><path d="M517.5 502h10"></path><path d="M527.5 502h10"></path><g class="terminal ">
<path d="M537.5 502h0.0"></path><path d="M566.0 502h0.0"></path><rect height="22" rx="10" ry="10" width="28.5" x="537.5" y="491"></rect><text x="551.75" y="506">:</text></g><path d="M566.0 502h10"></path><g>
<path d="M576.0 502h0.0"></path><path d="M854.0 502h0.0"></path><path d="M576.0 502a10 10 0 0 0 10 -10v-8a10 10 0 0 1 10 -10"></path><g>
<path d="M596.0 474h238.0"></path></g><path d="M834.0 474a10 10 0 0 1 10 10v8a10 10 0 0 0 10 10"></path><path d="M576.0 502h20"></path><g>
<path d="M596.0 502h0.0"></path><path d="M834.0 502h0.0"></path><g class="non-terminal ">
<path d="M596.0 502h0.0"></path><path d="M641.5 502h0.0"></path><rect height="22" width="45.5" x="596.0" y="491"></rect><text x="618.75" y="506">h16</text></g><path d="M641.5 502h10"></path><path d="M651.5 502h10"></path><g class="terminal ">
<path d="M661.5 502h0.0"></path><path d="M690.0 502h0.0"></path><rect height="22" rx="10" ry="10" width="28.5" x="661.5" y="491"></rect><text x="675.75" y="506">:</text></g><path d="M690.0 502h10"></path><g>
<path d="M700.0 502h0.0"></path><path d="M834.0 502h0.0"></path><path d="M700.0 502a10 10 0 0 0 10 -10v0a10 10 0 0 1 10 -10"></path><g>
<path d="M720.0 482h94.0"></path></g><path d="M814.0 482a10 10 0 0 1 10 10v0a10 10 0 0 0 10 10"></path><path d="M700.0 502h20"></path><g>
<path d="M720.0 502h0.0"></path><path d="M814.0 502h0.0"></path><g class="non-terminal ">
<path d="M720.0 502h0.0"></path><path d="M765.5 502h0.0"></path><rect height="22" width="45.5" x="720.0" y="491"></rect><text x="742.75" y="506">h16</text></g><path d="M765.5 502h10"></path><path d="M775.5 502h10"></path><g class="terminal ">
<path d="M785.5 502h0.0"></path><path d="M814.0 502h0.0"></path><rect height="22" rx="10" ry="10" width="28.5" x="785.5" y="491"></rect><text x="799.75" y="506">:</text></g></g><path d="M814.0 502h20"></path></g></g><path d="M834.0 502h20"></path></g></g><path d="M854.0 502h20"></path></g></g><path d="M874.0 502h20"></path></g></g><path d="M894.0 502h20"></path></g></g><path d="M914.0 502h20"></path></g><path d="M934.0 502h10"></path><g class="non-terminal ">
<path d="M944.0 502h0.0"></path><path d="M989.5 502h0.0"></path><rect height="22" width="45.5" x="944.0" y="491"></rect><text x="966.75" y="506">h16</text></g></g><path d="M989.5 502h20"></path></g><path d="M1009.5 502h10"></path><g class="terminal ">
<path d="M1019.5 502h0.0"></path><path d="M1056.5 502h0.0"></path><rect height="22" rx="10" ry="10" width="37.0" x="1019.5" y="491"></rect><text x="1038.0" y="506">::</text></g></g><path d="M1056.5 502a10 10 0 0 0 10 -10v-451a10 10 0 0 1 10 -10"></path></g><path d="M 1076.5 31 h 20 m -10 -10 v 20 m 10 -20 v 20"></path></g></svg>