<svg class="railroad-diagram" height="410" viewBox="0 0 571.0 410" width="571.0" xmlns="http://www.w3.org/2000/svg">
<g transform="translate(.5 .5)">
<style>/* <![CDATA[ */
	svg.railroad-diagram {
		background-color:hsl(30,20%,95%);
	}
	svg.railroad-diagram path {
		stroke-width:3;
		stroke:black;
		fill:rgba(0,0,0,0);
	}
	svg.railroad-diagram text {
		font:bold 14px monospace;
		text-anchor:middle;
	}
	svg.railroad-diagram text.label{
		text-anchor:start;
	}
	svg.railroad-diagram text.comment{
		font:italic 12px monospace;
	}
	svg.railroad-diagram rect{
		stroke-width:3;
		stroke:black;
		fill:hsl(120,100%,90%);
	}
	svg.railroad-diagram rect.group-box {
		stroke: gray;
		stroke-dasharray: 10 5;
		fill: none;
	}

/* ]]> */
</style><g>
<path d="M20 54v20m10 -20v20m-10 -10h20"></path></g><g>
<path d="M40 64h0.0"></path><path d="M531.0 64h0.0"></path><path d="M40.0 64h20"></path><g>
<path d="M60.0 64h68.5"></path><path d="M442.5 64h68.5"></path><rect class="group-box" height="104" rx="10" ry="10" width="314.0" x="128.5" y="36"></rect><g>
<path d="M128.5 64h0.0"></path><path d="M442.5 64h0.0"></path><path d="M128.5 64h20"></path><g>
<path d="M148.5 64h34.5"></path><path d="M388.0 64h34.5"></path><path d="M183.0 64a10 10 0 0 0 10 -10v0a10 10 0 0 1 10 -10h72.5"></path><path d="M295.5 84h72.5a10 10 0 0 0 10 -10v0a10 10 0 0 1 10 -10"></path><path d="M183.0 64h10"></path><g class="non-terminal ">
<path d="M193.0 64h10.0"></path><path d="M265.5 64h10.0"></path><rect height="22" width="62.5" x="203.0" y="53"></rect><text x="234.25" y="68">ALPHA</text></g><path d="M275.5 64a10 10 0 0 1 10 10v0a10 10 0 0 0 10 10"></path><path d="M275.5 44a10 10 0 0 1 10 10v0a10 10 0 0 0 10 10"></path><g class="non-terminal ">
<path d="M295.5 64h10.0"></path><path d="M368.0 64h10.0"></path><rect height="22" width="62.5" x="305.5" y="53"></rect><text x="336.75" y="68">DIGIT</text></g><path d="M378.0 64h10"></path></g><path d="M422.5 64h20"></path><path d="M128.5 64a10 10 0 0 1 10 10v28a10 10 0 0 0 10 10"></path><g>
<path d="M148.5 112h0.0"></path><path d="M422.5 112h0.0"></path><path d="M148.5 112a10 10 0 0 0 10 -10v0a10 10 0 0 1 10 -10h175.5"></path><path d="M227.0 132h175.5a10 10 0 0 0 10 -10v0a10 10 0 0 1 10 -10"></path><path d="M148.5 112h10"></path><g class="terminal ">
<path d="M158.5 112h10.0"></path><path d="M197.0 112h10.0"></path><rect height="22" rx="10" ry="10" width="28.5" x="168.5" y="101"></rect><text x="182.75" y="116">-</text></g><path d="M207.0 112a10 10 0 0 1 10 10v0a10 10 0 0 0 10 10"></path><path d="M207.0 92a10 10 0 0 1 10 10v0a10 10 0 0 0 10 10"></path><g class="terminal ">
<path d="M227.0 112h10.0"></path><path d="M265.5 112h10.0"></path><rect height="22" rx="10" ry="10" width="28.5" x="237.0" y="101"></rect><text x="251.25" y="116">.</text></g><path d="M275.5 112a10 10 0 0 1 10 10v0a10 10 0 0 0 10 10"></path><path d="M275.5 92a10 10 0 0 1 10 10v0a10 10 0 0 0 10 10"></path><g class="terminal ">
<path d="M295.5 112h10.0"></path><path d="M334.0 112h10.0"></path><rect height="22" rx="10" ry="10" width="28.5" x="305.5" y="101"></rect><text x="319.75" y="116">&#95;</text></g><path d="M344.0 112a10 10 0 0 1 10 10v0a10 10 0 0 0 10 10"></path><path d="M344.0 92a10 10 0 0 1 10 10v0a10 10 0 0 0 10 10"></path><g class="terminal ">
<path d="M364.0 112h10.0"></path><path d="M402.5 112h10.0"></path><rect height="22" rx="10" ry="10" width="28.5" x="374.0" y="101"></rect><text x="388.25" y="116">~</text></g><path d="M412.5 112h10"></path></g><path d="M422.5 112a10 10 0 0 0 10 -10v-28a10 10 0 0 1 10 -10"></path></g><g class="non-terminal ">
<path d="M128.5 28h0.0"></path><path d="M208.5 28h0.0"></path><text class="comment" x="168.5" y="33">unreserved</text></g></g><path d="M511.0 64h20"></path><path d="M40.0 64a10 10 0 0 1 10 10v99a10 10 0 0 0 10 10"></path><g>
<path d="M60.0 183h110.25"></path><path d="M400.75 183h110.25"></path><rect class="group-box" height="38" rx="10" ry="10" width="230.5" x="170.25" y="164"></rect><g>
<path d="M170.25 183h10.0"></path><path d="M390.75 183h10.0"></path><g class="terminal ">
<path d="M180.25 183h0.0"></path><path d="M208.75 183h0.0"></path><rect height="22" rx="10" ry="10" width="28.5" x="180.25" y="172"></rect><text x="194.5" y="187">%</text></g><path d="M208.75 183h10"></path><path d="M218.75 183h10"></path><g class="non-terminal ">
<path d="M228.75 183h0.0"></path><path d="M299.75 183h0.0"></path><rect height="22" width="71.0" x="228.75" y="172"></rect><text x="264.25" y="187">HEXDIG</text></g><path d="M299.75 183h10"></path><path d="M309.75 183h10"></path><g class="non-terminal ">
<path d="M319.75 183h0.0"></path><path d="M390.75 183h0.0"></path><rect height="22" width="71.0" x="319.75" y="172"></rect><text x="355.25" y="187">HEXDIG</text></g></g><g class="non-terminal ">
<path d="M170.25 156h0.0"></path><path d="M257.25 156h0.0"></path><text class="comment" x="213.75" y="161">pct-encoded</text></g></g><path d="M511.0 183a10 10 0 0 0 10 -10v-99a10 10 0 0 1 10 -10"></path><path d="M40.0 64a10 10 0 0 1 10 10v170a10 10 0 0 0 10 10"></path><g>
<path d="M60.0 254h0.0"></path><path d="M511.0 254h0.0"></path><rect class="group-box" height="104" rx="10" ry="10" width="451.0" x="60.0" y="226"></rect><g>
<path d="M60.0 254h0.0"></path><path d="M511.0 254h0.0"></path><path d="M60.0 254h20"></path><g>
<path d="M80.0 254h0.0"></path><path d="M491.0 254h0.0"></path><path d="M80.0 254a10 10 0 0 0 10 -10v0a10 10 0 0 1 10 -10h312.5"></path><path d="M158.5 274h312.5a10 10 0 0 0 10 -10v0a10 10 0 0 1 10 -10"></path><path d="M80.0 254h10"></path><g class="terminal ">
<path d="M90.0 254h10.0"></path><path d="M128.5 254h10.0"></path><rect height="22" rx="10" ry="10" width="28.5" x="100.0" y="243"></rect><text x="114.25" y="258">!</text></g><path d="M138.5 254a10 10 0 0 1 10 10v0a10 10 0 0 0 10 10"></path><path d="M138.5 234a10 10 0 0 1 10 10v0a10 10 0 0 0 10 10"></path><g class="terminal ">
<path d="M158.5 254h10.0"></path><path d="M197.0 254h10.0"></path><rect height="22" rx="10" ry="10" width="28.5" x="168.5" y="243"></rect><text x="182.75" y="258">$</text></g><path d="M207.0 254a10 10 0 0 1 10 10v0a10 10 0 0 0 10 10"></path><path d="M207.0 234a10 10 0 0 1 10 10v0a10 10 0 0 0 10 10"></path><g class="terminal ">
<path d="M227.0 254h10.0"></path><path d="M265.5 254h10.0"></path><rect height="22" rx="10" ry="10" width="28.5" x="237.0" y="243"></rect><text x="251.25" y="258">&#38;</text></g><path d="M275.5 254a10 10 0 0 1 10 10v0a10 10 0 0 0 10 10"></path><path d="M275.5 234a10 10 0 0 1 10 10v0a10 10 0 0 0 10 10"></path><g class="terminal ">
<path d="M295.5 254h10.0"></path><path d="M334.0 254h10.0"></path><rect height="22" rx="10" ry="10" width="28.5" x="305.5" y="243"></rect><text x="319.75" y="258">'</text></g><path d="M344.0 254a10 10 0 0 1 10 10v0a10 10 0 0 0 10 10"></path><path d="M344.0 234a10 10 0 0 1 10 10v0a10 10 0 0 0 10 10"></path><g class="terminal ">
<path d="M364.0 254h10.0"></path><path d="M402.5 254h10.0"></path><rect height="22" rx="10" ry="10" width="28.5" x="374.0" y="243"></rect><text x="388.25" y="258">(</text></g><path d="M412.5 254a10 10 0 0 1 10 10v0a10 10 0 0 0 10 10"></path><path d="M412.5 234a10 10 0 0 1 10 10v0a10 10 0 0 0 10 10"></path><g class="terminal ">
<path d="M432.5 254h10.0"></path><path d="M471.0 254h10.0"></path><rect height="22" rx="10" ry="10" width="28.5" x="442.5" y="243"></rect><text x="456.75" y="258">)</text></g><path d="M481.0 254h10"></path></g><path d="M491.0 254h20"></path><path d="M60.0 254a10 10 0 0 1 10 10v28a10 10 0 0 0 10 10"></path><g>
<path d="M80.0 302h34.25"></path><path d="M456.75 302h34.25"></path><path d="M114.25 302a10 10 0 0 0 10 -10v0a10 10 0 0 1 10 -10h244.0"></path><path d="M192.75 322h244.0a10 10 0 0 0 10 -10v0a10 10 0 0 1 10 -10"></path><path d="M114.25 302h10"></path><g class="terminal ">
<path d="M124.25 302h10.0"></path><path d="M162.75 302h10.0"></path><rect height="22" rx="10" ry="10" width="28.5" x="134.25" y="291"></rect><text x="148.5" y="306">&#42;</text></g><path d="M172.75 302a10 10 0 0 1 10 10v0a10 10 0 0 0 10 10"></path><path d="M172.75 282a10 10 0 0 1 10 10v0a10 10 0 0 0 10 10"></path><g class="terminal ">
<path d="M192.75 302h10.0"></path><path d="M231.25 302h10.0"></path><rect height="22" rx="10" ry="10" width="28.5" x="202.75" y="291"></rect><text x="217.0" y="306">+</text></g><path d="M241.25 302a10 10 0 0 1 10 10v0a10 10 0 0 0 10 10"></path><path d="M241.25 282a10 10 0 0 1 10 10v0a10 10 0 0 0 10 10"></path><g class="terminal ">
<path d="M261.25 302h10.0"></path><path d="M299.75 302h10.0"></path><rect height="22" rx="10" ry="10" width="28.5" x="271.25" y="291"></rect><text x="285.5" y="306">,</text></g><path d="M309.75 302a10 10 0 0 1 10 10v0a10 10 0 0 0 10 10"></path><path d="M309.75 282a10 10 0 0 1 10 10v0a10 10 0 0 0 10 10"></path><g class="terminal ">
<path d="M329.75 302h10.0"></path><path d="M368.25 302h10.0"></path><rect height="22" rx="10" ry="10" width="28.5" x="339.75" y="291"></rect><text x="354.0" y="306">;</text></g><path d="M378.25 302a10 10 0 0 1 10 10v0a10 10 0 0 0 10 10"></path><path d="M378.25 282a10 10 0 0 1 10 10v0a10 10 0 0 0 10 10"></path><g class="terminal ">
<path d="M398.25 302h10.0"></path><path d="M436.75 302h10.0"></path><rect height="22" rx="10" ry="10" width="28.5" x="408.25" y="291"></rect><text x="422.5" y="306">=</text></g><path d="M446.75 302h10"></path></g><path d="M491.0 302a10 10 0 0 0 10 -10v-28a10 10 0 0 1 10 -10"></path></g><g class="non-terminal ">
<path d="M60.0 218h0.0"></path><path d="M140.0 218h0.0"></path><text class="comment" x="100.0" y="223">sub-delims</text></g></g><path d="M511.0 254a10 10 0 0 0 10 -10v-170a10 10 0 0 1 10 -10"></path><path d="M40.0 64a10 10 0 0 1 10 10v265a10 10 0 0 0 10 10"></path><g class="terminal ">
<path d="M60.0 349h211.25"></path><path d="M299.75 349h211.25"></path><rect height="22" rx="10" ry="10" width="28.5" x="271.25" y="338"></rect><text x="285.5" y="353">:</text></g><path d="M511.0 349a10 10 0 0 0 10 -10v-265a10 10 0 0 1 10 -10"></path><path d="M40.0 64a10 10 0 0 1 10 10v295a10 10 0 0 0 10 10"></path><g class="terminal ">
<path d="M60.0 379h211.25"></path><path d="M299.75 379h211.25"></path><rect height="22" rx="10" ry="10" width="28.5" x="271.25" y="368"></rect><text x="285.5" y="383">@</text></g><path d="M511.0 379a10 10 0 0 0 10 -10v-295a10 10 0 0 1 10 -10"></path></g><path d="M 531.0 64 h 20 m -10 -10 v 20 m 10 -20 v 20"></path></g></svg>