<svg class="railroad-diagram" height="293" viewBox="0 0 1315.0 293" width="1315.0" xmlns="http://www.w3.org/2000/svg">
<g transform="translate(.5 .5)">
<style>/* <![CDATA[ */
	svg.railroad-diagram {
		background-color:hsl(30,20%,95%);
	}
	svg.railroad-diagram path {
		stroke-width:3;
		stroke:black;
		fill:rgba(0,0,0,0);
	}
	svg.railroad-diagram text {
		font:bold 14px monospace;
		text-anchor:middle;
	}
	svg.railroad-diagram text.label{
		text-anchor:start;
	}
	svg.railroad-diagram text.comment{
		font:italic 12px monospace;
	}
	svg.railroad-diagram rect{
		stroke-width:3;
		stroke:black;
		fill:hsl(120,100%,90%);
	}
	svg.railroad-diagram rect.group-box {
		stroke: gray;
		stroke-dasharray: 10 5;
		fill: none;
	}

/* ]]> */
</style><g>
<path d="M20 86v20m10 -20v20m-10 -10h20"></path></g><path d="M40 96h10"></path><g>
<path d="M50 96h0.0"></path><path d="M1265.0 96h0.0"></path><g class="non-terminal ">
<path d="M50.0 96h0.0"></path><path d="M121.0 96h0.0"></path><rect height="22" width="71.0" x="50.0" y="85"></rect><text x="85.5" y="100">scheme</text></g><path d="M121.0 96h10"></path><path d="M131.0 96h10"></path><g class="terminal ">
<path d="M141.0 96h0.0"></path><path d="M169.5 96h0.0"></path><rect height="22" rx="10" ry="10" width="28.5" x="141.0" y="85"></rect><text x="155.25" y="100">:</text></g><path d="M169.5 96h10"></path><path d="M179.5 96h10"></path><g>
<path d="M189.5 96h0.0"></path><path d="M927.5 96h0.0"></path><rect class="group-box" height="237" rx="10" ry="10" width="738.0" x="189.5" y="36"></rect><g>
<path d="M189.5 96h0.0"></path><path d="M927.5 96h0.0"></path><path d="M189.5 96a10 10 0 0 0 10 -10v-32a10 10 0 0 1 10 -10"></path><g>
<path d="M209.5 44h698.0"></path></g><path d="M907.5 44a10 10 0 0 1 10 10v32a10 10 0 0 0 10 10"></path><path d="M189.5 96h20"></path><g>
<path d="M209.5 96h0.0"></path><path d="M907.5 96h0.0"></path><path d="M209.5 96h20"></path><g>
<path d="M229.5 96h0.0"></path><path d="M887.5 96h0.0"></path><g class="terminal ">
<path d="M229.5 96h0.0"></path><path d="M266.5 96h0.0"></path><rect height="22" rx="10" ry="10" width="37.0" x="229.5" y="85"></rect><text x="248.0" y="100">//</text></g><path d="M266.5 96h10"></path><path d="M276.5 96h10"></path><g>
<path d="M286.5 96h0.0"></path><path d="M699.5 96h0.0"></path><rect class="group-box" height="47" rx="10" ry="10" width="413.0" x="286.5" y="68"></rect><g>
<path d="M286.5 96h10.0"></path><path d="M689.5 96h10.0"></path><g>
<path d="M296.5 96h0.0"></path><path d="M473.0 96h0.0"></path><path d="M296.5 96a10 10 0 0 0 10 -10v0a10 10 0 0 1 10 -10"></path><g>
<path d="M316.5 76h136.5"></path></g><path d="M453.0 76a10 10 0 0 1 10 10v0a10 10 0 0 0 10 10"></path><path d="M296.5 96h20"></path><g>
<path d="M316.5 96h0.0"></path><path d="M453.0 96h0.0"></path><g class="non-terminal ">
<path d="M316.5 96h0.0"></path><path d="M404.5 96h0.0"></path><rect height="22" width="88.0" x="316.5" y="85"></rect><text x="360.5" y="100">userinfo</text></g><path d="M404.5 96h10"></path><path d="M414.5 96h10"></path><g class="terminal ">
<path d="M424.5 96h0.0"></path><path d="M453.0 96h0.0"></path><rect height="22" rx="10" ry="10" width="28.5" x="424.5" y="85"></rect><text x="438.75" y="100">@</text></g></g><path d="M453.0 96h20"></path></g><path d="M473.0 96h10"></path><g class="non-terminal ">
<path d="M483.0 96h0.0"></path><path d="M537.0 96h0.0"></path><rect height="22" width="54.0" x="483.0" y="85"></rect><text x="510.0" y="100">host</text></g><path d="M537.0 96h10"></path><g>
<path d="M547.0 96h0.0"></path><path d="M689.5 96h0.0"></path><path d="M547.0 96a10 10 0 0 0 10 -10v0a10 10 0 0 1 10 -10"></path><g>
<path d="M567.0 76h102.5"></path></g><path d="M669.5 76a10 10 0 0 1 10 10v0a10 10 0 0 0 10 10"></path><path d="M547.0 96h20"></path><g>
<path d="M567.0 96h0.0"></path><path d="M669.5 96h0.0"></path><g class="terminal ">
<path d="M567.0 96h0.0"></path><path d="M595.5 96h0.0"></path><rect height="22" rx="10" ry="10" width="28.5" x="567.0" y="85"></rect><text x="581.25" y="100">:</text></g><path d="M595.5 96h10"></path><path d="M605.5 96h10"></path><g class="non-terminal ">
<path d="M615.5 96h0.0"></path><path d="M669.5 96h0.0"></path><rect height="22" width="54.0" x="615.5" y="85"></rect><text x="642.5" y="100">port</text></g></g><path d="M669.5 96h20"></path></g></g><g class="non-terminal ">
<path d="M286.5 60h0.0"></path><path d="M359.5 60h0.0"></path><text class="comment" x="323.0" y="65">authority</text></g></g><path d="M699.5 96h10"></path><path d="M709.5 96h10"></path><g>
<path d="M719.5 96h0.0"></path><path d="M887.5 96h0.0"></path><rect class="group-box" height="47" rx="10" ry="10" width="168.0" x="719.5" y="68"></rect><g>
<path d="M719.5 96h0.0"></path><path d="M887.5 96h0.0"></path><path d="M719.5 96a10 10 0 0 0 10 -10v0a10 10 0 0 1 10 -10"></path><g>
<path d="M739.5 76h128.0"></path></g><path d="M867.5 76a10 10 0 0 1 10 10v0a10 10 0 0 0 10 10"></path><path d="M719.5 96h20"></path><g>
<path d="M739.5 96h0.0"></path><path d="M867.5 96h0.0"></path><g class="terminal ">
<path d="M739.5 96h0.0"></path><path d="M768.0 96h0.0"></path><rect height="22" rx="10" ry="10" width="28.5" x="739.5" y="85"></rect><text x="753.75" y="100">/</text></g><path d="M768.0 96h10"></path><path d="M778.0 96h10"></path><g class="non-terminal ">
<path d="M788.0 96h0.0"></path><path d="M867.5 96h0.0"></path><rect height="22" width="79.5" x="788.0" y="85"></rect><text x="827.75" y="100">segment</text></g></g><path d="M867.5 96h20"></path></g><g class="non-terminal ">
<path d="M719.5 60h0.0"></path><path d="M813.5 60h0.0"></path><text class="comment" x="766.5" y="65">path-abempty</text></g></g></g><path d="M887.5 96h20"></path><path d="M209.5 96a10 10 0 0 1 10 10v59a10 10 0 0 0 10 10"></path><g>
<path d="M229.5 175h138.25"></path><path d="M749.25 175h138.25"></path><rect class="group-box" height="55" rx="10" ry="10" width="381.5" x="367.75" y="139"></rect><g>
<path d="M367.75 175h10.0"></path><path d="M739.25 175h10.0"></path><g class="terminal ">
<path d="M377.75 175h0.0"></path><path d="M406.25 175h0.0"></path><rect height="22" rx="10" ry="10" width="28.5" x="377.75" y="164"></rect><text x="392.0" y="179">/</text></g><path d="M406.25 175h10"></path><g>
<path d="M416.25 175h0.0"></path><path d="M739.25 175h0.0"></path><path d="M416.25 175a10 10 0 0 0 10 -10v-8a10 10 0 0 1 10 -10"></path><g>
<path d="M436.25 147h283.0"></path></g><path d="M719.25 147a10 10 0 0 1 10 10v8a10 10 0 0 0 10 10"></path><path d="M416.25 175h20"></path><g>
<path d="M436.25 175h0.0"></path><path d="M719.25 175h0.0"></path><g class="non-terminal ">
<path d="M436.25 175h0.0"></path><path d="M541.25 175h0.0"></path><rect height="22" width="105.0" x="436.25" y="164"></rect><text x="488.75" y="179">segment-nz</text></g><path d="M541.25 175h10"></path><g>
<path d="M551.25 175h0.0"></path><path d="M719.25 175h0.0"></path><path d="M551.25 175a10 10 0 0 0 10 -10v0a10 10 0 0 1 10 -10"></path><g>
<path d="M571.25 155h128.0"></path></g><path d="M699.25 155a10 10 0 0 1 10 10v0a10 10 0 0 0 10 10"></path><path d="M551.25 175h20"></path><g>
<path d="M571.25 175h0.0"></path><path d="M699.25 175h0.0"></path><g class="terminal ">
<path d="M571.25 175h0.0"></path><path d="M599.75 175h0.0"></path><rect height="22" rx="10" ry="10" width="28.5" x="571.25" y="164"></rect><text x="585.5" y="179">/</text></g><path d="M599.75 175h10"></path><path d="M609.75 175h10"></path><g class="non-terminal ">
<path d="M619.75 175h0.0"></path><path d="M699.25 175h0.0"></path><rect height="22" width="79.5" x="619.75" y="164"></rect><text x="659.5" y="179">segment</text></g></g><path d="M699.25 175h20"></path></g></g><path d="M719.25 175h20"></path></g></g><g class="non-terminal ">
<path d="M367.75 131h0.0"></path><path d="M468.75 131h0.0"></path><text class="comment" x="418.25" y="136">path-absolute</text></g></g><path d="M887.5 175a10 10 0 0 0 10 -10v-59a10 10 0 0 1 10 -10"></path><path d="M209.5 96a10 10 0 0 1 10 10v130a10 10 0 0 0 10 10"></path><g>
<path d="M229.5 246h177.5"></path><path d="M710.0 246h177.5"></path><rect class="group-box" height="47" rx="10" ry="10" width="303.0" x="407.0" y="218"></rect><g>
<path d="M407.0 246h10.0"></path><path d="M700.0 246h10.0"></path><g class="non-terminal ">
<path d="M417.0 246h0.0"></path><path d="M522.0 246h0.0"></path><rect height="22" width="105.0" x="417.0" y="235"></rect><text x="469.5" y="250">segment-nz</text></g><path d="M522.0 246h10"></path><g>
<path d="M532.0 246h0.0"></path><path d="M700.0 246h0.0"></path><path d="M532.0 246a10 10 0 0 0 10 -10v0a10 10 0 0 1 10 -10"></path><g>
<path d="M552.0 226h128.0"></path></g><path d="M680.0 226a10 10 0 0 1 10 10v0a10 10 0 0 0 10 10"></path><path d="M532.0 246h20"></path><g>
<path d="M552.0 246h0.0"></path><path d="M680.0 246h0.0"></path><g class="terminal ">
<path d="M552.0 246h0.0"></path><path d="M580.5 246h0.0"></path><rect height="22" rx="10" ry="10" width="28.5" x="552.0" y="235"></rect><text x="566.25" y="250">/</text></g><path d="M580.5 246h10"></path><path d="M590.5 246h10"></path><g class="non-terminal ">
<path d="M600.5 246h0.0"></path><path d="M680.0 246h0.0"></path><rect height="22" width="79.5" x="600.5" y="235"></rect><text x="640.25" y="250">segment</text></g></g><path d="M680.0 246h20"></path></g></g><g class="non-terminal ">
<path d="M407.0 210h0.0"></path><path d="M508.0 210h0.0"></path><text class="comment" x="457.5" y="215">path-rootless</text></g></g><path d="M887.5 246a10 10 0 0 0 10 -10v-130a10 10 0 0 1 10 -10"></path></g><path d="M907.5 96h20"></path></g><g class="non-terminal ">
<path d="M189.5 28h0.0"></path><path d="M262.5 28h0.0"></path><text class="comment" x="226.0" y="33">hier-part</text></g></g><path d="M927.5 96h10"></path><g>
<path d="M937.5 96h0.0"></path><path d="M1088.5 96h0.0"></path><path d="M937.5 96a10 10 0 0 0 10 -10v0a10 10 0 0 1 10 -10"></path><g>
<path d="M957.5 76h111.0"></path></g><path d="M1068.5 76a10 10 0 0 1 10 10v0a10 10 0 0 0 10 10"></path><path d="M937.5 96h20"></path><g>
<path d="M957.5 96h0.0"></path><path d="M1068.5 96h0.0"></path><g class="terminal ">
<path d="M957.5 96h0.0"></path><path d="M986.0 96h0.0"></path><rect height="22" rx="10" ry="10" width="28.5" x="957.5" y="85"></rect><text x="971.75" y="100">?</text></g><path d="M986.0 96h10"></path><path d="M996.0 96h10"></path><g class="non-terminal ">
<path d="M1006.0 96h0.0"></path><path d="M1068.5 96h0.0"></path><rect height="22" width="62.5" x="1006.0" y="85"></rect><text x="1037.25" y="100">query</text></g></g><path d="M1068.5 96h20"></path></g><g>
<path d="M1088.5 96h0.0"></path><path d="M1265.0 96h0.0"></path><path d="M1088.5 96a10 10 0 0 0 10 -10v0a10 10 0 0 1 10 -10"></path><g>
<path d="M1108.5 76h136.5"></path></g><path d="M1245.0 76a10 10 0 0 1 10 10v0a10 10 0 0 0 10 10"></path><path d="M1088.5 96h20"></path><g>
<path d="M1108.5 96h0.0"></path><path d="M1245.0 96h0.0"></path><g class="terminal ">
<path d="M1108.5 96h0.0"></path><path d="M1137.0 96h0.0"></path><rect height="22" rx="10" ry="10" width="28.5" x="1108.5" y="85"></rect><text x="1122.75" y="100">#</text></g><path d="M1137.0 96h10"></path><path d="M1147.0 96h10"></path><g class="non-terminal ">
<path d="M1157.0 96h0.0"></path><path d="M1245.0 96h0.0"></path><rect height="22" width="88.0" x="1157.0" y="85"></rect><text x="1201.0" y="100">fragment</text></g></g><path d="M1245.0 96h20"></path></g></g><path d="M1265.0 96h10"></path><path d="M 1275.0 96 h 20 m -10 -10 v 20 m 10 -20 v 20"></path></g></svg>