<svg class="railroad-diagram" height="110" viewBox="0 0 736.5 110" width="736.5" xmlns="http://www.w3.org/2000/svg">
<g transform="translate(.5 .5)">
<style>/* <![CDATA[ */
	svg.railroad-diagram {
		background-color:hsl(30,20%,95%);
	}
	svg.railroad-diagram path {
		stroke-width:3;
		stroke:black;
		fill:rgba(0,0,0,0);
	}
	svg.railroad-diagram text {
		font:bold 14px monospace;
		text-anchor:middle;
	}
	svg.railroad-diagram text.label{
		text-anchor:start;
	}
	svg.railroad-diagram text.comment{
		font:italic 12px monospace;
	}
	svg.railroad-diagram rect{
		stroke-width:3;
		stroke:black;
		fill:hsl(120,100%,90%);
	}
	svg.railroad-diagram rect.group-box {
		stroke: gray;
		stroke-dasharray: 10 5;
		fill: none;
	}

/* ]]> */
</style><g>
<path d="M20 21v20m10 -20v20m-10 -10h20"></path></g><g>
<path d="M40 31h0.0"></path><path d="M696.5 31h0.0"></path><path d="M40.0 31h20"></path><g class="non-terminal ">
<path d="M60.0 31h264.25"></path><path d="M412.25 31h264.25"></path><rect height="22" width="88.0" x="324.25" y="20"></rect><text x="368.25" y="35">ALPHANUM</text></g><path d="M676.5 31h20"></path><path d="M40.0 31a10 10 0 0 1 10 10v19a10 10 0 0 0 10 10"></path><g>
<path d="M60.0 70h0.0"></path><path d="M676.5 70h0.0"></path><path d="M60.0 70a10 10 0 0 0 10 -10v0a10 10 0 0 1 10 -10h518.0"></path><path d="M138.5 90h518.0a10 10 0 0 0 10 -10v0a10 10 0 0 1 10 -10"></path><path d="M60.0 70h10"></path><g class="terminal ">
<path d="M70.0 70h10.0"></path><path d="M108.5 70h10.0"></path><rect height="22" rx="10" ry="10" width="28.5" x="80.0" y="59"></rect><text x="94.25" y="74">-</text></g><path d="M118.5 70a10 10 0 0 1 10 10v0a10 10 0 0 0 10 10"></path><path d="M118.5 50a10 10 0 0 1 10 10v0a10 10 0 0 0 10 10"></path><g class="terminal ">
<path d="M138.5 70h10.0"></path><path d="M177.0 70h10.0"></path><rect height="22" rx="10" ry="10" width="28.5" x="148.5" y="59"></rect><text x="162.75" y="74">&#95;</text></g><path d="M187.0 70a10 10 0 0 1 10 10v0a10 10 0 0 0 10 10"></path><path d="M187.0 50a10 10 0 0 1 10 10v0a10 10 0 0 0 10 10"></path><g class="terminal ">
<path d="M207.0 70h10.0"></path><path d="M245.5 70h10.0"></path><rect height="22" rx="10" ry="10" width="28.5" x="217.0" y="59"></rect><text x="231.25" y="74">.</text></g><path d="M255.5 70a10 10 0 0 1 10 10v0a10 10 0 0 0 10 10"></path><path d="M255.5 50a10 10 0 0 1 10 10v0a10 10 0 0 0 10 10"></path><g class="terminal ">
<path d="M275.5 70h10.0"></path><path d="M314.0 70h10.0"></path><rect height="22" rx="10" ry="10" width="28.5" x="285.5" y="59"></rect><text x="299.75" y="74">!</text></g><path d="M324.0 70a10 10 0 0 1 10 10v0a10 10 0 0 0 10 10"></path><path d="M324.0 50a10 10 0 0 1 10 10v0a10 10 0 0 0 10 10"></path><g class="terminal ">
<path d="M344.0 70h10.0"></path><path d="M382.5 70h10.0"></path><rect height="22" rx="10" ry="10" width="28.5" x="354.0" y="59"></rect><text x="368.25" y="74">~</text></g><path d="M392.5 70a10 10 0 0 1 10 10v0a10 10 0 0 0 10 10"></path><path d="M392.5 50a10 10 0 0 1 10 10v0a10 10 0 0 0 10 10"></path><g class="terminal ">
<path d="M412.5 70h10.0"></path><path d="M451.0 70h10.0"></path><rect height="22" rx="10" ry="10" width="28.5" x="422.5" y="59"></rect><text x="436.75" y="74">&#42;</text></g><path d="M461.0 70a10 10 0 0 1 10 10v0a10 10 0 0 0 10 10"></path><path d="M461.0 50a10 10 0 0 1 10 10v0a10 10 0 0 0 10 10"></path><g class="terminal ">
<path d="M481.0 70h10.0"></path><path d="M519.5 70h10.0"></path><rect height="22" rx="10" ry="10" width="28.5" x="491.0" y="59"></rect><text x="505.25" y="74">'</text></g><path d="M529.5 70a10 10 0 0 1 10 10v0a10 10 0 0 0 10 10"></path><path d="M529.5 50a10 10 0 0 1 10 10v0a10 10 0 0 0 10 10"></path><g class="terminal ">
<path d="M549.5 70h10.0"></path><path d="M588.0 70h10.0"></path><rect height="22" rx="10" ry="10" width="28.5" x="559.5" y="59"></rect><text x="573.75" y="74">(</text></g><path d="M598.0 70a10 10 0 0 1 10 10v0a10 10 0 0 0 10 10"></path><path d="M598.0 50a10 10 0 0 1 10 10v0a10 10 0 0 0 10 10"></path><g class="terminal ">
<path d="M618.0 70h10.0"></path><path d="M656.5 70h10.0"></path><rect height="22" rx="10" ry="10" width="28.5" x="628.0" y="59"></rect><text x="642.25" y="74">)</text></g><path d="M666.5 70h10"></path></g><path d="M676.5 70a10 10 0 0 0 10 -10v-19a10 10 0 0 1 10 -10"></path></g><path d="M 696.5 31 h 20 m -10 -10 v 20 m 10 -20 v 20"></path></g></svg>